<?xml version="1.0" standalone="no"?>
<!DOCTYPE svg PUBLIC "-//W3C//DTD SVG 1.1//EN" "http://www.w3.org/Graphics/SVG/1.1/DTD/svg11.dtd" >
<svg xmlns="http://www.w3.org/2000/svg" xmlns:xlink="http://www.w3.org/1999/xlink" version="1.1">
<metadata></metadata>
<defs>
<font id="dot_matrixbold" horiz-adv-x="1228" >
<font-face units-per-em="2048" ascent="1638" descent="-410" />
<missing-glyph horiz-adv-x="500" />
<glyph horiz-adv-x="0" />
<glyph unicode="&#xd;" />
<glyph unicode=" " />
<glyph unicode="!" horiz-adv-x="614" d="M0 1327q0 41 30.5 70.5t73.5 29.5t74 -29.5t31 -70.5t-31 -70.5t-74 -29.5t-73.5 29.5t-30.5 70.5zM0 1126q0 41 30.5 71t73.5 30t74 -30t31 -71q0 -43 -31 -72.5t-74 -29.5t-73.5 29.5t-30.5 72.5zM0 922q0 41 29.5 71.5t72.5 30.5t73 -30.5t30 -71.5q0 -43 -30 -74 t-73 -31t-72.5 31t-29.5 74zM0 715q0 41 29.5 71.5t72.5 30.5t73 -30.5t30 -71.5q0 -43 -30 -74t-73 -31t-72.5 31t-29.5 74zM0 510q0 41 30.5 70.5t73.5 29.5t74 -29.5t31 -70.5q0 -43 -31 -72.5t-74 -29.5t-73.5 29.5t-30.5 72.5zM0 100q0 41 30.5 70t73.5 29t74 -29 t31 -70q0 -43 -31 -71.5t-74 -28.5t-73.5 28.5t-30.5 71.5zM205 1327q0 41 30.5 70.5t73.5 29.5t74 -29.5t31 -70.5t-31 -70.5t-74 -29.5t-73.5 29.5t-30.5 70.5zM205 1126q0 41 30.5 71t73.5 30t74 -30t31 -71q0 -43 -31 -72.5t-74 -29.5t-73.5 29.5t-30.5 72.5zM205 922 q0 41 29.5 71.5t72.5 30.5t73 -30.5t30 -71.5q0 -43 -30 -74t-73 -31t-72.5 31t-29.5 74zM205 715q0 41 29.5 71.5t72.5 30.5t73 -30.5t30 -71.5q0 -43 -30 -74t-73 -31t-72.5 31t-29.5 74zM205 510q0 41 30.5 70.5t73.5 29.5t74 -29.5t31 -70.5q0 -43 -31 -72.5t-74 -29.5 t-73.5 29.5t-30.5 72.5zM205 100q0 41 30.5 70t73.5 29t74 -29t31 -70q0 -43 -31 -71.5t-74 -28.5t-73.5 28.5t-30.5 71.5z" />
<glyph unicode="&#x22;" d="M0 1329q0 41 30.5 69.5t75.5 28.5q43 0 74 -28.5t31 -69.5t-30.5 -69.5t-74.5 -28.5q-45 0 -75.5 28.5t-30.5 69.5zM0 1128q0 41 30.5 72t75.5 31q43 0 74 -31t31 -72q0 -43 -30.5 -73.5t-74.5 -30.5q-45 0 -75.5 30.5t-30.5 73.5zM203 1327q0 41 30.5 70.5t75.5 29.5 q43 0 74 -29.5t31 -70.5t-31 -70.5t-74 -29.5q-45 0 -75.5 29.5t-30.5 70.5zM201 1124q0 43 30.5 73t75.5 30t76 -30t31 -73t-31 -72.5t-76 -29.5t-75.5 29.5t-30.5 72.5zM614 1329q0 41 31 69.5t76 28.5q43 0 73.5 -28.5t30.5 -69.5t-30.5 -69.5t-73.5 -28.5 q-45 0 -76 28.5t-31 69.5zM614 1128q0 41 31 72t76 31q43 0 73.5 -31t30.5 -72q0 -43 -30.5 -73.5t-73.5 -30.5q-45 0 -76 30.5t-31 73.5zM817 1327q0 41 31 70.5t76 29.5q43 0 73.5 -29.5t30.5 -70.5t-30.5 -70.5t-73.5 -29.5q-45 0 -76 29.5t-31 70.5zM815 1124 q0 43 31 73t76 30t75.5 -30t30.5 -73t-30.5 -72.5t-75.5 -29.5t-76 29.5t-31 72.5z" />
<glyph unicode="#" horiz-adv-x="1638" d="M0 920q0 41 30.5 70.5t73.5 29.5t74 -29.5t31 -70.5q0 -43 -31 -73t-74 -30t-73.5 30t-30.5 73zM209 920q0 43 29.5 72.5t72.5 29.5t73 -29.5t30 -72.5t-30 -73t-73 -30t-72.5 30t-29.5 73zM414 924q0 41 29.5 69.5t72.5 28.5zM410 510q0 41 29.5 69.5t72.5 28.5 q41 0 70.5 -28.5t29.5 -69.5t-29.5 -69.5t-70.5 -28.5q-43 0 -72.5 28.5t-29.5 69.5zM205 512q0 41 29.5 70.5t72.5 29.5t73 -29.5t30 -70.5t-30 -70.5t-73 -29.5t-72.5 29.5t-29.5 70.5zM0 512q0 41 29.5 70.5t72.5 29.5t73 -29.5t30 -70.5t-30 -70.5t-73 -29.5t-72.5 29.5 t-29.5 70.5zM201 307q0 39 30.5 67.5t73.5 28.5t74 -28.5t31 -67.5q0 -41 -31 -69.5t-74 -28.5t-73.5 28.5t-30.5 69.5zM209 715q0 41 29.5 69.5t72.5 28.5q41 0 71 -28.5t30 -69.5q0 -43 -30 -72t-71 -29q-43 0 -72.5 29t-29.5 72zM211 1128q0 41 29.5 70t70.5 29t71 -29 t30 -70q0 -39 -30 -68.5t-71 -29.5t-70.5 29.5t-29.5 68.5zM205 920q0 41 30.5 70.5t73.5 29.5t74 -29.5t31 -70.5q0 -43 -31 -73t-74 -30t-73.5 30t-30.5 73zM414 920q0 43 29.5 72.5t72.5 29.5t72.5 -29.5t29.5 -72.5t-29.5 -73t-72.5 -30t-72.5 30t-29.5 73zM1026 920 q0 41 30.5 71.5t73.5 30.5q41 0 72 -30.5t31 -71.5q0 -43 -31 -74t-72 -31q-43 0 -73.5 31t-30.5 74zM815 510q0 41 31 70.5t76 29.5zM621 510q0 41 29.5 69.5t70.5 28.5q43 0 72.5 -28.5t29.5 -69.5t-29.5 -69.5t-72.5 -28.5q-41 0 -70.5 28.5t-29.5 69.5zM410 512 q0 41 29.5 70.5t72.5 29.5t72.5 -29.5t29.5 -70.5t-29.5 -70.5t-72.5 -29.5t-72.5 29.5t-29.5 70.5zM205 512q0 41 29.5 70.5t72.5 29.5t73 -29.5t30 -70.5t-30 -70.5t-73 -29.5t-72.5 29.5t-29.5 70.5zM406 307q0 39 30.5 67.5t73.5 28.5t73.5 -28.5t30.5 -67.5 q0 -41 -30.5 -69.5t-73.5 -28.5t-73.5 28.5t-30.5 69.5zM414 715q0 41 29.5 69.5t72.5 28.5q41 0 70.5 -28.5t29.5 -69.5q0 -43 -29.5 -72t-70.5 -29q-43 0 -72.5 29t-29.5 72zM416 1128q0 41 29.5 70t70.5 29t70.5 -29t29.5 -70q0 -39 -29.5 -68.5t-70.5 -29.5t-70.5 29.5 t-29.5 68.5zM614 920q0 41 31 70.5t74 29.5t73.5 -29.5t30.5 -70.5q0 -43 -30.5 -73t-73.5 -30t-74 30t-31 73zM823 920q0 43 30 72.5t73 29.5t72.5 -29.5t29.5 -72.5t-29.5 -73t-72.5 -30t-73 30t-30 73zM815 307q0 39 31 67.5t74 28.5t73.5 -28.5t30.5 -67.5 q0 -41 -30.5 -69.5t-73.5 -28.5t-74 28.5t-31 69.5zM823 717q0 41 30 69.5t73 28.5q41 0 70.5 -28.5t29.5 -69.5q0 -43 -29.5 -72t-70.5 -29q-43 0 -73 29t-30 72zM825 1128q0 41 30 70t71 29t70.5 -29t29.5 -70q0 -39 -29.5 -68.5t-70.5 -29.5t-71 29.5t-30 68.5zM1028 920 q0 43 29.5 72.5t72.5 29.5t73 -29.5t30 -72.5t-29.5 -73t-73.5 -30q-43 0 -72.5 30t-29.5 73zM1233 924q0 41 29.5 69.5t72.5 28.5t73 -28.5t30 -69.5q0 -43 -30 -72t-73 -29t-72.5 29t-29.5 72zM1235 510q0 39 29.5 68.5t72.5 29.5q41 0 71 -29.5t30 -68.5q0 -45 -30 -71.5 t-71 -26.5q-43 0 -72.5 28.5t-29.5 69.5zM1024 512q0 41 29.5 70.5t72.5 29.5t73 -29.5t30 -70.5t-30 -70.5t-73 -29.5t-72.5 29.5t-29.5 70.5zM819 512q0 41 30 70.5t73 29.5t72.5 -29.5t29.5 -70.5t-29.5 -70.5t-72.5 -29.5t-73 29.5t-30 70.5zM1020 307q0 39 30.5 67.5 t73.5 28.5t74 -28.5t31 -67.5q0 -41 -31 -69.5t-74 -28.5t-73.5 28.5t-30.5 69.5zM1028 715q0 41 29.5 69.5t72.5 28.5q41 0 71 -28.5t30 -69.5q0 -43 -30 -72t-71 -29q-43 0 -72.5 29t-29.5 72zM1030 1128q0 41 30 70t70 29q41 0 71 -29t30 -70q0 -39 -30 -68.5t-71 -29.5 t-70.5 29.5t-29.5 68.5z" />
<glyph unicode="$" d="M414 1335q0 41 30.5 70t73.5 29q45 0 76 -29t31 -70q0 -39 -31 -67.5t-76 -28.5q-43 0 -73.5 28.5t-30.5 67.5zM618 1128q0 43 30 74t73 31q41 0 70.5 -31t29.5 -74q0 -45 -29.5 -75.5t-70.5 -30.5q-43 0 -73 30.5t-30 75.5zM410 1126q0 41 28.5 71t71.5 30 q41 0 69.5 -30t28.5 -71q0 -43 -28.5 -72.5t-69.5 -29.5q-43 0 -71.5 29.5t-28.5 72.5zM203 1124q0 41 30.5 72t73.5 31q41 0 72 -31t31 -72q0 -43 -31 -73.5t-72 -30.5q-43 0 -73.5 30.5t-30.5 73.5zM0 922q0 41 29.5 69.5t72.5 28.5q41 0 71 -28.5t30 -69.5q0 -43 -30 -72 t-71 -29q-43 0 -72.5 29t-29.5 72zM197 715q0 41 31.5 70.5t76.5 29.5q43 0 75 -29.5t32 -70.5t-32 -71t-75 -30q-45 0 -76.5 30t-31.5 71zM412 717q0 41 30.5 70.5t75.5 29.5q43 0 74 -29.5t31 -70.5q0 -43 -31 -73t-74 -30q-45 0 -75.5 30t-30.5 73zM618 512q0 41 30 71.5 t73 30.5q41 0 70.5 -30.5t29.5 -71.5q0 -43 -29.5 -73.5t-70.5 -30.5q-43 0 -73 30.5t-30 73.5zM410 305q0 37 29.5 64.5t72.5 27.5t72.5 -27.5t29.5 -64.5q0 -39 -29.5 -66.5t-72.5 -27.5t-72.5 27.5t-29.5 66.5zM203 307q0 39 30.5 67.5t73.5 28.5q41 0 72 -28.5t31 -67.5 t-31 -67.5t-72 -28.5q-43 0 -73.5 28.5t-30.5 67.5zM0 305q0 41 29.5 69.5t72.5 28.5q41 0 71 -28.5t30 -69.5q0 -43 -30 -71.5t-71 -28.5q-43 0 -72.5 28.5t-29.5 71.5zM201 102q0 41 31.5 71t76.5 30q43 0 75 -30t32 -71q0 -43 -32 -72.5t-75 -29.5q-45 0 -76.5 29.5 t-31.5 72.5zM618 1335q0 41 31 70t74 29q45 0 75.5 -29t30.5 -70q0 -39 -30.5 -67.5t-75.5 -28.5q-43 0 -74 28.5t-31 67.5zM414 106q0 41 30.5 70t73.5 29q45 0 76 -29t31 -70q0 -39 -31 -67.5t-76 -28.5q-43 0 -73.5 28.5t-30.5 67.5zM209 926q0 41 30.5 69.5t73.5 28.5 q45 0 76 -28.5t31 -69.5q0 -39 -31 -68t-76 -29q-43 0 -73.5 29t-30.5 68zM823 516q0 41 31 69.5t74 28.5q45 0 75.5 -28.5t30.5 -69.5q0 -39 -30.5 -67.5t-75.5 -28.5q-43 0 -74 28.5t-31 67.5zM823 1130q0 41 31 70t74 29q45 0 75.5 -29t30.5 -70q0 -39 -30.5 -67.5 t-75.5 -28.5q-43 0 -74 28.5t-31 67.5zM618 311q0 41 31 70t74 29q45 0 75.5 -29t30.5 -70q0 -39 -30.5 -67.5t-75.5 -28.5q-43 0 -74 28.5t-31 67.5zM618 721q0 41 31 69.5t74 28.5q45 0 75.5 -28.5t30.5 -69.5q0 -39 -30.5 -67.5t-75.5 -28.5q-43 0 -74 28.5t-31 67.5z " />
<glyph unicode="%" horiz-adv-x="1433" d="M0 1329q0 41 30.5 69.5t73.5 28.5t74 -28.5t31 -69.5t-31 -69.5t-74 -28.5t-73.5 28.5t-30.5 69.5zM209 1126q0 43 29.5 74t70.5 31t71 -31t30 -74q0 -45 -30 -75.5t-71 -30.5t-70.5 30.5t-29.5 75.5zM213 1327q0 41 29.5 70.5t70.5 29.5t71 -29.5t30 -70.5t-30 -70.5 t-71 -29.5t-70.5 29.5t-29.5 70.5zM0 1120q0 43 30.5 73t73.5 30q41 0 72 -30t31 -73t-31 -72.5t-72 -29.5q-43 0 -73.5 29.5t-30.5 72.5zM819 1329q0 41 31 69.5t74 28.5t73.5 -28.5t30.5 -69.5t-30.5 -69.5t-73.5 -28.5t-74 28.5t-31 69.5zM815 1128q0 43 31 73t76 30 t75.5 -30t30.5 -73t-30.5 -72.5t-75.5 -29.5t-76 29.5t-31 72.5zM616 922q0 43 29 73.5t72 30.5q41 0 69.5 -30.5t28.5 -73.5q0 -45 -28.5 -76t-69.5 -31q-43 0 -72 31t-29 76zM410 715q0 41 30.5 70.5t73.5 29.5q41 0 71.5 -29.5t30.5 -70.5t-30.5 -71t-71.5 -30 q-43 0 -73.5 30t-30.5 71zM203 514q0 41 30.5 70.5t73.5 29.5q41 0 72 -29.5t31 -70.5q0 -43 -31 -72.5t-72 -29.5q-43 0 -73.5 29.5t-30.5 72.5zM0 311q0 41 29.5 72t72.5 31t73 -31t30 -72q0 -43 -30 -73.5t-73 -30.5t-72.5 30.5t-29.5 73.5zM0 100q0 41 30.5 71t75.5 30 t76 -30t31 -71t-30.5 -70.5t-76.5 -29.5q-45 0 -75.5 29.5t-30.5 70.5zM813 100q0 41 32 70t77 29q43 0 74.5 -29t31.5 -70q0 -43 -31.5 -71.5t-74.5 -28.5q-45 0 -77 28.5t-32 71.5zM1028 303q0 43 29.5 74t72.5 31q41 0 71 -31t30 -74t-30 -73.5t-71 -30.5 q-43 0 -72.5 30.5t-29.5 73.5zM1026 100q0 41 29.5 70t70.5 29t71 -29t30 -70q0 -43 -30 -71.5t-71 -28.5t-70.5 28.5t-29.5 71.5zM815 301q0 43 31 72.5t76 29.5q43 0 73.5 -29.5t30.5 -72.5t-30.5 -72.5t-73.5 -29.5q-45 0 -76 29.5t-31 72.5zM205 311q0 41 29.5 72 t72.5 31t73 -31t30 -72q0 -43 -30 -73.5t-73 -30.5t-72.5 30.5t-29.5 73.5zM205 100q0 41 30.5 71t75.5 30t76 -30t31 -71t-31 -70.5t-76 -29.5t-75.5 29.5t-30.5 70.5zM1024 1335q0 41 29.5 72t72.5 31t73 -31t30 -72q0 -43 -30 -73.5t-73 -30.5t-72.5 30.5t-29.5 73.5z M1024 1124q0 41 30.5 71t75.5 30t76 -30t31 -71t-30.5 -70.5t-76.5 -29.5q-45 0 -75.5 29.5t-30.5 70.5zM821 922q0 43 29 73.5t72 30.5q41 0 69.5 -30.5t28.5 -73.5q0 -45 -28.5 -76t-69.5 -31q-43 0 -72 31t-29 76zM616 717q0 43 29 73.5t72 30.5q41 0 69.5 -30.5 t28.5 -73.5q0 -45 -28.5 -76t-69.5 -31q-43 0 -72 31t-29 76zM412 512q0 43 28.5 73.5t71.5 30.5q41 0 69.5 -30.5t28.5 -73.5q0 -45 -28.5 -75.5t-69.5 -30.5q-43 0 -71.5 30.5t-28.5 75.5z" />
<glyph unicode="&#x26;" horiz-adv-x="1433" d="M408 1329q0 41 30.5 69.5t73.5 28.5t73.5 -28.5t30.5 -69.5q0 -43 -30.5 -71.5t-73.5 -28.5t-73.5 28.5t-30.5 71.5zM616 1126q0 43 30 73t73 30t72.5 -30t29.5 -73t-29.5 -72.5t-72.5 -29.5t-73 29.5t-30 72.5zM610 922q0 41 31 71.5t76 30.5q43 0 73.5 -30.5 t30.5 -71.5q0 -43 -30.5 -74t-73.5 -31q-45 0 -76 31t-31 74zM408 715q0 43 29.5 72.5t72.5 29.5q41 0 70.5 -29.5t29.5 -72.5t-29.5 -73t-70.5 -30q-43 0 -72.5 30t-29.5 73zM205 512q0 41 29.5 70.5t72.5 29.5q41 0 71 -29.5t30 -70.5t-30 -70.5t-71 -29.5 q-43 0 -72.5 29.5t-29.5 70.5zM205 307q0 43 30.5 74t75.5 31q43 0 74 -31t31 -74t-31 -73.5t-74 -30.5q-45 0 -75.5 30.5t-30.5 73.5zM205 918q0 41 30.5 70.5t73.5 29.5q41 0 72 -30t31 -70q0 -41 -31 -71t-72 -30q-43 0 -73.5 30t-30.5 71zM205 1124q0 43 30.5 73 t73.5 30q41 0 72 -30t31 -73q0 -41 -31 -71.5t-72 -30.5q-43 0 -73.5 30.5t-30.5 71.5zM825 307q0 41 30 72t73 31q41 0 70.5 -31t29.5 -72q0 -43 -29.5 -73.5t-70.5 -30.5q-43 0 -73 30.5t-30 73.5zM823 102q0 41 31 71t74 30q41 0 71.5 -30t30.5 -71q0 -43 -30.5 -72.5 t-71.5 -29.5q-43 0 -74 29.5t-31 72.5zM817 508q0 39 31 67.5t76 28.5q43 0 73.5 -28.5t30.5 -67.5q0 -41 -30.5 -69.5t-73.5 -28.5q-45 0 -76 28.5t-31 69.5zM410 100q0 41 29.5 70t72.5 29q41 0 70.5 -29t29.5 -70q0 -43 -29.5 -71.5t-70.5 -28.5q-43 0 -72.5 28.5 t-29.5 71.5zM0 918q0 41 30.5 70.5t73.5 29.5q41 0 72 -30t31 -70q0 -41 -31 -71t-72 -30q-43 0 -73.5 30t-30.5 71zM0 1124q0 43 30.5 73t73.5 30q41 0 72 -30t31 -73q0 -41 -31 -71.5t-72 -30.5q-43 0 -73.5 30.5t-30.5 71.5zM0 303q0 41 30.5 70.5t73.5 29.5 q41 0 72 -29.5t31 -70.5t-31 -70.5t-72 -29.5q-43 0 -73.5 29.5t-30.5 70.5zM0 510q0 43 30.5 72.5t73.5 29.5q41 0 72 -29.5t31 -72.5q0 -41 -31 -71.5t-72 -30.5q-43 0 -73.5 30.5t-30.5 71.5zM819 918q0 41 31 70.5t74 29.5q41 0 71.5 -30t30.5 -70q0 -41 -30.5 -71 t-71.5 -30q-43 0 -74 30t-31 71zM819 1124q0 43 31 73t74 30q41 0 71.5 -30t30.5 -73q0 -41 -30.5 -71.5t-71.5 -30.5q-43 0 -74 30.5t-31 71.5zM612 510q0 41 31 69.5t74 28.5t73.5 -28.5t30.5 -69.5q0 -43 -30.5 -71.5t-73.5 -28.5t-74 28.5t-31 71.5zM612 305 q0 41 31 69.5t74 28.5t73.5 -28.5t30.5 -69.5q0 -43 -30.5 -71.5t-73.5 -28.5t-74 28.5t-31 71.5zM1022 508q0 39 30.5 67.5t75.5 28.5q43 0 74 -28.5t31 -67.5q0 -41 -31 -69.5t-74 -28.5q-45 0 -75.5 28.5t-30.5 69.5zM1022 98q0 39 30.5 68t75.5 29q43 0 74 -29t31 -68 q0 -41 -31 -69.5t-74 -28.5q-45 0 -75.5 28.5t-30.5 69.5zM203 1329q0 41 30.5 69.5t73.5 28.5t74 -28.5t31 -69.5q0 -43 -31 -71.5t-74 -28.5t-73.5 28.5t-30.5 71.5zM612 1329q0 41 31 69.5t74 28.5t73.5 -28.5t30.5 -69.5q0 -43 -30.5 -71.5t-73.5 -28.5t-74 28.5 t-31 71.5zM203 715q0 41 30.5 69.5t73.5 28.5t74 -28.5t31 -69.5q0 -43 -31 -72t-74 -29t-73.5 29t-30.5 72zM612 715q0 41 31 69.5t74 28.5t73.5 -28.5t30.5 -69.5q0 -43 -30.5 -72t-73.5 -29t-74 29t-31 72zM203 100q0 41 30.5 70t73.5 29t74 -29t31 -70q0 -43 -31 -71.5 t-74 -28.5t-73.5 28.5t-30.5 71.5z" />
<glyph unicode="'" horiz-adv-x="614" d="M0 1540q0 41 28.5 69.5t71.5 28.5q41 0 70 -28.5t29 -69.5t-29 -69.5t-70 -28.5q-43 0 -71.5 28.5t-28.5 69.5zM0 1339q0 41 28.5 72t71.5 31q41 0 70 -31t29 -72q0 -43 -29 -73.5t-70 -30.5q-43 0 -71.5 30.5t-28.5 73.5zM205 1540q0 41 28.5 69.5t71.5 28.5 q41 0 69.5 -28.5t28.5 -69.5t-28.5 -69.5t-69.5 -28.5q-43 0 -71.5 28.5t-28.5 69.5zM205 1339q0 41 28.5 72t71.5 31q41 0 69.5 -31t28.5 -72q0 -43 -28.5 -73.5t-69.5 -30.5q-43 0 -71.5 30.5t-28.5 73.5z" />
<glyph unicode="(" horiz-adv-x="1024" d="M410 1329q0 41 29.5 69.5t72.5 28.5q41 0 70.5 -28.5t29.5 -69.5q0 -43 -29.5 -71.5t-70.5 -28.5q-43 0 -72.5 28.5t-29.5 71.5zM201 1126q0 41 30.5 72t73.5 31t74 -31t31 -72q0 -43 -31 -73.5t-74 -30.5t-73.5 30.5t-30.5 73.5zM0 922q0 41 29.5 70.5t70.5 29.5 t71 -29.5t30 -70.5q0 -43 -30 -73t-71 -30t-70.5 30t-29.5 73zM0 715q0 43 30.5 73.5t75.5 30.5q43 0 74 -30.5t31 -73.5t-30.5 -74t-74.5 -31q-45 0 -75.5 31t-30.5 74zM0 508q0 43 30.5 72.5t75.5 29.5q43 0 74 -29.5t31 -72.5t-30.5 -72.5t-74.5 -29.5q-45 0 -75.5 29.5 t-30.5 72.5zM201 307q0 41 31.5 71t76.5 30q43 0 75 -30t32 -71q0 -43 -32 -72.5t-75 -29.5q-45 0 -76.5 29.5t-31.5 72.5zM416 102q0 43 29.5 73t72.5 30q41 0 70.5 -30t29.5 -73t-29.5 -72.5t-70.5 -29.5q-43 0 -72.5 29.5t-29.5 72.5zM614 1329q0 41 30 69.5t73 28.5 q41 0 70.5 -28.5t29.5 -69.5q0 -43 -29.5 -71.5t-70.5 -28.5q-43 0 -73 28.5t-30 71.5zM406 1126q0 41 30.5 72t73.5 31t73.5 -31t30.5 -72q0 -43 -30.5 -73.5t-73.5 -30.5t-73.5 30.5t-30.5 73.5zM205 922q0 41 29.5 70.5t70.5 29.5t71 -29.5t30 -70.5q0 -43 -30 -73 t-71 -30t-70.5 30t-29.5 73zM205 715q0 43 30.5 73.5t75.5 30.5q43 0 74 -30.5t31 -73.5t-31 -74t-74 -31q-45 0 -75.5 31t-30.5 74zM205 508q0 43 30.5 72.5t75.5 29.5q43 0 74 -29.5t31 -72.5t-31 -72.5t-74 -29.5q-45 0 -75.5 29.5t-30.5 72.5zM406 307q0 41 31.5 71 t76.5 30q43 0 75 -30t32 -71q0 -43 -32 -72.5t-75 -29.5q-45 0 -76.5 29.5t-31.5 72.5zM621 102q0 43 29.5 73t72.5 30q41 0 70.5 -30t29.5 -73t-29.5 -72.5t-70.5 -29.5q-43 0 -72.5 29.5t-29.5 72.5z" />
<glyph unicode=")" horiz-adv-x="1024" d="M0 1329q0 41 30.5 69.5t73.5 28.5q41 0 72 -28.5t31 -69.5q0 -43 -31 -71.5t-72 -28.5q-43 0 -73.5 28.5t-30.5 71.5zM207 1128q0 41 29.5 71t72.5 30t73 -30t30 -71t-30 -70.5t-73 -29.5t-72.5 29.5t-29.5 70.5zM410 924q0 43 30.5 73.5t75.5 30.5q43 0 74 -30.5 t31 -73.5q0 -45 -31 -76t-74 -31q-45 0 -75.5 31t-30.5 76zM406 715q0 43 31.5 72.5t76.5 29.5q43 0 75 -29.5t32 -72.5t-32 -73t-75 -30q-45 0 -76.5 30t-31.5 73zM406 510q0 41 31.5 71.5t76.5 30.5q43 0 75 -30.5t32 -71.5q0 -43 -32 -73.5t-75 -30.5q-45 0 -76.5 30.5 t-31.5 73.5zM203 307q0 43 30.5 73t75.5 30q43 0 74 -30t31 -73t-31 -72.5t-74 -29.5q-45 0 -75.5 29.5t-30.5 72.5zM0 102q0 43 29.5 73t72.5 30q41 0 71 -30t30 -73t-30 -72.5t-71 -29.5q-43 0 -72.5 29.5t-29.5 72.5zM205 1329q0 41 30.5 69.5t73.5 28.5q41 0 72 -28.5 t31 -69.5q0 -43 -31 -71.5t-72 -28.5q-43 0 -73.5 28.5t-30.5 71.5zM412 1128q0 41 29.5 71t72.5 30t72.5 -30t29.5 -71t-29.5 -70.5t-72.5 -29.5t-72.5 29.5t-29.5 70.5zM614 924q0 43 31 73.5t76 30.5q43 0 73.5 -30.5t30.5 -73.5q0 -45 -30.5 -76t-73.5 -31q-45 0 -76 31 t-31 76zM610 715q0 43 32 72.5t77 29.5q43 0 74.5 -29.5t31.5 -72.5t-31.5 -73t-74.5 -30q-45 0 -77 30t-32 73zM610 510q0 41 32 71.5t77 30.5q43 0 74.5 -30.5t31.5 -71.5q0 -43 -31.5 -73.5t-74.5 -30.5q-45 0 -77 30.5t-32 73.5zM408 307q0 43 30.5 73t75.5 30 q43 0 73.5 -30t30.5 -73t-30.5 -72.5t-73.5 -29.5q-45 0 -75.5 29.5t-30.5 72.5zM205 102q0 43 29.5 73t72.5 30q41 0 71 -30t30 -73t-30 -72.5t-71 -29.5q-43 0 -72.5 29.5t-29.5 72.5z" />
<glyph unicode="*" horiz-adv-x="1433" d="M0 711q0 39 30.5 66.5t73.5 27.5t74 -27.5t31 -66.5q0 -41 -31 -69t-74 -28t-73.5 28t-30.5 69zM209 713q0 41 29.5 69.5t72.5 28.5t73 -28.5t30 -69.5t-30 -70t-73 -29t-72.5 29t-29.5 70zM414 713q0 41 29.5 69.5t70.5 28.5t70.5 -28.5t29.5 -69.5t-29.5 -70t-70.5 -29 t-70.5 29t-29.5 70zM614 715q0 41 31 69.5t74 28.5t73.5 -28.5t30.5 -69.5q0 -43 -30.5 -72t-73.5 -29t-74 29t-31 72zM823 715q0 41 30 69.5t73 28.5t72.5 -28.5t29.5 -69.5t-29.5 -70t-72.5 -29t-73 29t-30 70zM608 508q0 41 32 69.5t77 28.5t76.5 -28.5t31.5 -69.5 q0 -43 -31.5 -71.5t-76.5 -28.5t-77 28.5t-32 71.5zM825 305q0 43 30 73t71 30t70.5 -30t29.5 -73t-29.5 -72.5t-70.5 -29.5t-71 29.5t-30 72.5zM201 512q0 41 30.5 70.5t75.5 29.5t76 -29.5t31 -70.5q0 -43 -31 -72.5t-76 -29.5t-75.5 29.5t-30.5 72.5zM0 309q0 41 29.5 71 t70.5 30t71 -30t30 -71t-30 -70.5t-71 -29.5t-70.5 29.5t-29.5 70.5zM414 918q0 43 30.5 74.5t73.5 31.5q41 0 72 -31.5t31 -74.5q0 -45 -31 -77t-72 -32q-43 0 -73.5 32t-30.5 77zM406 1124q0 41 31.5 70t76.5 29q43 0 75 -29t32 -70q0 -43 -32 -71.5t-75 -28.5 q-45 0 -76.5 28.5t-31.5 71.5zM1030 305q0 43 30 73t70 30q41 0 71 -30t30 -73t-30 -72.5t-71 -29.5t-70.5 29.5t-29.5 72.5zM825 510q0 43 30 72.5t71 29.5t70.5 -29.5t29.5 -72.5t-29.5 -72.5t-70.5 -29.5t-71 29.5t-30 72.5zM211 305q0 43 29.5 73t70.5 30t71 -30t30 -73 t-30 -72.5t-71 -29.5t-70.5 29.5t-29.5 72.5zM416 510q0 43 29.5 72.5t70.5 29.5t70.5 -29.5t29.5 -72.5t-29.5 -72.5t-70.5 -29.5t-70.5 29.5t-29.5 72.5zM621 920q0 43 29.5 72.5t70.5 29.5t70.5 -29.5t29.5 -72.5t-29.5 -73t-70.5 -30t-70.5 30t-29.5 73zM1030 715 q0 43 30 72.5t70 29.5q41 0 71 -29.5t30 -72.5t-30 -73t-71 -30t-70.5 30t-29.5 73zM621 1124q0 43 29.5 73t70.5 30t70.5 -30t29.5 -73t-29.5 -72.5t-70.5 -29.5t-70.5 29.5t-29.5 72.5z" />
<glyph unicode="+" horiz-adv-x="1433" d="M401 1118q0 39 31 66.5t76 27.5t75.5 -27.5t30.5 -66.5q0 -41 -30.5 -68.5t-75.5 -27.5t-76 27.5t-31 68.5zM403 922q0 41 31 70.5t76 29.5q43 0 73.5 -29.5t30.5 -70.5t-30.5 -71t-73.5 -30q-45 0 -76 30t-31 71zM403 717q0 43 31 73.5t76 30.5q43 0 73.5 -30.5 t30.5 -73.5t-30.5 -74t-73.5 -31q-45 0 -76 31t-31 74zM614 717q0 43 30 73.5t73 30.5t72.5 -30.5t29.5 -73.5t-29.5 -74t-72.5 -31t-73 31t-30 74zM819 719q0 41 31 71.5t74 30.5t73.5 -30.5t30.5 -71.5q0 -43 -30.5 -74t-73.5 -31t-74 31t-31 74zM414 506q0 39 29.5 67.5 t72.5 28.5q41 0 70.5 -28.5t29.5 -67.5t-29.5 -67.5t-70.5 -28.5q-43 0 -72.5 28.5t-29.5 67.5zM412 307q0 43 29.5 73t72.5 30t72.5 -30t29.5 -73t-29.5 -72.5t-72.5 -29.5t-72.5 29.5t-29.5 72.5zM199 717q0 41 28.5 69.5t71.5 28.5q41 0 69.5 -28.5t28.5 -69.5 q0 -43 -28.5 -72t-69.5 -29q-43 0 -71.5 29t-28.5 72zM0 717q0 41 28.5 70.5t71.5 29.5q41 0 70 -29.5t29 -70.5t-29 -71t-70 -30q-43 0 -71.5 30t-28.5 71zM606 1118q0 39 31 66.5t76 27.5t75.5 -27.5t30.5 -66.5q0 -41 -30.5 -68.5t-75.5 -27.5t-76 27.5t-31 68.5z M606 913q0 39 31 67t76 28t75.5 -28t30.5 -67q0 -41 -30.5 -68.5t-75.5 -27.5t-76 27.5t-31 68.5zM606 504q0 39 31 66.5t76 27.5t75.5 -27.5t30.5 -66.5q0 -41 -30.5 -68.5t-75.5 -27.5t-76 27.5t-31 68.5zM606 299q0 39 31 66.5t76 27.5t75.5 -27.5t30.5 -66.5 q0 -41 -30.5 -68.5t-75.5 -27.5t-76 27.5t-31 68.5zM1016 709q0 39 30.5 66.5t75.5 27.5t76 -27.5t31 -66.5q0 -41 -31 -69t-76 -28t-75.5 28t-30.5 69z" />
<glyph unicode="," horiz-adv-x="614" d="M0 100q0 41 30.5 70t75.5 29q43 0 74 -29t31 -70q0 -43 -30.5 -71.5t-74.5 -28.5q-45 0 -75.5 28.5t-30.5 71.5zM211 303q0 41 29.5 72t72.5 31t73 -31t30 -72q0 -43 -30 -73.5t-73 -30.5t-72.5 30.5t-29.5 73.5zM207 96q0 39 30.5 68t75.5 29q43 0 74 -29t31 -68 q0 -41 -31 -68.5t-74 -27.5q-45 0 -75.5 27.5t-30.5 68.5zM0 303q0 41 30.5 72t73.5 31q41 0 72 -31t31 -72q0 -43 -31 -73.5t-72 -30.5q-43 0 -73.5 30.5t-30.5 73.5zM199 -102q0 43 31.5 72.5t78.5 29.5q45 0 77 -29.5t32 -72.5t-32 -73t-77 -30q-47 0 -78.5 30t-31.5 73z M0 -307q0 41 30.5 69.5t75.5 28.5q43 0 74 -28.5t31 -69.5t-30.5 -70t-74.5 -29q-45 0 -75.5 29t-30.5 70z" />
<glyph unicode="-" d="M0 713q0 41 30.5 69.5t73.5 28.5t74 -28.5t31 -69.5t-31 -70t-74 -29t-73.5 29t-30.5 70zM209 717q0 43 29.5 72.5t72.5 29.5t73 -29.5t30 -72.5t-30 -73t-73 -30t-72.5 30t-29.5 73zM414 717q0 41 29.5 71.5t72.5 30.5t72.5 -30.5t29.5 -71.5q0 -43 -29.5 -74t-72.5 -31 t-72.5 31t-29.5 74zM618 713q0 41 31 69.5t74 28.5t73.5 -28.5t30.5 -69.5q0 -43 -30.5 -72t-73.5 -29t-74 29t-31 72zM823 713q0 41 31 69.5t74 28.5t73.5 -28.5t30.5 -69.5q0 -43 -30.5 -72t-73.5 -29t-74 29t-31 72z" />
<glyph unicode="." horiz-adv-x="614" d="M0 98q0 41 30.5 70t73.5 29t74 -29t31 -70t-31 -69.5t-74 -28.5t-73.5 28.5t-30.5 69.5zM213 94q0 41 29.5 70t72.5 29q41 0 72 -29t31 -70q0 -39 -31 -68.5t-72 -29.5q-43 0 -72.5 29.5t-29.5 68.5zM0 305q0 41 30.5 71t75.5 30q43 0 74 -30t31 -71q0 -43 -30.5 -72.5 t-74.5 -29.5q-45 0 -75.5 29.5t-30.5 72.5zM213 299q0 41 29.5 69.5t72.5 28.5q41 0 72 -28.5t31 -69.5q0 -39 -31 -68.5t-72 -29.5q-43 0 -72.5 29.5t-29.5 68.5z" />
<glyph unicode="/" horiz-adv-x="1433" d="M0 98q0 41 30.5 70t75.5 29q43 0 74 -29t31 -70t-30.5 -69.5t-74.5 -28.5q-45 0 -75.5 28.5t-30.5 69.5zM0 301q0 43 30.5 74t75.5 31q43 0 74 -31t31 -74t-30.5 -73.5t-74.5 -30.5q-45 0 -75.5 30.5t-30.5 73.5zM201 508q0 41 30.5 71.5t75.5 30.5t76 -30.5t31 -71.5 q0 -43 -31 -74t-76 -31t-75.5 31t-30.5 74zM414 715q0 41 30.5 71.5t73.5 30.5q41 0 72 -30.5t31 -71.5q0 -43 -31 -74t-72 -31q-43 0 -73.5 31t-30.5 74zM621 920q0 41 29.5 70.5t72.5 29.5t72.5 -29.5t29.5 -70.5q0 -43 -29.5 -73t-72.5 -30t-72.5 30t-29.5 73zM825 1124 q0 41 30 72t73 31t72.5 -31t29.5 -72q0 -43 -29.5 -73.5t-72.5 -30.5t-73 30.5t-30 73.5zM817 1327q0 41 31 70.5t76 29.5t75.5 -29.5t30.5 -70.5t-30.5 -70.5t-75.5 -29.5t-76 29.5t-31 70.5zM205 98q0 41 30.5 70t75.5 29q43 0 74 -29t31 -70t-31 -69.5t-74 -28.5 q-45 0 -75.5 28.5t-30.5 69.5zM205 301q0 43 30.5 74t75.5 31q43 0 74 -31t31 -74t-31 -73.5t-74 -30.5q-45 0 -75.5 30.5t-30.5 73.5zM406 508q0 41 30.5 71.5t75.5 30.5t75.5 -30.5t30.5 -71.5q0 -43 -30.5 -74t-75.5 -31t-75.5 31t-30.5 74zM618 715q0 41 31 71.5 t74 30.5q41 0 71.5 -30.5t30.5 -71.5q0 -43 -30.5 -74t-71.5 -31q-43 0 -74 31t-31 74zM825 920q0 41 30 70.5t73 29.5t72.5 -29.5t29.5 -70.5q0 -43 -29.5 -73t-72.5 -30t-73 30t-30 73zM1030 1124q0 41 30 72t73 31t72.5 -31t29.5 -72q0 -43 -29.5 -73.5t-72.5 -30.5 t-73 30.5t-30 73.5zM1022 1327q0 41 30.5 70.5t75.5 29.5t76 -29.5t31 -70.5t-30.5 -70.5t-76.5 -29.5q-45 0 -75.5 29.5t-30.5 70.5z" />
<glyph unicode="0" d="M406 1331q0 39 31.5 67.5t78.5 28.5q45 0 77 -28.5t32 -67.5q0 -41 -32 -69.5t-77 -28.5q-47 0 -78.5 28.5t-31.5 69.5zM614 1126q0 43 31 75t74 32t73.5 -32t30.5 -75q0 -45 -30.5 -75.5t-73.5 -30.5t-74 30.5t-31 75.5zM612 918q0 41 31 70.5t76 29.5q43 0 73.5 -30 t30.5 -70q0 -41 -30.5 -71t-73.5 -30q-45 0 -76 30t-31 71zM612 719q0 41 31 69.5t76 28.5q43 0 73.5 -28.5t30.5 -69.5q0 -43 -30.5 -72t-73.5 -29q-45 0 -76 29t-31 72zM610 512q0 41 31 71.5t76 30.5t75.5 -30.5t30.5 -71.5q0 -43 -30.5 -73.5t-75.5 -30.5t-76 30.5 t-31 73.5zM610 305q0 43 32 73t77 30q43 0 74.5 -30t31.5 -73t-31.5 -72.5t-74.5 -29.5q-45 0 -77 29.5t-32 72.5zM406 102q0 41 30.5 71t75.5 30t75.5 -30t30.5 -71q0 -43 -30.5 -72.5t-75.5 -29.5t-75.5 29.5t-30.5 72.5zM205 305q0 43 29.5 73t70.5 30t71 -30t30 -73 t-30 -72.5t-71 -29.5t-70.5 29.5t-29.5 72.5zM205 512q0 41 30.5 71.5t75.5 30.5q43 0 74 -30.5t31 -71.5q0 -43 -31 -73.5t-74 -30.5q-45 0 -75.5 30.5t-30.5 73.5zM205 717q0 41 30.5 70.5t75.5 29.5q43 0 74 -29.5t31 -70.5q0 -43 -31 -73t-74 -30q-45 0 -75.5 30 t-30.5 73zM205 922q0 41 30.5 71.5t75.5 30.5q43 0 74 -30.5t31 -71.5q0 -43 -31 -74t-74 -31q-45 0 -75.5 31t-30.5 74zM205 1124q0 41 30.5 70t75.5 29q43 0 74 -29t31 -70q0 -43 -31 -71.5t-74 -28.5q-45 0 -75.5 28.5t-30.5 71.5zM0 305q0 43 29.5 73t70.5 30t71 -30 t30 -73t-30 -72.5t-71 -29.5t-70.5 29.5t-29.5 72.5zM0 512q0 41 30.5 71.5t75.5 30.5q43 0 74 -30.5t31 -71.5q0 -43 -30.5 -73.5t-74.5 -30.5q-45 0 -75.5 30.5t-30.5 73.5zM0 717q0 41 30.5 70.5t75.5 29.5q43 0 74 -29.5t31 -70.5q0 -43 -30.5 -73t-74.5 -30 q-45 0 -75.5 30t-30.5 73zM0 922q0 41 30.5 71.5t75.5 30.5q43 0 74 -30.5t31 -71.5q0 -43 -30.5 -74t-74.5 -31q-45 0 -75.5 31t-30.5 74zM0 1124q0 41 30.5 70t75.5 29q43 0 74 -29t31 -70q0 -43 -30.5 -71.5t-74.5 -28.5q-45 0 -75.5 28.5t-30.5 71.5zM819 305 q0 43 30 73t71 30t70.5 -30t29.5 -73t-29.5 -72.5t-70.5 -29.5t-71 29.5t-30 72.5zM819 512q0 41 31 71.5t76 30.5q43 0 73.5 -30.5t30.5 -71.5q0 -43 -30.5 -73.5t-73.5 -30.5q-45 0 -76 30.5t-31 73.5zM819 717q0 41 31 70.5t76 29.5q43 0 73.5 -29.5t30.5 -70.5 q0 -43 -30.5 -73t-73.5 -30q-45 0 -76 30t-31 73zM819 922q0 41 31 71.5t76 30.5q43 0 73.5 -30.5t30.5 -71.5q0 -43 -30.5 -74t-73.5 -31q-45 0 -76 31t-31 74zM819 1124q0 41 31 70t76 29q43 0 73.5 -29t30.5 -70q0 -43 -30.5 -71.5t-73.5 -28.5q-45 0 -76 28.5t-31 71.5z " />
<glyph unicode="1" horiz-adv-x="1024" d="M207 1329q0 41 30.5 69.5t75.5 28.5q43 0 74 -28.5t31 -69.5t-31 -69.5t-74 -28.5q-45 0 -75.5 28.5t-30.5 69.5zM201 1126q0 43 31.5 74t76.5 31t77 -31t32 -74t-32 -73.5t-77 -30.5t-76.5 30.5t-31.5 73.5zM201 922q0 41 31.5 70.5t78.5 29.5q45 0 77 -29.5t32 -70.5 q0 -43 -32 -73t-77 -30q-47 0 -78.5 30t-31.5 73zM199 717q0 43 32.5 72.5t77.5 29.5t78 -29.5t33 -72.5t-33 -73t-78 -30t-77.5 30t-32.5 73zM199 510q0 43 32.5 73.5t77.5 30.5t78 -30.5t33 -73.5t-33 -73.5t-78 -30.5t-77.5 30.5t-32.5 73.5zM201 301q0 43 31.5 74 t78.5 31q45 0 77 -31t32 -74t-32 -73.5t-77 -30.5q-47 0 -78.5 30.5t-31.5 73.5zM0 100q0 41 29.5 71t72.5 30t73 -30t30 -71t-30 -70.5t-73 -29.5t-72.5 29.5t-29.5 70.5zM0 1122q0 39 30.5 68t73.5 29t74 -29t31 -68q0 -41 -31 -69.5t-74 -28.5t-73.5 28.5t-30.5 69.5z M412 1329q0 41 30.5 69.5t75.5 28.5q43 0 74 -28.5t31 -69.5t-31 -69.5t-74 -28.5q-45 0 -75.5 28.5t-30.5 69.5zM420 1122q0 45 31.5 75t76.5 30t77 -30t32 -75q0 -43 -32 -73.5t-77 -30.5t-76.5 30.5t-31.5 73.5zM430 924q0 43 32 72.5t77 29.5t77.5 -29.5t32.5 -72.5 q0 -41 -32.5 -71t-77.5 -30t-77 30t-32 71zM424 717q0 43 32.5 72.5t78.5 29.5q45 0 77.5 -29.5t32.5 -72.5t-32.5 -73t-77.5 -30t-78 30t-33 73zM424 510q0 43 32.5 73.5t78.5 30.5q45 0 76.5 -30.5t33.5 -73.5q2 -41 -30.5 -72.5t-79.5 -31.5q-45 0 -78 30.5t-33 73.5z M422 297q0 45 32.5 74.5t77.5 29.5t77 -29.5t32 -74.5q0 -43 -31.5 -73.5t-77.5 -30.5q-45 0 -77.5 30.5t-32.5 73.5zM406 98q0 41 31.5 70t78.5 29q45 0 77 -29t32 -70t-32 -69.5t-77 -28.5q-47 0 -78.5 28.5t-31.5 69.5zM623 98q0 41 30.5 70t73.5 29t73.5 -29t30.5 -70 t-30.5 -69.5t-73.5 -28.5t-73.5 28.5t-30.5 69.5zM205 100q0 41 29.5 71t72.5 30t73 -30t30 -71q0 -43 -29 -71.5t-74 -28.5q-43 0 -72.5 28.5t-29.5 71.5z" />
<glyph unicode="2" d="M0 100q0 41 30.5 71t75.5 30q43 0 74 -30t31 -71t-30.5 -70.5t-74.5 -29.5q-45 0 -75.5 29.5t-30.5 70.5zM211 100q0 41 29.5 71t72.5 30q41 0 71 -30t30 -71t-30 -70.5t-71 -29.5q-43 0 -72.5 29.5t-29.5 70.5zM414 100q0 41 30.5 70t73.5 29q41 0 72 -29t31 -70 q0 -43 -31 -71.5t-72 -28.5q-43 0 -73.5 28.5t-30.5 71.5zM621 100q0 41 30.5 70t73.5 29t73.5 -29t30.5 -70q0 -43 -30.5 -71.5t-73.5 -28.5t-73.5 28.5t-30.5 71.5zM0 301q0 41 30.5 70.5t73.5 29.5q41 0 72 -29.5t31 -70.5q0 -43 -31 -72.5t-72 -29.5q-43 0 -73.5 29.5 t-30.5 72.5zM197 510q0 43 31.5 73.5t76.5 30.5t77 -30.5t32 -73.5q0 -45 -32 -76t-77 -31t-76.5 31t-31.5 76zM414 715q0 41 30.5 70.5t73.5 29.5q41 0 72 -29.5t31 -70.5t-31 -71t-72 -30q-43 0 -73.5 30t-30.5 71zM621 920q0 43 29.5 73.5t72.5 30.5t72.5 -30.5 t29.5 -73.5t-29.5 -74t-72.5 -31t-72.5 31t-29.5 74zM610 1126q0 41 32 71t77 30q43 0 74.5 -30t31.5 -71q0 -43 -31.5 -72.5t-74.5 -29.5q-45 0 -77 29.5t-32 72.5zM412 1327q0 41 28.5 70.5t71.5 29.5q41 0 69.5 -29.5t28.5 -70.5t-28.5 -70.5t-69.5 -29.5 q-43 0 -71.5 29.5t-28.5 70.5zM203 1327q0 41 30.5 70.5t73.5 29.5t74 -29.5t31 -70.5t-31 -70.5t-74 -29.5t-73.5 29.5t-30.5 70.5zM0 1126q0 41 29.5 71t72.5 30q41 0 71 -30t30 -71q0 -43 -30 -72.5t-71 -29.5q-43 0 -72.5 29.5t-29.5 72.5zM205 1126q0 41 29.5 71 t72.5 30q41 0 71 -30t30 -71q0 -43 -30 -72.5t-71 -29.5q-43 0 -72.5 29.5t-29.5 72.5zM819 1126q0 41 30 71t73 30q41 0 70.5 -30t29.5 -71q0 -43 -29.5 -72.5t-70.5 -29.5q-43 0 -73 29.5t-30 72.5zM614 1331q0 41 30 71t73 30q41 0 70.5 -30t29.5 -71q0 -43 -29.5 -72.5 t-70.5 -29.5q-43 0 -73 29.5t-30 72.5zM614 717q0 41 30 70.5t73 29.5q41 0 70.5 -29.5t29.5 -70.5q0 -43 -29.5 -73t-70.5 -30q-43 0 -73 30t-30 73zM410 512q0 41 29.5 70.5t72.5 29.5q41 0 70.5 -29.5t29.5 -70.5q0 -43 -29.5 -72.5t-70.5 -29.5q-43 0 -72.5 29.5 t-29.5 72.5zM819 922q0 41 30 70.5t73 29.5q41 0 70.5 -29.5t29.5 -70.5q0 -43 -29.5 -73t-70.5 -30q-43 0 -73 30t-30 73zM205 307q0 41 29.5 71t72.5 30q41 0 71 -30t30 -71q0 -43 -30 -72.5t-71 -29.5q-43 0 -72.5 29.5t-29.5 72.5zM819 102q0 41 30 71t73 30 q41 0 70.5 -30t29.5 -71q0 -43 -29.5 -72.5t-70.5 -29.5q-43 0 -73 29.5t-30 72.5z" />
<glyph unicode="3" d="M0 1122q0 41 30.5 71t75.5 30t76 -30t31 -71t-30.5 -70.5t-76.5 -29.5q-45 0 -75.5 29.5t-30.5 70.5zM199 1329q0 41 31.5 69.5t76.5 28.5t77 -28.5t32 -69.5q0 -43 -32 -71.5t-77 -28.5t-76.5 28.5t-31.5 71.5zM416 1327q0 41 29.5 70.5t72.5 29.5t73 -29.5t30 -70.5 q0 -43 -30 -72.5t-73 -29.5t-72.5 29.5t-29.5 72.5zM621 1124q0 41 29.5 72t72.5 31q41 0 70.5 -31t29.5 -72q0 -43 -29.5 -73.5t-70.5 -30.5q-43 0 -72.5 30.5t-29.5 73.5zM610 918q0 43 31 72.5t76 29.5t75.5 -29.5t30.5 -72.5t-30.5 -73t-75.5 -30t-76 30t-31 73z M410 715q0 41 29.5 70.5t70.5 29.5t70.5 -29.5t29.5 -70.5q0 -43 -29.5 -73t-70.5 -30t-70.5 30t-29.5 73zM612 510q0 43 32 73.5t77 30.5t76.5 -30.5t31.5 -73.5q0 -45 -31.5 -76t-76.5 -31t-77 31t-32 76zM610 301q0 43 32 72.5t79 29.5q45 0 76.5 -29.5t31.5 -72.5 t-31.5 -72.5t-76.5 -29.5q-47 0 -79 29.5t-32 72.5zM406 100q0 41 29.5 70t72.5 29t72.5 -29t29.5 -70q0 -43 -29.5 -71.5t-72.5 -28.5t-72.5 28.5t-29.5 71.5zM203 100q0 41 29.5 70t72.5 29q41 0 71 -29t30 -70q0 -43 -30 -71.5t-71 -28.5q-43 0 -72.5 28.5t-29.5 71.5z M0 303q0 41 29.5 72t72.5 31q41 0 71 -31t30 -72q0 -43 -30 -73.5t-71 -30.5q-43 0 -72.5 30.5t-29.5 73.5zM205 1126q0 41 29.5 71t72.5 30q41 0 71 -30t30 -71q0 -43 -30 -72.5t-71 -29.5q-43 0 -72.5 29.5t-29.5 72.5zM205 307q0 41 29.5 71t72.5 30q41 0 71 -30t30 -71 q0 -43 -30 -72.5t-71 -29.5q-43 0 -72.5 29.5t-29.5 72.5zM819 1126q0 41 30 71t73 30q41 0 70.5 -30t29.5 -71q0 -43 -29.5 -72.5t-70.5 -29.5q-43 0 -73 29.5t-30 72.5zM614 1331q0 41 30 71t73 30q41 0 70.5 -30t29.5 -71q0 -43 -29.5 -72.5t-70.5 -29.5q-43 0 -73 29.5 t-30 72.5zM614 717q0 41 30 70.5t73 29.5q41 0 70.5 -29.5t29.5 -70.5q0 -43 -29.5 -73t-70.5 -30q-43 0 -73 30t-30 73zM819 922q0 41 30 70.5t73 29.5q41 0 70.5 -29.5t29.5 -70.5q0 -43 -29.5 -73t-70.5 -30q-43 0 -73 30t-30 73zM819 512q0 41 30 70.5t73 29.5 q41 0 70.5 -29.5t29.5 -70.5q0 -43 -29.5 -72.5t-70.5 -29.5q-43 0 -73 29.5t-30 72.5zM819 307q0 41 30 71t73 30q41 0 70.5 -30t29.5 -71q0 -43 -29.5 -72.5t-70.5 -29.5q-43 0 -73 29.5t-30 72.5zM614 102q0 41 30 71t73 30q41 0 70.5 -30t29.5 -71q0 -43 -29.5 -72.5 t-70.5 -29.5q-43 0 -73 29.5t-30 72.5z" />
<glyph unicode="4" d="M0 717q0 41 30.5 69.5t73.5 28.5t74 -28.5t31 -69.5t-31 -70t-74 -29t-73.5 29t-30.5 70zM209 715q0 41 29.5 70.5t72.5 29.5q41 0 71 -29.5t30 -70.5q0 -43 -30 -73t-71 -30q-43 0 -72.5 30t-29.5 73zM412 717q0 41 30.5 71.5t73.5 30.5t74 -30.5t31 -71.5 q0 -43 -31 -74t-74 -31t-73.5 31t-30.5 74zM621 717q0 43 29.5 72.5t72.5 29.5t72.5 -29.5t29.5 -72.5t-29.5 -73t-72.5 -30t-72.5 30t-29.5 73zM612 510q0 43 31 73.5t76 30.5t75.5 -30.5t30.5 -73.5t-30.5 -73.5t-75.5 -30.5t-76 30.5t-31 73.5zM612 303q0 43 31 73t76 30 q43 0 73.5 -30t30.5 -73t-30.5 -72.5t-73.5 -29.5q-45 0 -76 29.5t-31 72.5zM610 100q0 41 31 71t76 30t75.5 -30t30.5 -71t-30.5 -70.5t-75.5 -29.5t-76 29.5t-31 70.5zM0 928q0 41 29.5 69.5t72.5 28.5t73 -28.5t30 -69.5q0 -43 -30 -72t-73 -29t-72.5 29t-29.5 72z M205 1126q0 41 30.5 71t73.5 30q41 0 72 -30t31 -71t-31 -70.5t-72 -29.5q-43 0 -73.5 29.5t-30.5 70.5zM412 1327q0 41 30.5 70.5t73.5 29.5t74 -29.5t31 -70.5t-31 -70.5t-74 -29.5t-73.5 29.5t-30.5 70.5zM621 1327q0 41 29.5 70.5t72.5 29.5q41 0 70.5 -29.5t29.5 -70.5 t-29.5 -70.5t-70.5 -29.5q-43 0 -72.5 29.5t-29.5 70.5zM610 1126q0 41 31 71t76 30t75.5 -30t30.5 -71t-30.5 -70.5t-75.5 -29.5t-76 29.5t-31 70.5zM610 922q0 43 32 73.5t77 30.5q43 0 74.5 -30.5t31.5 -73.5t-31.5 -74t-74.5 -31q-45 0 -77 31t-32 74zM410 1126 q0 41 30.5 71t73.5 30q41 0 71.5 -30t30.5 -71t-30.5 -70.5t-71.5 -29.5q-43 0 -73.5 29.5t-30.5 70.5zM205 922q0 41 30.5 70.5t73.5 29.5q41 0 72 -29.5t31 -70.5t-31 -71t-72 -30q-43 0 -73.5 30t-30.5 71zM819 1126q0 41 31 71t74 30q41 0 71.5 -30t30.5 -71 t-30.5 -70.5t-71.5 -29.5q-43 0 -74 29.5t-31 70.5zM819 1331q0 41 31 71t74 30q41 0 71.5 -30t30.5 -71t-30.5 -70.5t-71.5 -29.5q-43 0 -74 29.5t-31 70.5zM819 922q0 41 31 70.5t74 29.5q41 0 71.5 -29.5t30.5 -70.5t-30.5 -71t-71.5 -30q-43 0 -74 30t-31 71zM819 717 q0 41 31 70.5t74 29.5q41 0 71.5 -29.5t30.5 -70.5t-30.5 -71t-71.5 -30q-43 0 -74 30t-31 71zM819 512q0 41 31 70.5t74 29.5q41 0 71.5 -29.5t30.5 -70.5t-30.5 -70.5t-71.5 -29.5q-43 0 -74 29.5t-31 70.5zM819 307q0 41 31 71t74 30q41 0 71.5 -30t30.5 -71t-30.5 -70.5 t-71.5 -29.5q-43 0 -74 29.5t-31 70.5zM819 102q0 41 31 71t74 30q41 0 71.5 -30t30.5 -71t-30.5 -70.5t-71.5 -29.5q-43 0 -74 29.5t-31 70.5z" />
<glyph unicode="5" d="M0 1327q0 41 30.5 70.5t73.5 29.5t74 -29.5t31 -70.5q0 -43 -31 -72.5t-74 -29.5t-73.5 29.5t-30.5 72.5zM209 1327q0 41 30.5 70.5t73.5 29.5t74 -29.5t31 -70.5q0 -43 -31 -72.5t-74 -29.5t-73.5 29.5t-30.5 72.5zM418 1329q0 41 29.5 69.5t72.5 28.5q41 0 71 -28.5 t30 -69.5q0 -43 -30 -71.5t-71 -28.5q-43 0 -72.5 28.5t-29.5 71.5zM621 1329q0 41 29.5 69.5t72.5 28.5t72.5 -28.5t29.5 -69.5q0 -43 -29.5 -71.5t-72.5 -28.5t-72.5 28.5t-29.5 71.5zM0 1122q0 43 30.5 73t73.5 30t74 -30t31 -73t-31 -72.5t-74 -29.5t-73.5 29.5 t-30.5 72.5zM0 922q0 41 30.5 69.5t73.5 28.5t74 -28.5t31 -69.5q0 -43 -31 -72t-74 -29t-73.5 29t-30.5 72zM215 918q0 43 28.5 72.5t71.5 29.5q41 0 70 -29.5t29 -72.5t-29 -73t-70 -30q-43 0 -71.5 30t-28.5 73zM412 918q0 41 30.5 70.5t75.5 29.5t76 -30t31 -70 q0 -43 -31 -73t-76 -30t-75.5 30t-30.5 73zM621 725q0 43 30.5 74.5t73.5 31.5q41 0 71.5 -31.5t30.5 -74.5q0 -45 -30.5 -77t-71.5 -32q-43 0 -73.5 32t-30.5 77zM608 510q0 43 32 74.5t79 31.5q45 0 76.5 -31.5t31.5 -74.5q0 -45 -31.5 -77t-76.5 -32q-47 0 -79 32t-32 77 zM608 297q0 43 33 73.5t80 30.5t80 -30.5t33 -73.5t-33 -73.5t-80 -30.5t-80 30.5t-33 73.5zM412 94q0 37 30.5 64.5t73.5 27.5t74 -27.5t31 -64.5q0 -39 -31 -66.5t-74 -27.5t-73.5 27.5t-30.5 66.5zM199 102q0 41 30.5 71t75.5 30t76 -30t31 -71q0 -43 -31 -72.5 t-76 -29.5t-75.5 29.5t-30.5 72.5zM0 305q0 43 28.5 73t71.5 30q41 0 70 -30t29 -73t-29 -72.5t-70 -29.5q-43 0 -71.5 29.5t-28.5 72.5zM205 1126q0 41 30.5 71t73.5 30q41 0 72 -30t31 -71t-31 -70.5t-72 -29.5q-43 0 -73.5 29.5t-30.5 70.5zM205 307q0 41 30.5 71 t73.5 30q41 0 72 -30t31 -71t-31 -70.5t-72 -29.5q-43 0 -73.5 29.5t-30.5 70.5zM614 922q0 41 31 70.5t74 29.5q41 0 71.5 -29.5t30.5 -70.5t-30.5 -71t-71.5 -30q-43 0 -74 30t-31 71zM819 717q0 41 31 70.5t74 29.5q41 0 71.5 -29.5t30.5 -70.5t-30.5 -71t-71.5 -30 q-43 0 -74 30t-31 71zM819 512q0 41 31 70.5t74 29.5q41 0 71.5 -29.5t30.5 -70.5t-30.5 -70.5t-71.5 -29.5q-43 0 -74 29.5t-31 70.5zM819 307q0 41 31 71t74 30q41 0 71.5 -30t30.5 -71t-30.5 -70.5t-71.5 -29.5q-43 0 -74 29.5t-31 70.5zM614 102q0 41 31 71t74 30 q41 0 71.5 -30t30.5 -71t-30.5 -70.5t-71.5 -29.5q-43 0 -74 29.5t-31 70.5zM819 1331q0 41 31 71t74 30q41 0 71.5 -30t30.5 -71t-30.5 -70.5t-71.5 -29.5q-43 0 -74 29.5t-31 70.5z" />
<glyph unicode="6" d="M408 1329q0 41 29.5 69.5t72.5 28.5q41 0 70.5 -28.5t29.5 -69.5t-29.5 -69.5t-70.5 -28.5q-43 0 -72.5 28.5t-29.5 69.5zM203 1329q0 41 29.5 69.5t72.5 28.5t73 -28.5t30 -69.5t-30 -69.5t-73 -28.5t-72.5 28.5t-29.5 69.5zM0 1122q0 41 30.5 70t75.5 29q43 0 74 -29 t31 -70t-30.5 -69.5t-74.5 -28.5q-45 0 -75.5 28.5t-30.5 69.5zM0 922q0 43 30.5 72.5t75.5 29.5q43 0 74 -29.5t31 -72.5t-30.5 -73t-74.5 -30q-45 0 -75.5 30t-30.5 73zM0 717q0 43 30.5 72.5t75.5 29.5q43 0 74 -29.5t31 -72.5t-30.5 -73t-74.5 -30q-45 0 -75.5 30 t-30.5 73zM0 510q0 43 30.5 73.5t75.5 30.5q43 0 74 -30.5t31 -73.5t-30.5 -73.5t-74.5 -30.5q-45 0 -75.5 30.5t-30.5 73.5zM0 303q0 41 30.5 72t75.5 31q43 0 74 -31t31 -72q0 -43 -30.5 -73.5t-74.5 -30.5q-45 0 -75.5 30.5t-30.5 73.5zM211 100q0 41 29.5 70t70.5 29 t71 -29t30 -70q0 -43 -30 -71.5t-71 -28.5t-70.5 28.5t-29.5 71.5zM412 100q0 41 30.5 70t73.5 29q41 0 71.5 -29t30.5 -70q0 -43 -30.5 -71.5t-71.5 -28.5q-43 0 -73.5 28.5t-30.5 71.5zM618 301q0 43 30 72.5t73 29.5t72.5 -29.5t29.5 -72.5t-29.5 -72.5t-72.5 -29.5 t-73 29.5t-30 72.5zM606 506q0 41 32 70.5t77 29.5t76.5 -29.5t31.5 -70.5q0 -43 -31.5 -73t-76.5 -30t-77 30t-32 73zM606 711q0 43 32 73.5t77 30.5t76.5 -30.5t31.5 -73.5t-31.5 -74t-76.5 -31t-77 31t-32 74zM416 922q0 41 28.5 70.5t67.5 29.5t67.5 -29.5t28.5 -70.5 q0 -43 -28.5 -73t-67.5 -30t-67.5 30t-28.5 73zM205 922q0 41 30.5 70.5t75.5 29.5q43 0 74 -29.5t31 -70.5q0 -43 -31 -73t-74 -30q-45 0 -75.5 30t-30.5 73zM205 1126q0 41 30.5 71t73.5 30q41 0 72 -30t31 -71t-31 -70.5t-72 -29.5q-43 0 -73.5 29.5t-30.5 70.5z M614 1331q0 41 31 71t74 30q41 0 71.5 -30t30.5 -71t-30.5 -70.5t-71.5 -29.5q-43 0 -74 29.5t-31 70.5zM205 717q0 41 30.5 70.5t73.5 29.5q41 0 72 -29.5t31 -70.5t-31 -71t-72 -30q-43 0 -73.5 30t-30.5 71zM205 512q0 41 30.5 70.5t73.5 29.5q41 0 72 -29.5t31 -70.5 t-31 -70.5t-72 -29.5q-43 0 -73.5 29.5t-30.5 70.5zM205 307q0 41 30.5 71t73.5 30q41 0 72 -30t31 -71t-31 -70.5t-72 -29.5q-43 0 -73.5 29.5t-30.5 70.5zM614 922q0 41 31 70.5t74 29.5q41 0 71.5 -29.5t30.5 -70.5t-30.5 -71t-71.5 -30q-43 0 -74 30t-31 71zM819 717 q0 41 31 70.5t74 29.5q41 0 71.5 -29.5t30.5 -70.5t-30.5 -71t-71.5 -30q-43 0 -74 30t-31 71zM819 512q0 41 31 70.5t74 29.5q41 0 71.5 -29.5t30.5 -70.5t-30.5 -70.5t-71.5 -29.5q-43 0 -74 29.5t-31 70.5zM819 307q0 41 31 71t74 30q41 0 71.5 -30t30.5 -71t-30.5 -70.5 t-71.5 -29.5q-43 0 -74 29.5t-31 70.5zM614 102q0 41 31 71t74 30q41 0 71.5 -30t30.5 -71t-30.5 -70.5t-71.5 -29.5q-43 0 -74 29.5t-31 70.5z" />
<glyph unicode="7" d="M0 1329q0 41 30.5 69.5t73.5 28.5t74 -28.5t31 -69.5q0 -43 -31 -71.5t-74 -28.5t-73.5 28.5t-30.5 71.5zM209 1329q0 41 29.5 69.5t72.5 28.5t73 -28.5t30 -69.5q0 -43 -30 -71.5t-73 -28.5t-72.5 28.5t-29.5 71.5zM414 1329q0 41 29.5 69.5t72.5 28.5q41 0 70.5 -28.5 t29.5 -69.5q0 -43 -29.5 -71.5t-70.5 -28.5q-43 0 -72.5 28.5t-29.5 71.5zM616 1329q0 41 31 69.5t74 28.5t73.5 -28.5t30.5 -69.5q0 -43 -30.5 -71.5t-73.5 -28.5t-74 28.5t-31 71.5zM614 1122q0 41 31 70t76 29q43 0 73.5 -29t30.5 -70q0 -43 -30.5 -71.5t-73.5 -28.5 q-45 0 -76 28.5t-31 71.5zM614 920q0 43 31 72.5t74 29.5t73.5 -29.5t30.5 -72.5t-30.5 -73t-73.5 -30t-74 30t-31 73zM401 717q0 41 32 70.5t77 29.5t76.5 -29.5t31.5 -70.5q0 -43 -31.5 -73t-76.5 -30t-77 30t-32 73zM201 512q0 41 29.5 71.5t70.5 30.5t70.5 -30.5 t29.5 -71.5q0 -43 -29.5 -73.5t-70.5 -30.5t-70.5 30.5t-29.5 73.5zM0 305q0 41 29.5 72t70.5 31t71 -31t30 -72q0 -43 -30 -73.5t-71 -30.5t-70.5 30.5t-29.5 73.5zM0 100q0 41 30.5 71t73.5 30q41 0 72 -30t31 -71t-31 -70.5t-72 -29.5q-43 0 -73.5 29.5t-30.5 70.5z M819 1126q0 41 31 71t74 30q41 0 71.5 -30t30.5 -71t-30.5 -70.5t-71.5 -29.5q-43 0 -74 29.5t-31 70.5zM819 1331q0 41 31 71t74 30q41 0 71.5 -30t30.5 -71t-30.5 -70.5t-71.5 -29.5q-43 0 -74 29.5t-31 70.5zM614 717q0 41 31 70.5t74 29.5q41 0 71.5 -29.5t30.5 -70.5 t-30.5 -71t-71.5 -30q-43 0 -74 30t-31 71zM819 922q0 41 31 70.5t74 29.5q41 0 71.5 -29.5t30.5 -70.5t-30.5 -71t-71.5 -30q-43 0 -74 30t-31 71zM410 512q0 41 30.5 70.5t73.5 29.5q41 0 71.5 -29.5t30.5 -70.5t-30.5 -70.5t-71.5 -29.5q-43 0 -73.5 29.5t-30.5 70.5z M205 307q0 41 30.5 71t73.5 30q41 0 72 -30t31 -71t-31 -70.5t-72 -29.5q-43 0 -73.5 29.5t-30.5 70.5zM205 102q0 41 30.5 71t73.5 30q41 0 72 -30t31 -71t-31 -70.5t-72 -29.5q-43 0 -73.5 29.5t-30.5 70.5z" />
<glyph unicode="8" d="M199 1327q0 41 31.5 70.5t76.5 29.5t77 -29.5t32 -70.5t-32 -70.5t-77 -29.5t-76.5 29.5t-31.5 70.5zM416 1327q0 41 29.5 70.5t72.5 29.5t73 -29.5t30 -70.5t-30 -70.5t-73 -29.5t-72.5 29.5t-29.5 70.5zM623 1124q0 43 29.5 74t72.5 31t72.5 -31t29.5 -74t-29.5 -73.5 t-72.5 -30.5t-72.5 30.5t-29.5 73.5zM610 922q0 41 32 69.5t77 28.5t76.5 -28.5t31.5 -69.5t-31.5 -70t-76.5 -29t-77 29t-32 70zM406 719q0 43 29.5 73.5t72.5 30.5t72.5 -30.5t29.5 -73.5t-29.5 -74t-72.5 -31t-72.5 31t-29.5 74zM201 715q0 41 29.5 70.5t72.5 29.5 t73 -29.5t30 -70.5t-30 -71t-73 -30t-72.5 30t-29.5 71zM0 915q0 41 29.5 70t70.5 29t71 -29t30 -70q0 -43 -30 -71.5t-71 -28.5t-70.5 28.5t-29.5 71.5zM0 1120q0 43 30.5 74t75.5 31t76 -31t31 -74q0 -45 -30.5 -75.5t-76.5 -30.5q-45 0 -75.5 30.5t-30.5 75.5zM0 512 q0 41 29.5 70.5t72.5 29.5q41 0 71 -29.5t30 -70.5q0 -43 -30 -72.5t-71 -29.5q-43 0 -72.5 29.5t-29.5 72.5zM0 305q0 43 30.5 74t73.5 31q41 0 72 -31t31 -74q0 -45 -31 -75.5t-72 -30.5q-43 0 -73.5 30.5t-30.5 75.5zM207 100q0 41 30.5 70t73.5 29t74 -29t31 -70 q0 -43 -31 -71.5t-74 -28.5t-73.5 28.5t-30.5 71.5zM416 100q0 41 29.5 71t72.5 30t73 -30t30 -71t-30 -70.5t-73 -29.5t-72.5 29.5t-29.5 70.5zM621 303q0 43 29.5 73t72.5 30q41 0 70.5 -30t29.5 -73t-29.5 -72.5t-70.5 -29.5q-43 0 -72.5 29.5t-29.5 72.5zM612 510 q0 41 31 71.5t76 30.5q43 0 73.5 -30.5t30.5 -71.5q0 -43 -30.5 -73.5t-73.5 -30.5q-45 0 -76 30.5t-31 73.5zM205 1126q0 41 30.5 71t73.5 30q41 0 72 -30t31 -71t-31 -70.5t-72 -29.5q-43 0 -73.5 29.5t-30.5 70.5zM205 922q0 41 30.5 70.5t73.5 29.5q41 0 72 -29.5 t31 -70.5t-31 -71t-72 -30q-43 0 -73.5 30t-30.5 71zM819 1126q0 41 31 71t74 30q41 0 71.5 -30t30.5 -71t-30.5 -70.5t-71.5 -29.5q-43 0 -74 29.5t-31 70.5zM819 922q0 41 31 70.5t74 29.5q41 0 71.5 -29.5t30.5 -70.5t-30.5 -71t-71.5 -30q-43 0 -74 30t-31 71zM614 1331 q0 41 31 71t74 30q41 0 71.5 -30t30.5 -71t-30.5 -70.5t-71.5 -29.5q-43 0 -74 29.5t-31 70.5zM205 512q0 41 30.5 70.5t73.5 29.5q41 0 72 -29.5t31 -70.5t-31 -70.5t-72 -29.5q-43 0 -73.5 29.5t-30.5 70.5zM205 307q0 41 30.5 71t73.5 30q41 0 72 -30t31 -71t-31 -70.5 t-72 -29.5q-43 0 -73.5 29.5t-30.5 70.5zM614 717q0 41 31 70.5t74 29.5q41 0 71.5 -29.5t30.5 -70.5t-30.5 -71t-71.5 -30q-43 0 -74 30t-31 71zM819 512q0 41 31 70.5t74 29.5q41 0 71.5 -29.5t30.5 -70.5t-30.5 -70.5t-71.5 -29.5q-43 0 -74 29.5t-31 70.5zM819 307 q0 41 31 71t74 30q41 0 71.5 -30t30.5 -71t-30.5 -70.5t-71.5 -29.5q-43 0 -74 29.5t-31 70.5zM614 102q0 41 31 71t74 30q41 0 71.5 -30t30.5 -71t-30.5 -70.5t-71.5 -29.5q-43 0 -74 29.5t-31 70.5z" />
<glyph unicode="9" d="M406 514q0 43 29.5 73.5t72.5 30.5q41 0 70.5 -30.5t29.5 -73.5t-29.5 -73.5t-70.5 -30.5q-43 0 -72.5 30.5t-29.5 73.5zM205 512q0 41 29.5 70.5t70.5 29.5t71 -29.5t30 -70.5q0 -43 -30 -72.5t-71 -29.5t-70.5 29.5t-29.5 72.5zM0 715q0 43 29.5 72.5t72.5 29.5 t73 -29.5t30 -72.5t-30 -73t-73 -30t-72.5 30t-29.5 73zM0 918q0 41 30.5 70.5t75.5 29.5t76 -30t31 -70q0 -41 -30.5 -71t-76.5 -30q-45 0 -75.5 30t-30.5 71zM0 1122q0 41 30.5 72t75.5 31t76 -31t31 -72q0 -43 -30.5 -73.5t-76.5 -30.5q-45 0 -75.5 30.5t-30.5 73.5z M205 1329q0 41 30.5 69.5t75.5 28.5q43 0 74 -28.5t31 -69.5t-31 -69.5t-74 -28.5q-45 0 -75.5 28.5t-30.5 69.5zM416 1329q0 41 30.5 69.5t73.5 28.5t74 -28.5t31 -69.5t-31 -69.5t-74 -28.5t-73.5 28.5t-30.5 69.5zM625 1126q0 43 29.5 74t70.5 31t70.5 -31t29.5 -74 q0 -45 -29.5 -75.5t-70.5 -30.5t-70.5 30.5t-29.5 75.5zM614 920q0 41 31 70.5t76 29.5q43 0 73.5 -29.5t30.5 -70.5q0 -43 -30.5 -73t-73.5 -30q-45 0 -76 30t-31 73zM614 715q0 43 32 72.5t77 29.5q43 0 74.5 -29.5t31.5 -72.5t-31.5 -73t-74.5 -30q-45 0 -77 30t-32 73z M608 508q0 43 33 73.5t78 30.5t77.5 -30.5t32.5 -73.5q0 -45 -32.5 -76t-77.5 -31t-78 31t-33 76zM608 301q0 41 32 70.5t77 29.5q43 0 74.5 -29.5t31.5 -70.5q0 -43 -31.5 -72.5t-74.5 -29.5q-45 0 -77 29.5t-32 72.5zM414 96q0 39 28.5 68t71.5 29q41 0 69.5 -29t28.5 -68 t-28.5 -67.5t-69.5 -28.5q-43 0 -71.5 28.5t-28.5 67.5zM197 98q0 41 31.5 70t76.5 29t77 -29t32 -70t-32 -69.5t-77 -28.5t-76.5 28.5t-31.5 69.5zM205 1126q0 41 30.5 71t73.5 30q41 0 72 -30t31 -71t-31 -70.5t-72 -29.5q-43 0 -73.5 29.5t-30.5 70.5zM205 922 q0 41 30.5 70.5t73.5 29.5q41 0 72 -29.5t31 -70.5t-31 -71t-72 -30q-43 0 -73.5 30t-30.5 71zM205 717q0 41 30.5 70.5t73.5 29.5q41 0 72 -29.5t31 -70.5t-31 -71t-72 -30q-43 0 -73.5 30t-30.5 71zM819 1126q0 41 31 71t74 30q41 0 71.5 -30t30.5 -71t-30.5 -70.5 t-71.5 -29.5q-43 0 -74 29.5t-31 70.5zM614 1331q0 41 31 71t74 30q41 0 71.5 -30t30.5 -71t-30.5 -70.5t-71.5 -29.5q-43 0 -74 29.5t-31 70.5zM819 717q0 41 31 70.5t74 29.5q41 0 71.5 -29.5t30.5 -70.5t-30.5 -71t-71.5 -30q-43 0 -74 30t-31 71zM819 922q0 41 31 70.5 t74 29.5q41 0 71.5 -29.5t30.5 -70.5t-30.5 -71t-71.5 -30q-43 0 -74 30t-31 71zM819 512q0 41 31 70.5t74 29.5q41 0 71.5 -29.5t30.5 -70.5t-30.5 -70.5t-71.5 -29.5q-43 0 -74 29.5t-31 70.5zM819 307q0 41 31 71t74 30q41 0 71.5 -30t30.5 -71t-30.5 -70.5t-71.5 -29.5 q-43 0 -74 29.5t-31 70.5zM614 102q0 41 31 71t74 30q41 0 71.5 -30t30.5 -71t-30.5 -70.5t-71.5 -29.5q-43 0 -74 29.5t-31 70.5z" />
<glyph unicode=":" horiz-adv-x="614" d="M0 717q0 39 30.5 67.5t73.5 28.5t74 -28.5t31 -67.5q0 -41 -31 -70t-74 -29t-73.5 29t-30.5 70zM0 98q0 41 30.5 70t75.5 29q43 0 74 -29t31 -70t-30.5 -69.5t-74.5 -28.5q-45 0 -75.5 28.5t-30.5 69.5zM205 717q0 39 30.5 67.5t73.5 28.5t74 -28.5t31 -67.5 q0 -41 -31 -70t-74 -29t-73.5 29t-30.5 70zM205 98q0 41 30.5 70t75.5 29q43 0 74 -29t31 -70t-31 -69.5t-74 -28.5q-45 0 -75.5 28.5t-30.5 69.5z" />
<glyph unicode=";" horiz-adv-x="819" d="M0 -104q0 43 31.5 73.5t79.5 30.5q45 0 76.5 -30.5t31.5 -73.5q0 -41 -31.5 -72t-76.5 -31q-47 0 -79 31t-32 72zM201 100q0 41 32.5 70t79.5 29q45 0 78 -29t33 -70q0 -43 -33 -71.5t-78 -28.5q-47 0 -79.5 28.5t-32.5 71.5zM201 713q0 41 30.5 71.5t75.5 30.5 q43 0 74 -30.5t31 -71.5q0 -43 -31 -74t-74 -31q-45 0 -75.5 31t-30.5 74zM205 -104q0 43 31.5 73.5t78.5 30.5q45 0 77 -30.5t32 -73.5q0 -41 -32 -72t-77 -31q-47 0 -78.5 31t-31.5 72zM406 100q0 41 32.5 70t79.5 29q45 0 78 -29t33 -70q0 -43 -33 -71.5t-78 -28.5 q-47 0 -79.5 28.5t-32.5 71.5zM406 713q0 41 30.5 71.5t75.5 30.5q43 0 73.5 -30.5t30.5 -71.5q0 -43 -30.5 -74t-73.5 -31q-45 0 -75.5 31t-30.5 74z" />
<glyph unicode="&#x3c;" horiz-adv-x="1024" d="M412 96q0 39 29.5 68t70.5 29t70.5 -29t29.5 -68t-29.5 -67.5t-70.5 -28.5t-70.5 28.5t-29.5 67.5zM201 301q0 45 30.5 77t75.5 32q43 0 74 -32t31 -77t-31 -76.5t-74 -31.5q-45 0 -75.5 31.5t-30.5 76.5zM0 510q0 41 29.5 70.5t70.5 29.5t71 -29.5t30 -70.5t-30 -70.5 t-71 -29.5t-70.5 29.5t-29.5 70.5zM207 719q0 41 30.5 71.5t75.5 30.5q43 0 74 -30.5t31 -71.5q0 -43 -31 -74t-74 -31q-45 0 -75.5 31t-30.5 74zM418 922q0 41 29.5 70.5t70.5 29.5t70.5 -29.5t29.5 -70.5t-29.5 -71t-70.5 -30t-70.5 30t-29.5 71zM616 96q0 39 30 68t71 29 t70.5 -29t29.5 -68t-29.5 -67.5t-70.5 -28.5t-71 28.5t-30 67.5zM406 301q0 45 30.5 77t75.5 32q43 0 73.5 -32t30.5 -77t-30.5 -76.5t-73.5 -31.5q-45 0 -75.5 31.5t-30.5 76.5zM205 510q0 41 29.5 70.5t70.5 29.5t71 -29.5t30 -70.5t-30 -70.5t-71 -29.5t-70.5 29.5 t-29.5 70.5zM412 719q0 41 30.5 71.5t75.5 30.5q43 0 74 -30.5t31 -71.5q0 -43 -31 -74t-74 -31q-45 0 -75.5 31t-30.5 74zM623 922q0 41 29.5 70.5t70.5 29.5t70.5 -29.5t29.5 -70.5t-29.5 -71t-70.5 -30t-70.5 30t-29.5 71z" />
<glyph unicode="=" horiz-adv-x="1024" d="M0 922q0 41 31.5 70.5t77.5 29.5q45 0 76.5 -29.5t31.5 -70.5t-31.5 -71t-76.5 -30t-77 30t-32 71zM217 920q0 39 29.5 67.5t70.5 28.5t71 -29t30 -67q0 -41 -30 -70t-71 -29t-70.5 29t-29.5 70zM412 911q0 43 29.5 72t72.5 29t72.5 -29t29.5 -72q0 -41 -29.5 -70.5 t-72.5 -29.5t-72.5 29.5t-29.5 70.5zM0 508q0 41 30.5 71.5t75.5 30.5q43 0 74 -30.5t31 -71.5q0 -43 -30.5 -74t-74.5 -31q-45 0 -75.5 31t-30.5 74zM211 510q0 43 29.5 73.5t70.5 30.5t71 -30.5t30 -73.5q0 -45 -30 -76t-71 -31t-70.5 31t-29.5 76zM412 508 q0 43 31.5 74.5t76.5 31.5t77 -31.5t32 -74.5q0 -45 -32 -77t-77 -32t-76.5 32t-31.5 77zM616 911q0 43 30 72t73 29t72.5 -29t29.5 -72q0 -41 -29.5 -70.5t-72.5 -29.5t-73 29.5t-30 70.5zM637 502q0 43 29.5 72.5t72.5 27.5q43 0 73 -28.5t30 -71.5q0 -41 -30 -71t-73 -30 t-72.5 30t-29.5 71z" />
<glyph unicode="&#x3e;" horiz-adv-x="1024" d="M0 100q0 41 31.5 70t77.5 29q45 0 76.5 -29t31.5 -70q0 -43 -31.5 -71.5t-76.5 -28.5t-77 28.5t-32 71.5zM217 305q0 43 28.5 74t69.5 31q39 0 68 -31t29 -74q0 -45 -29 -75.5t-68 -30.5q-41 0 -69.5 30.5t-28.5 75.5zM412 510q0 41 30.5 70.5t75.5 29.5q43 0 74 -29.5 t31 -70.5t-31 -70.5t-74 -29.5q-45 0 -75.5 29.5t-30.5 70.5zM201 719q0 41 29.5 71.5t70.5 30.5t70.5 -30.5t29.5 -71.5q0 -43 -29.5 -74t-70.5 -31t-70.5 31t-29.5 74zM0 922q0 41 29.5 70.5t70.5 29.5t71 -29.5t30 -70.5t-30 -71t-71 -30t-70.5 30t-29.5 71zM205 100 q0 41 31.5 70t76.5 29t77 -29t32 -70q0 -43 -32 -71.5t-77 -28.5t-76.5 28.5t-31.5 71.5zM422 305q0 43 28.5 74t69.5 31q39 0 67.5 -31t28.5 -74q0 -45 -28.5 -75.5t-67.5 -30.5q-41 0 -69.5 30.5t-28.5 75.5zM616 510q0 41 31 70.5t76 29.5q43 0 73.5 -29.5t30.5 -70.5 t-30.5 -70.5t-73.5 -29.5q-45 0 -76 29.5t-31 70.5zM406 719q0 41 29.5 71.5t70.5 30.5t70.5 -30.5t29.5 -71.5q0 -43 -29.5 -74t-70.5 -31t-70.5 31t-29.5 74zM205 922q0 41 29.5 70.5t70.5 29.5t71 -29.5t30 -70.5t-30 -71t-71 -30t-70.5 30t-29.5 71z" />
<glyph unicode="?" d="M0 1122q0 43 31.5 74t77.5 31q45 0 76.5 -31t31.5 -74q0 -45 -31.5 -75.5t-76.5 -30.5t-77 30.5t-32 75.5zM197 1323q0 43 31.5 73.5t76.5 30.5t77 -30.5t32 -73.5q0 -45 -32 -75.5t-77 -30.5t-76.5 30.5t-31.5 75.5zM414 1323q0 43 30.5 73.5t73.5 30.5t74 -30.5 t31 -73.5q0 -45 -31 -75.5t-74 -30.5t-73.5 30.5t-30.5 75.5zM612 1124q0 43 31 73t74 30q41 0 71.5 -30t30.5 -73t-30.5 -72.5t-71.5 -29.5q-43 0 -74 29.5t-31 72.5zM612 918q0 43 31 73.5t74 30.5q41 0 71.5 -30.5t30.5 -73.5q0 -45 -30.5 -76t-71.5 -31q-43 0 -74 31 t-31 76zM414 709q0 41 28.5 71.5t71.5 30.5q41 0 69.5 -30.5t28.5 -71.5q0 -43 -28.5 -74t-69.5 -31q-43 0 -71.5 31t-28.5 74zM203 709q0 41 30.5 71.5t75.5 30.5q43 0 74 -30.5t31 -71.5q0 -43 -31 -74t-74 -31q-45 0 -75.5 31t-30.5 74zM193 502q0 41 33.5 69.5 t82.5 28.5q47 0 81 -28.5t34 -69.5t-34 -70t-81 -29q-49 0 -82.5 29t-33.5 70zM207 100q0 41 30.5 70t73.5 29q41 0 72 -29t31 -70q0 -43 -31 -71.5t-72 -28.5q-43 0 -73.5 28.5t-30.5 71.5zM205 1122q0 43 31.5 74t76.5 31t77 -31t32 -74q0 -45 -32 -75.5t-77 -30.5 t-76.5 30.5t-31.5 75.5zM614 1327q0 43 32 74t77 31t76.5 -31t31.5 -74q0 -45 -31.5 -75.5t-76.5 -30.5t-77 30.5t-32 75.5zM819 1122q0 43 32 74t77 31t76.5 -31t31.5 -74q0 -45 -31.5 -75.5t-76.5 -30.5t-77 30.5t-32 75.5zM819 918q0 43 32 73.5t77 30.5t76.5 -30.5 t31.5 -73.5q0 -45 -31.5 -76t-76.5 -31t-77 31t-32 76zM614 713q0 43 32 73.5t77 30.5t76.5 -30.5t31.5 -73.5q0 -45 -31.5 -76t-76.5 -31t-77 31t-32 76zM410 508q0 43 31.5 73.5t76.5 30.5t77 -30.5t32 -73.5q0 -45 -32 -76t-77 -31t-76.5 31t-31.5 76zM410 98 q0 43 31.5 74t76.5 31t77 -31t32 -74q0 -45 -32 -75.5t-77 -30.5t-76.5 30.5t-31.5 75.5z" />
<glyph unicode="@" horiz-adv-x="2048" d="M207 295q0 41 30.5 68.5t71.5 27.5q43 0 73 -27.5t30 -68.5q0 -39 -30 -66.5t-73 -27.5q-41 0 -71.5 27.5t-30.5 66.5zM207 498q0 39 30.5 66.5t71.5 27.5q43 0 73 -27.5t30 -66.5t-30 -68t-73 -29q-41 0 -71.5 29t-30.5 68zM211 700q0 39 29.5 67t72.5 28t73 -28t30 -67 q0 -41 -30 -68.5t-73 -27.5t-72.5 27.5t-29.5 68.5zM428 92q0 39 29.5 65.5t72.5 26.5q41 0 71 -26.5t30 -65.5t-30 -65.5t-71 -26.5q-43 0 -72.5 26.5t-29.5 65.5zM631 96q0 39 29.5 66.5t72.5 27.5q41 0 71 -27.5t30 -66.5q0 -41 -30 -68.5t-71 -27.5q-43 0 -72.5 27.5 t-29.5 68.5zM625 498q0 39 29.5 66.5t72.5 27.5q41 0 70.5 -27.5t29.5 -66.5t-29.5 -67t-70.5 -28q-43 0 -72.5 28t-29.5 67zM625 696q0 37 29.5 64.5t72.5 27.5q41 0 70.5 -27.5t29.5 -64.5q0 -39 -29.5 -66.5t-70.5 -27.5q-43 0 -72.5 27.5t-29.5 66.5zM205 909 q0 37 30.5 64.5t73.5 27.5q41 0 72 -27.5t31 -64.5q0 -39 -31 -66.5t-72 -27.5q-43 0 -73.5 27.5t-30.5 66.5zM834 494q0 39 29.5 66.5t72.5 27.5q41 0 70.5 -28t29.5 -66q0 -41 -29.5 -69t-70.5 -28q-43 0 -72.5 28t-29.5 69zM1036 500q0 39 30 67.5t73 28.5t72.5 -28.5 t29.5 -67.5q0 -41 -29.5 -70t-72.5 -29t-73 29t-30 70zM1251 713zM1038 713q0 39 30 66.5t71 27.5t70.5 -27.5t29.5 -66.5t-29.5 -67t-70.5 -28t-71 28t-30 67zM1034 924q0 39 29 67.5t72 28.5q41 0 69.5 -28.5t28.5 -67.5t-28.5 -68t-69.5 -29q-43 0 -72 29t-29 68z M831 924q0 39 30 67.5t73 28.5q41 0 70.5 -28.5t29.5 -67.5q0 -41 -29.5 -70t-70.5 -29q-43 0 -73 29t-30 70zM635 924q0 39 28.5 67.5t69.5 28.5t69.5 -28.5t28.5 -67.5q0 -41 -28.5 -70t-69.5 -29t-69.5 29t-28.5 70zM205 1108q0 41 29.5 69.5t70.5 28.5t71 -28.5 t30 -69.5t-30 -69.5t-71 -28.5t-70.5 28.5t-29.5 69.5zM406 1309q0 43 29.5 72.5t72.5 29.5t72.5 -29.5t29.5 -72.5t-29.5 -73t-72.5 -30t-72.5 30t-29.5 73zM610 1313q0 41 29 69.5t70 28.5t69.5 -28.5t28.5 -69.5t-28.5 -70t-69.5 -29t-70 29t-29 70zM807 1313 q0 39 29.5 67.5t72.5 28.5t73 -28.5t30 -67.5q0 -41 -30 -70t-73 -29t-72.5 29t-29.5 70zM1010 1315q0 39 30.5 66.5t73.5 27.5q41 0 72 -27.5t31 -66.5q0 -41 -31 -68.5t-72 -27.5q-43 0 -73.5 27.5t-30.5 68.5zM1257 489q0 41 29 70t68 29t67.5 -29t28.5 -70t-28.5 -69.5 t-67.5 -28.5t-68 28.5t-29 69.5zM1450 717q0 41 29.5 70.5t70.5 29.5t71 -29.5t30 -70.5q0 -43 -30 -73t-71 -30t-70.5 30t-29.5 73zM1440 920q0 43 30.5 72.5t75.5 29.5q43 0 74 -29.5t31 -72.5t-31 -73t-74 -30q-45 0 -75.5 30t-30.5 73zM1444 1122q0 37 29.5 64.5 t70.5 27.5t71 -27.5t30 -64.5q0 -39 -30 -66.5t-71 -27.5t-70.5 27.5t-29.5 66.5zM1219 1325q0 39 29.5 66.5t70.5 27.5t70.5 -27.5t29.5 -66.5t-29.5 -66.5t-70.5 -27.5t-70.5 27.5t-29.5 66.5zM854 92q0 37 27.5 63.5t66.5 26.5q37 0 64.5 -26.5t27.5 -63.5 q0 -39 -27.5 -65.5t-64.5 -26.5q-39 0 -66.5 26.5t-27.5 65.5zM1040 94q0 39 30 66.5t71 27.5t70.5 -27.5t29.5 -66.5t-29.5 -66.5t-70.5 -27.5t-71 27.5t-30 66.5zM1243 94q0 39 31 66.5t76 27.5t75.5 -27.5t30.5 -66.5t-30.5 -66.5t-75.5 -27.5t-76 27.5t-31 66.5zM2 295 q0 41 30.5 68.5t71.5 27.5q43 0 73 -27.5t30 -68.5q0 -39 -30 -66.5t-73 -27.5q-41 0 -71.5 27.5t-30.5 66.5zM2 498q0 39 30.5 66.5t71.5 27.5q43 0 73 -27.5t30 -66.5t-30 -68t-73 -29q-41 0 -71.5 29t-30.5 68zM6 700q0 39 30 67t73 28t72.5 -28t29.5 -67 q0 -41 -29.5 -68.5t-72.5 -27.5t-73 27.5t-30 68.5zM0 909q0 37 30.5 64.5t73.5 27.5q41 0 72 -27.5t31 -64.5q0 -39 -31 -66.5t-72 -27.5q-43 0 -73.5 27.5t-30.5 66.5zM0 1108q0 41 29.5 69.5t70.5 28.5t71 -28.5t30 -69.5t-30 -69.5t-71 -28.5t-70.5 28.5t-29.5 69.5z M1655 717q0 41 29.5 70.5t70.5 29.5t70.5 -29.5t29.5 -70.5q0 -43 -29.5 -73t-70.5 -30t-70.5 30t-29.5 73zM1645 920q0 43 30.5 72.5t75.5 29.5q43 0 73.5 -29.5t30.5 -72.5t-30.5 -73t-73.5 -30q-45 0 -75.5 30t-30.5 73zM1645 1118q0 39 29.5 65.5t70.5 26.5 q43 0 71.5 -26.5t28.5 -65.5t-28.5 -66.5t-71.5 -27.5q-41 0 -70.5 27.5t-29.5 66.5zM1440 1323q0 39 29.5 65.5t70.5 26.5q43 0 71.5 -26.5t28.5 -65.5t-28.5 -66.5t-71.5 -27.5q-41 0 -70.5 27.5t-29.5 66.5zM1440 504q0 39 29.5 65.5t70.5 26.5q43 0 71.5 -26.5 t28.5 -65.5t-28.5 -66.5t-71.5 -27.5q-41 0 -70.5 27.5t-29.5 66.5zM1440 94q0 39 29.5 65.5t70.5 26.5q43 0 71.5 -26.5t28.5 -65.5t-28.5 -66.5t-71.5 -27.5q-41 0 -70.5 27.5t-29.5 66.5zM211 1323q0 39 29.5 65.5t70.5 26.5q43 0 72 -26.5t29 -65.5t-29 -66.5t-72 -27.5 q-41 0 -70.5 27.5t-29.5 66.5zM211 94q0 39 29.5 65.5t70.5 26.5q43 0 72 -26.5t29 -65.5t-29 -66.5t-72 -27.5q-41 0 -70.5 27.5t-29.5 66.5z" />
<glyph unicode="A" d="M0 100q0 41 30.5 71t73.5 30t74 -30t31 -71t-31 -70.5t-74 -29.5t-73.5 29.5t-30.5 70.5zM0 305q0 41 30.5 71t73.5 30t74 -30t31 -71q0 -43 -31 -72.5t-74 -29.5t-73.5 29.5t-30.5 72.5zM0 506q0 41 30.5 69.5t75.5 28.5t76 -28.5t31 -69.5q0 -43 -30.5 -71.5 t-76.5 -28.5q-45 0 -75.5 28.5t-30.5 71.5zM0 709q0 43 30.5 73.5t75.5 30.5t76 -30.5t31 -73.5t-30.5 -74t-76.5 -31q-45 0 -75.5 31t-30.5 74zM0 918q0 43 29.5 73.5t72.5 30.5t73 -30.5t30 -73.5t-30 -74t-73 -31t-72.5 31t-29.5 74zM0 1122q0 41 29.5 71t72.5 30t73 -30 t30 -71t-30 -70.5t-73 -29.5t-72.5 29.5t-29.5 70.5zM221 711q0 41 29 69.5t67 28.5q39 0 68 -28.5t29 -69.5t-29 -70t-68 -29t-67.5 29t-28.5 70zM414 717q0 43 29.5 73.5t72.5 30.5t72.5 -30.5t29.5 -73.5t-29.5 -74t-72.5 -31t-72.5 31t-29.5 74zM618 719q0 41 30 71.5 t73 30.5t72.5 -30.5t29.5 -71.5q0 -43 -29.5 -74t-72.5 -31t-73 31t-30 74zM612 508q0 45 31 75.5t76 30.5q43 0 73.5 -30.5t30.5 -75.5t-30.5 -76t-73.5 -31q-45 0 -76 31t-31 76zM612 303q0 41 31 69.5t76 28.5t75.5 -28.5t30.5 -69.5q0 -43 -30.5 -71.5t-75.5 -28.5 t-76 28.5t-31 71.5zM612 102q0 41 31 71t76 30t75.5 -30t30.5 -71q0 -43 -30.5 -72.5t-75.5 -29.5t-76 29.5t-31 72.5zM614 922q0 41 31 69.5t74 28.5t73.5 -28.5t30.5 -69.5q0 -43 -30.5 -72t-73.5 -29t-74 29t-31 72zM623 1114q0 43 31.5 73t74.5 30q45 0 77 -30t32 -73 q0 -41 -32 -71.5t-77 -30.5q-43 0 -74.5 30.5t-31.5 71.5zM410 1327q0 41 28.5 70.5t71.5 29.5q41 0 69.5 -29.5t28.5 -70.5q0 -43 -28.5 -72.5t-69.5 -29.5q-43 0 -71.5 29.5t-28.5 72.5zM201 1327q0 41 30.5 70.5t73.5 29.5t74 -29.5t31 -70.5t-31 -70.5t-74 -29.5 t-73.5 29.5t-30.5 70.5zM623 1319q0 43 31.5 72.5t74.5 29.5q45 0 77 -29.5t32 -72.5q0 -41 -32 -71.5t-77 -30.5q-43 0 -74.5 30.5t-31.5 71.5zM213 1114q0 43 31.5 73t74.5 30q45 0 77 -30t32 -73q0 -41 -31.5 -71.5t-77.5 -30.5q-43 0 -74.5 30.5t-31.5 71.5zM213 909 q0 43 31.5 73t74.5 30q45 0 77 -30t32 -73q0 -41 -31.5 -71.5t-77.5 -30.5q-43 0 -74.5 30.5t-31.5 71.5zM213 500q0 43 31.5 72.5t74.5 29.5q45 0 77 -29.5t32 -72.5q0 -41 -31.5 -72t-77.5 -31q-43 0 -74.5 31t-31.5 72zM213 295q0 43 31.5 72.5t74.5 29.5q45 0 77 -29.5 t32 -72.5q0 -41 -31.5 -71.5t-77.5 -30.5q-43 0 -74.5 30.5t-31.5 71.5zM213 90q0 43 31.5 73t74.5 30q45 0 77 -30t32 -73q0 -41 -31.5 -71.5t-77.5 -30.5q-43 0 -74.5 30.5t-31.5 71.5zM827 1114q0 43 32 73t75 30q45 0 76.5 -30t31.5 -73q0 -41 -31.5 -71.5t-76.5 -30.5 q-43 0 -75 30.5t-32 71.5zM827 909q0 43 32 73t75 30q45 0 76.5 -30t31.5 -73q0 -41 -31.5 -71.5t-76.5 -30.5q-43 0 -75 30.5t-32 71.5zM827 705q0 43 32 72.5t75 29.5q45 0 76.5 -29.5t31.5 -72.5q0 -41 -31.5 -72t-76.5 -31q-43 0 -75 31t-32 72zM827 500q0 43 32 72.5 t75 29.5q45 0 76.5 -29.5t31.5 -72.5q0 -41 -31.5 -72t-76.5 -31q-43 0 -75 31t-32 72zM827 295q0 43 32 72.5t75 29.5q45 0 76.5 -29.5t31.5 -72.5q0 -41 -31.5 -71.5t-76.5 -30.5q-43 0 -75 30.5t-32 71.5zM827 90q0 43 32 73t75 30q45 0 76.5 -30t31.5 -73 q0 -41 -31.5 -71.5t-76.5 -30.5q-43 0 -75 30.5t-32 71.5z" />
<glyph unicode="B" d="M0 100q0 41 30.5 70t73.5 29t74 -29t31 -70q0 -43 -31 -71.5t-74 -28.5t-73.5 28.5t-30.5 71.5zM209 100q0 41 29.5 70t72.5 29q41 0 71 -29t30 -70q0 -43 -30 -71.5t-71 -28.5q-43 0 -72.5 28.5t-29.5 71.5zM412 100q0 41 29.5 71t72.5 30t72.5 -30t29.5 -71 t-29.5 -70.5t-72.5 -29.5t-72.5 29.5t-29.5 70.5zM618 303q0 41 31 70.5t74 29.5t73.5 -29.5t30.5 -70.5q0 -43 -30.5 -72.5t-73.5 -29.5t-74 29.5t-31 72.5zM608 508q0 43 32 73.5t79 30.5q45 0 76.5 -30.5t31.5 -73.5t-31.5 -74t-76.5 -31q-47 0 -79 31t-32 74zM410 713 q0 41 28.5 70.5t71.5 29.5q41 0 69.5 -29.5t28.5 -70.5t-28.5 -71t-69.5 -30q-43 0 -71.5 30t-28.5 71zM207 713q0 41 29.5 70.5t72.5 29.5q41 0 71 -29.5t30 -70.5q0 -43 -30 -73t-71 -30q-43 0 -72.5 30t-29.5 73zM0 713q0 41 30.5 70.5t73.5 29.5q41 0 72 -29.5t31 -70.5 q0 -43 -31 -73t-72 -30q-43 0 -73.5 30t-30.5 73zM0 915q0 43 30.5 73t75.5 30t76 -30t31 -73t-30.5 -72.5t-76.5 -29.5q-45 0 -75.5 29.5t-30.5 72.5zM0 1120q0 43 30.5 73t75.5 30t76 -30t31 -73t-30.5 -72.5t-76.5 -29.5q-45 0 -75.5 29.5t-30.5 72.5zM0 1325 q0 43 30.5 72.5t73.5 29.5q41 0 72 -29.5t31 -72.5t-31 -72.5t-72 -29.5q-43 0 -73.5 29.5t-30.5 72.5zM207 1331q0 39 30.5 67.5t73.5 28.5q41 0 72 -28.5t31 -67.5t-31 -67.5t-72 -28.5q-43 0 -73.5 28.5t-30.5 67.5zM414 1331q0 39 29.5 67.5t72.5 28.5t72.5 -28.5 t29.5 -67.5t-29.5 -67.5t-72.5 -28.5t-72.5 28.5t-29.5 67.5zM612 1124q0 41 29 70t70 29t69.5 -29t28.5 -70t-28.5 -69.5t-69.5 -28.5t-70 28.5t-29 69.5zM621 918q0 43 29.5 73.5t72.5 30.5q41 0 70.5 -30.5t29.5 -73.5q0 -45 -29.5 -76t-70.5 -31q-43 0 -72.5 31 t-29.5 76zM0 506q0 41 30.5 69.5t75.5 28.5q43 0 74 -28.5t31 -69.5t-30.5 -69.5t-74.5 -28.5q-45 0 -75.5 28.5t-30.5 69.5zM0 305q0 43 30.5 73t75.5 30q43 0 74 -30t31 -73t-30.5 -72.5t-74.5 -29.5q-45 0 -75.5 29.5t-30.5 72.5zM223 1124q0 41 29 70t70 29t69.5 -29 t28.5 -70t-29 -69.5t-69 -28.5q-41 0 -70 28.5t-29 69.5zM211 918q0 43 29.5 73.5t72.5 30.5q41 0 71 -30.5t30 -73.5q0 -45 -30 -76t-71 -31q-43 0 -72.5 31t-29.5 76zM223 510q0 41 29 69.5t70 28.5t69.5 -28.5t28.5 -69.5t-29 -69.5t-69 -28.5q-41 0 -70 28.5t-29 69.5z M211 303q0 43 29.5 74t72.5 31q41 0 71 -31t30 -74q0 -45 -30 -75.5t-71 -30.5q-43 0 -72.5 30.5t-29.5 75.5zM817 1124q0 41 28.5 70t69.5 29t70 -29t29 -70t-29 -69.5t-70 -28.5t-69.5 28.5t-28.5 69.5zM825 918q0 43 30 73.5t73 30.5q41 0 70.5 -30.5t29.5 -73.5 q0 -45 -29.5 -76t-70.5 -31q-43 0 -73 31t-30 76zM817 510q0 41 28.5 69.5t69.5 28.5t70 -28.5t29 -69.5t-29 -69.5t-70 -28.5t-69.5 28.5t-28.5 69.5zM825 303q0 43 30 74t73 31q41 0 70.5 -31t29.5 -74q0 -45 -29.5 -75.5t-70.5 -30.5q-43 0 -73 30.5t-30 75.5zM616 100 q0 41 30 71t73 30t72.5 -30t29.5 -71t-29.5 -70.5t-72.5 -29.5t-73 29.5t-30 70.5zM616 715q0 41 30 70.5t73 29.5t72.5 -29.5t29.5 -70.5t-29.5 -71t-72.5 -30t-73 30t-30 71zM616 1329q0 41 30 71t73 30t72.5 -30t29.5 -71t-29.5 -70.5t-72.5 -29.5t-73 29.5t-30 70.5z " />
<glyph unicode="C" d="M612 1124q0 41 31 70t74 29q41 0 71.5 -29t30.5 -70t-30.5 -69.5t-71.5 -28.5q-43 0 -74 28.5t-31 69.5zM410 1325q0 43 29.5 72.5t72.5 29.5q41 0 70.5 -29.5t29.5 -72.5t-29.5 -72.5t-70.5 -29.5q-43 0 -72.5 29.5t-29.5 72.5zM205 1331q0 39 29.5 67.5t72.5 28.5 t73 -28.5t30 -67.5q0 -41 -30 -69.5t-73 -28.5t-72.5 28.5t-29.5 69.5zM0 1128q0 43 29.5 74t72.5 31t73 -31t30 -74q0 -45 -30 -75.5t-73 -30.5t-72.5 30.5t-29.5 75.5zM0 922q0 41 30.5 70.5t75.5 29.5t76 -29.5t31 -70.5t-30.5 -71t-76.5 -30q-45 0 -75.5 30t-30.5 71z M0 717q0 43 30.5 73.5t75.5 30.5t76 -30.5t31 -73.5t-30.5 -74t-76.5 -31q-45 0 -75.5 31t-30.5 74zM0 512q0 41 30.5 70.5t75.5 29.5t76 -29.5t31 -70.5q0 -43 -30.5 -72.5t-76.5 -29.5q-45 0 -75.5 29.5t-30.5 72.5zM0 309q0 41 30.5 71t75.5 30t76 -30t31 -71 q0 -43 -30.5 -72.5t-76.5 -29.5q-45 0 -75.5 29.5t-30.5 72.5zM197 100q0 41 31.5 70t76.5 29q43 0 75 -29t32 -70q0 -43 -32 -71.5t-75 -28.5q-45 0 -76.5 28.5t-31.5 71.5zM412 100q0 41 30.5 70t75.5 29q43 0 74 -29t31 -70q0 -43 -31 -71.5t-74 -28.5q-45 0 -75.5 28.5 t-30.5 71.5zM614 303q0 43 31 75t76 32q43 0 73.5 -32t30.5 -75q0 -45 -30.5 -76.5t-73.5 -31.5q-45 0 -76 31.5t-31 76.5zM205 1128q0 43 29.5 74t72.5 31t73 -31t30 -74q0 -45 -30 -75.5t-73 -30.5t-72.5 30.5t-29.5 75.5zM205 922q0 41 30.5 70.5t75.5 29.5t76 -29.5 t31 -70.5t-31 -71t-76 -30t-75.5 30t-30.5 71zM205 717q0 43 30.5 73.5t75.5 30.5t76 -30.5t31 -73.5t-31 -74t-76 -31t-75.5 31t-30.5 74zM205 512q0 41 30.5 70.5t75.5 29.5t76 -29.5t31 -70.5q0 -43 -31 -72.5t-76 -29.5t-75.5 29.5t-30.5 72.5zM205 309q0 41 30.5 71 t75.5 30t76 -30t31 -71q0 -43 -31 -72.5t-76 -29.5t-75.5 29.5t-30.5 72.5zM823 1130q0 41 30 70t73 29t73.5 -29t30.5 -70t-30.5 -69.5t-73.5 -28.5t-73 28.5t-30 69.5zM817 305q0 41 31 69.5t74 28.5q41 0 71.5 -28.5t30.5 -69.5t-30.5 -69.5t-71.5 -28.5q-43 0 -74 28.5 t-31 69.5zM618 1335q0 41 30 70t73 29t73.5 -29t30.5 -70t-30.5 -69.5t-73.5 -28.5t-73 28.5t-30 69.5zM618 106q0 41 30 70t73 29t73.5 -29t30.5 -70t-30.5 -69.5t-73.5 -28.5t-73 28.5t-30 69.5z" />
<glyph unicode="D" d="M0 1329q0 41 30.5 69.5t73.5 28.5t74 -28.5t31 -69.5q0 -43 -31 -71.5t-74 -28.5t-73.5 28.5t-30.5 71.5zM209 1329q0 41 29.5 69.5t72.5 28.5q41 0 71 -28.5t30 -69.5q0 -43 -30 -71.5t-71 -28.5q-43 0 -72.5 28.5t-29.5 71.5zM416 1331q0 41 30.5 71t73.5 30t75 -30 t32 -71q0 -43 -32 -71.5t-75 -28.5t-73.5 28.5t-30.5 71.5zM623 1126q0 41 29.5 71t72.5 30q41 0 70.5 -30t29.5 -71q0 -43 -29.5 -72.5t-70.5 -29.5q-43 0 -72.5 29.5t-29.5 72.5zM614 922q0 43 31 72.5t76 29.5q43 0 73.5 -29.5t30.5 -72.5t-30.5 -73t-73.5 -30 q-45 0 -76 30t-31 73zM614 719q0 41 31 70.5t74 29.5q41 0 71.5 -29.5t30.5 -70.5q0 -43 -30.5 -73t-71.5 -30q-43 0 -74 30t-31 73zM610 514q0 43 31 72.5t76 29.5q43 0 73.5 -29.5t30.5 -72.5t-30.5 -72.5t-73.5 -29.5q-45 0 -76 29.5t-31 72.5zM610 307q0 43 31 74t76 31 q43 0 73.5 -31t30.5 -74t-30.5 -73.5t-73.5 -30.5q-45 0 -76 30.5t-31 73.5zM0 100q0 41 30.5 70t73.5 29t74 -29t31 -70q0 -43 -31 -71.5t-74 -28.5t-73.5 28.5t-30.5 71.5zM209 100q0 41 29.5 70t70.5 29t71 -29t30 -70q0 -43 -30 -71.5t-71 -28.5t-70.5 28.5t-29.5 71.5z M406 96q0 41 30.5 70t73.5 29t72.5 -29t29.5 -70q0 -43 -29.5 -71.5t-72.5 -28.5t-73.5 29.5t-30.5 70.5zM0 309q0 41 30.5 70t73.5 29t74 -29t31 -70q0 -43 -31 -71.5t-74 -28.5t-73.5 28.5t-30.5 71.5zM0 510q0 41 30.5 70.5t73.5 29.5t74 -29.5t31 -70.5q0 -43 -31 -72.5 t-74 -29.5t-73.5 29.5t-30.5 72.5zM0 713q0 43 30.5 72.5t75.5 29.5q43 0 74 -29.5t31 -72.5t-30.5 -73t-74.5 -30q-45 0 -75.5 30t-30.5 73zM0 918q0 41 30.5 70.5t75.5 29.5q43 0 74 -30t31 -70q0 -43 -30.5 -73t-74.5 -30q-45 0 -75.5 30t-30.5 73zM0 1120q0 41 30.5 71 t73.5 30q41 0 72 -30t31 -71q0 -43 -31 -72.5t-72 -29.5q-43 0 -73.5 29.5t-30.5 72.5zM213 1126q0 41 29.5 71t72.5 30q41 0 71 -30t30 -71q0 -43 -30 -72.5t-71 -29.5q-43 0 -72.5 29.5t-29.5 72.5zM205 922q0 43 30.5 72.5t75.5 29.5q43 0 74 -29.5t31 -72.5t-31 -73 t-74 -30q-45 0 -75.5 30t-30.5 73zM205 719q0 41 30.5 70.5t73.5 29.5q41 0 72 -29.5t31 -70.5q0 -43 -31 -73t-72 -30q-43 0 -73.5 30t-30.5 73zM201 514q0 43 30.5 72.5t75.5 29.5q43 0 74 -29.5t31 -72.5t-31 -72.5t-74 -29.5q-45 0 -75.5 29.5t-30.5 72.5zM201 307 q0 43 30.5 74t75.5 31q43 0 74 -31t31 -74t-31 -73.5t-74 -30.5q-45 0 -75.5 30.5t-30.5 73.5zM827 1126q0 41 30 71t73 30q41 0 70.5 -30t29.5 -71q0 -43 -29.5 -72.5t-70.5 -29.5q-43 0 -73 29.5t-30 72.5zM819 922q0 43 31 72.5t76 29.5q43 0 73.5 -29.5t30.5 -72.5 t-30.5 -73t-73.5 -30q-45 0 -76 30t-31 73zM819 719q0 41 31 70.5t74 29.5q41 0 71.5 -29.5t30.5 -70.5q0 -43 -30.5 -73t-71.5 -30q-43 0 -74 30t-31 73zM815 514q0 43 31 72.5t76 29.5q43 0 73.5 -29.5t30.5 -72.5t-30.5 -72.5t-73.5 -29.5q-45 0 -76 29.5t-31 72.5z M815 307q0 43 31 74t76 31q43 0 73.5 -31t30.5 -74t-30.5 -73.5t-73.5 -30.5q-45 0 -76 30.5t-31 73.5zM610 96q0 41 31 70t74 29t72.5 -29t29.5 -70q0 -43 -29.5 -71.5t-72.5 -28.5t-74 29.5t-31 70.5zM621 1331q0 41 30.5 71t73.5 30t74.5 -30t31.5 -71q0 -43 -31.5 -71.5 t-74.5 -28.5t-73.5 28.5t-30.5 71.5z" />
<glyph unicode="E" d="M0 1327q0 41 30.5 70.5t73.5 29.5q41 0 72 -29.5t31 -70.5t-31 -70.5t-72 -29.5q-43 0 -73.5 29.5t-30.5 70.5zM207 1327q0 41 30.5 70.5t73.5 29.5q41 0 72 -29.5t31 -70.5t-31 -70.5t-72 -29.5q-43 0 -73.5 29.5t-30.5 70.5zM414 1327q0 41 29.5 70.5t72.5 29.5 q41 0 70.5 -29.5t29.5 -70.5t-29.5 -70.5t-70.5 -29.5q-43 0 -72.5 29.5t-29.5 70.5zM616 1327q0 41 31 70.5t74 29.5t73.5 -29.5t30.5 -70.5t-30.5 -70.5t-73.5 -29.5t-74 29.5t-31 70.5zM0 1126q0 41 30.5 71t73.5 30t74 -30t31 -71t-31 -70.5t-74 -29.5t-73.5 29.5 t-30.5 70.5zM-2 928q0 41 30.5 70.5t73.5 29.5t74 -29.5t31 -70.5q0 -43 -31 -73t-74 -30t-73.5 30t-30.5 73zM0 723q0 41 29.5 70.5t72.5 29.5t73 -29.5t30 -70.5q0 -43 -30 -72.5t-73 -29.5t-72.5 29.5t-29.5 72.5zM0 516q0 43 29.5 74t72.5 31t73 -31t30 -74 q0 -45 -30 -75.5t-73 -30.5t-72.5 30.5t-29.5 75.5zM0 309q0 41 29.5 71t72.5 30t73 -30t30 -71q0 -43 -30 -72.5t-73 -29.5t-72.5 29.5t-29.5 72.5zM0 104q0 41 29.5 72t72.5 31t73 -31t30 -72q0 -43 -30 -73.5t-73 -30.5t-72.5 30.5t-29.5 73.5zM205 100q0 41 30.5 71 t75.5 30q43 0 74 -30t31 -71t-31 -70.5t-74 -29.5q-45 0 -75.5 29.5t-30.5 70.5zM416 100q0 41 28.5 71t71.5 30q41 0 69.5 -30t28.5 -71t-28.5 -70.5t-69.5 -29.5q-43 0 -71.5 29.5t-28.5 70.5zM614 102q0 41 31 71t76 30q43 0 73.5 -30t30.5 -71q0 -43 -30.5 -72.5 t-73.5 -29.5q-45 0 -76 29.5t-31 72.5zM203 717q0 45 30.5 75.5t75.5 30.5t76 -30.5t31 -75.5t-31 -76t-76 -31t-75.5 31t-30.5 76zM416 715q0 41 29.5 71.5t72.5 30.5q41 0 70.5 -30.5t29.5 -71.5q0 -43 -29.5 -74t-70.5 -31q-43 0 -72.5 31t-29.5 74zM203 928 q0 41 30.5 70.5t73.5 29.5t74 -29.5t31 -70.5q0 -43 -31 -73t-74 -30t-73.5 30t-30.5 73zM203 1133q0 41 30.5 70.5t73.5 29.5t74 -29.5t31 -70.5q0 -43 -31 -73t-74 -30t-73.5 30t-30.5 73zM203 518q0 41 30.5 70.5t73.5 29.5t74 -29.5t31 -70.5q0 -43 -31 -72.5t-74 -29.5 t-73.5 29.5t-30.5 72.5zM203 313q0 41 30.5 71t73.5 30t74 -30t31 -71q0 -43 -31 -72.5t-74 -29.5t-73.5 29.5t-30.5 72.5zM612 723q0 41 31 70.5t74 29.5t73.5 -29.5t30.5 -70.5q0 -43 -30.5 -72.5t-73.5 -29.5t-74 29.5t-31 72.5zM817 1337q0 41 31 71t74 30t73.5 -30 t30.5 -71q0 -43 -30.5 -72.5t-73.5 -29.5t-74 29.5t-31 72.5zM817 109q0 41 31 70.5t74 29.5t73.5 -29.5t30.5 -70.5q0 -43 -30.5 -73t-73.5 -30t-74 30t-31 73z" />
<glyph unicode="F" d="M0 1327q0 41 30.5 70.5t73.5 29.5t74 -29.5t31 -70.5t-31 -70.5t-74 -29.5t-73.5 29.5t-30.5 70.5zM209 1327q0 41 29.5 70.5t72.5 29.5t73 -29.5t30 -70.5t-30 -70.5t-73 -29.5t-72.5 29.5t-29.5 70.5zM414 1327q0 41 29.5 70.5t70.5 29.5t70.5 -29.5t29.5 -70.5 q0 -43 -29.5 -72.5t-70.5 -29.5t-70.5 29.5t-29.5 72.5zM614 1327q0 41 31 70.5t74 29.5q41 0 71.5 -29.5t30.5 -70.5q0 -43 -30.5 -72.5t-71.5 -29.5q-43 0 -74 29.5t-31 72.5zM0 1126q0 41 30.5 70t73.5 29q41 0 72 -29t31 -70t-31 -69.5t-72 -28.5q-43 0 -73.5 28.5 t-30.5 69.5zM0 926q0 41 30.5 71.5t73.5 30.5q41 0 72 -30.5t31 -71.5q0 -43 -31 -74t-72 -31q-43 0 -73.5 31t-30.5 74zM0 721q0 41 30.5 70.5t73.5 29.5q41 0 72 -29.5t31 -70.5q0 -43 -31 -73t-72 -30q-43 0 -73.5 30t-30.5 73zM207 717q0 39 29.5 67.5t72.5 28.5 t73 -28.5t30 -67.5q0 -41 -30 -70t-73 -29t-72.5 29t-29.5 70zM412 715q0 41 30.5 69.5t75.5 28.5q43 0 74 -28.5t31 -69.5q0 -43 -31 -72t-74 -29q-45 0 -75.5 29t-30.5 72zM0 508q0 41 30.5 70.5t73.5 29.5q41 0 72 -29.5t31 -70.5t-31 -70.5t-72 -29.5q-43 0 -73.5 29.5 t-30.5 70.5zM0 305q0 43 30.5 73t73.5 30q41 0 72 -30t31 -73t-31 -72.5t-72 -29.5q-43 0 -73.5 29.5t-30.5 72.5zM0 102q0 41 30.5 71t75.5 30q43 0 74 -30t31 -71q0 -43 -30.5 -72.5t-74.5 -29.5q-45 0 -75.5 29.5t-30.5 72.5zM309 408zM199 305q0 43 30.5 73t73.5 30 t73 -30t30 -73t-30 -72.5t-73 -29.5t-73.5 29.5t-30.5 72.5zM205 102q0 41 30.5 71t75.5 30q43 0 74 -30t31 -71q0 -43 -31 -72.5t-74 -29.5q-45 0 -75.5 29.5t-30.5 72.5zM309 1227zM205 1124q0 43 30.5 73t73.5 30q41 0 72 -30t31 -73t-31 -72.5t-72 -29.5 q-43 0 -73.5 29.5t-30.5 72.5zM205 922q0 41 30.5 70.5t75.5 29.5q43 0 74 -29.5t31 -70.5q0 -43 -31 -73t-74 -30q-45 0 -75.5 30t-30.5 73zM199 510q0 43 30.5 72.5t73.5 29.5t73 -29.5t30 -72.5t-30 -72.5t-73 -29.5t-73.5 29.5t-30.5 72.5zM629 715q0 43 30.5 72.5 t73.5 29.5t73 -29.5t30 -72.5t-30 -73t-73 -30t-73.5 30t-30.5 73zM813 1329q0 43 30.5 73t74.5 30q43 0 72.5 -30t29.5 -73t-29.5 -72.5t-72.5 -29.5t-74 29.5t-31 72.5z" />
<glyph unicode="G" d="M205 1126q0 41 30.5 71t75.5 30t76 -30t31 -71t-31 -70.5t-76 -29.5t-75.5 29.5t-30.5 70.5zM205 922q0 43 30.5 73.5t75.5 30.5t76 -30.5t31 -73.5t-31 -74t-76 -31t-75.5 31t-30.5 74zM205 717q0 41 30.5 70.5t73.5 29.5t74 -29.5t31 -70.5q0 -43 -31 -73t-74 -30 t-73.5 30t-30.5 73zM205 510q0 43 30.5 73.5t73.5 30.5t74 -30.5t31 -73.5t-31 -73.5t-74 -30.5t-73.5 30.5t-30.5 73.5zM205 303q0 43 29.5 73t72.5 30t73 -30t30 -73t-30 -72.5t-73 -29.5t-72.5 29.5t-29.5 72.5zM410 100q0 41 30.5 71t75.5 30q43 0 74 -30t31 -71 t-31 -70.5t-74 -29.5q-45 0 -75.5 29.5t-30.5 70.5zM621 100q0 41 28.5 71t71.5 30q41 0 69.5 -30t28.5 -71t-28.5 -70.5t-69.5 -29.5q-43 0 -71.5 29.5t-28.5 70.5zM819 100q0 41 31 71t74 30q41 0 71.5 -30t30.5 -71t-30.5 -70.5t-71.5 -29.5q-43 0 -74 29.5t-31 70.5z M815 303q0 41 31 70.5t74 29.5q41 0 71.5 -29.5t30.5 -70.5t-30.5 -70.5t-71.5 -29.5q-43 0 -74 29.5t-31 70.5zM815 506q0 43 31 72.5t76 29.5q43 0 73.5 -29.5t30.5 -72.5t-30.5 -73t-73.5 -30q-45 0 -76 30t-31 73zM815 711q0 43 31 72.5t76 29.5q43 0 73.5 -29.5 t30.5 -72.5t-30.5 -73t-73.5 -30q-45 0 -76 30t-31 73zM610 713q0 41 30 70.5t73 29.5t72.5 -29.5t29.5 -70.5t-29.5 -71t-72.5 -30t-73 30t-30 71zM401 1327q0 41 31 70.5t76 29.5q43 0 73.5 -29.5t30.5 -70.5q0 -43 -30.5 -72.5t-73.5 -29.5q-45 0 -76 29.5t-31 72.5z M618 1329q0 41 30 69.5t73 28.5q41 0 70.5 -28.5t29.5 -69.5t-29.5 -69.5t-70.5 -28.5q-43 0 -73 28.5t-30 69.5zM815 1130q0 43 31 74t76 31t75.5 -30.5t30.5 -74.5q0 -45 -30.5 -75.5t-75.5 -30.5t-76 30.5t-31 75.5zM0 1126q0 41 30.5 71t75.5 30t76 -30t31 -71 t-30.5 -70.5t-76.5 -29.5q-45 0 -75.5 29.5t-30.5 70.5zM0 922q0 43 30.5 73.5t75.5 30.5t76 -30.5t31 -73.5t-30.5 -74t-76.5 -31q-45 0 -75.5 31t-30.5 74zM0 717q0 41 30.5 70.5t73.5 29.5t74 -29.5t31 -70.5q0 -43 -31 -73t-74 -30t-73.5 30t-30.5 73zM0 510 q0 43 30.5 73.5t73.5 30.5t74 -30.5t31 -73.5t-31 -73.5t-74 -30.5t-73.5 30.5t-30.5 73.5zM0 303q0 43 29.5 73t72.5 30t73 -30t30 -73t-30 -72.5t-73 -29.5t-72.5 29.5t-29.5 72.5zM610 1130q0 43 31 74t76 31t75.5 -30.5t30.5 -74.5q0 -45 -30.5 -75.5t-75.5 -30.5 t-76 30.5t-31 75.5zM610 516q0 43 31 74t76 31t75.5 -31t30.5 -74q0 -45 -30.5 -75.5t-75.5 -30.5t-76 30.5t-31 75.5zM610 311q0 43 31 74t76 31t75.5 -31t30.5 -74q0 -45 -30.5 -75.5t-75.5 -30.5t-76 30.5t-31 75.5zM201 1335q0 43 30.5 74t75.5 31t76 -31t31 -74 q0 -45 -31 -75.5t-76 -30.5t-75.5 30.5t-30.5 75.5zM201 106q0 43 30.5 74t75.5 31t76 -30.5t31 -74.5q0 -45 -31 -75.5t-76 -30.5t-75.5 30.5t-30.5 75.5z" />
<glyph unicode="H" d="M0 1329q0 41 30.5 69.5t75.5 28.5q43 0 74 -28.5t31 -69.5q0 -43 -30.5 -71.5t-74.5 -28.5q-45 0 -75.5 28.5t-30.5 71.5zM0 1128q0 41 30.5 71t75.5 30q43 0 74 -30t31 -71q0 -43 -30.5 -72.5t-74.5 -29.5q-45 0 -75.5 29.5t-30.5 72.5zM0 922q0 43 30.5 73.5t73.5 30.5 q41 0 72 -30.5t31 -73.5t-31 -74t-72 -31q-43 0 -73.5 31t-30.5 74zM0 715q0 43 30.5 72.5t73.5 29.5q41 0 72 -29.5t31 -72.5t-31 -73t-72 -30q-43 0 -73.5 30t-30.5 73zM0 512q0 41 30.5 70.5t73.5 29.5q41 0 72 -29.5t31 -70.5t-31 -70.5t-72 -29.5q-43 0 -73.5 29.5 t-30.5 70.5zM0 309q0 43 30.5 74t73.5 31q41 0 72 -31t31 -74t-31 -73.5t-72 -30.5q-43 0 -73.5 30.5t-30.5 73.5zM0 102q0 43 30.5 73t73.5 30t74 -30t31 -73t-31 -72.5t-74 -29.5t-73.5 29.5t-30.5 72.5zM209 715q0 39 28.5 67.5t69.5 28.5t71 -28.5t30 -67.5 q0 -41 -30 -70t-71 -29t-69.5 29t-28.5 70zM412 715q0 39 30.5 67.5t75.5 28.5q43 0 74 -28.5t31 -67.5q0 -41 -31 -70t-74 -29q-45 0 -75.5 29t-30.5 70zM623 713q0 41 28.5 69.5t71.5 28.5q41 0 69.5 -28.5t28.5 -69.5q0 -43 -28.5 -72t-69.5 -29q-43 0 -71.5 29t-28.5 72 zM614 512q0 41 31 70.5t74 29.5q41 0 71.5 -29.5t30.5 -70.5q0 -43 -30.5 -72.5t-71.5 -29.5q-43 0 -74 29.5t-31 72.5zM614 309q0 41 30 71t73 30t72.5 -30t29.5 -71q0 -43 -29.5 -72.5t-72.5 -29.5t-73 29.5t-30 72.5zM614 104q0 41 30 72t71 31q43 0 72.5 -31t29.5 -72 q0 -43 -29.5 -73.5t-72.5 -30.5q-41 0 -71 30.5t-30 73.5zM612 1329q0 41 30 69.5t73 28.5q41 0 70.5 -28.5t29.5 -69.5q0 -43 -29.5 -71.5t-70.5 -28.5q-43 0 -73 28.5t-30 71.5zM614 1126q0 41 31 72t76 31q43 0 73.5 -31t30.5 -72q0 -43 -30.5 -73.5t-73.5 -30.5 q-45 0 -76 30.5t-31 73.5zM618 920q0 43 31 72.5t74 29.5q41 0 71.5 -29.5t30.5 -72.5t-30.5 -73t-71.5 -30q-43 0 -74 30t-31 73zM205 1329q0 41 30.5 69.5t75.5 28.5q43 0 74 -28.5t31 -69.5q0 -43 -31 -71.5t-74 -28.5q-45 0 -75.5 28.5t-30.5 71.5zM205 1128 q0 41 30.5 71t75.5 30q43 0 74 -30t31 -71q0 -43 -31 -72.5t-74 -29.5q-45 0 -75.5 29.5t-30.5 72.5zM205 924q0 43 30.5 73.5t73.5 30.5q41 0 72 -30.5t31 -73.5q0 -45 -31 -75t-72 -30q-43 0 -73.5 30t-30.5 75zM209 510q0 39 28.5 67.5t69.5 28.5t71 -28.5t30 -67.5 q0 -41 -30 -69.5t-71 -28.5t-69.5 28.5t-28.5 69.5zM209 305q0 39 28.5 67.5t69.5 28.5t71 -28.5t30 -67.5q0 -41 -30 -69.5t-71 -28.5t-69.5 28.5t-28.5 69.5zM209 100q0 39 28.5 68t69.5 29t71 -29t30 -68q0 -41 -30 -69.5t-71 -28.5t-69.5 28.5t-28.5 69.5zM827 715z M827 713q0 41 29 69.5t72 28.5q41 0 69.5 -28.5t28.5 -69.5q0 -43 -28.5 -72t-69.5 -29q-43 0 -72 29t-29 72zM819 512q0 41 31 70.5t74 29.5q41 0 71.5 -29.5t30.5 -70.5q0 -43 -30.5 -72.5t-71.5 -29.5q-43 0 -74 29.5t-31 72.5zM819 309q0 41 30 71t73 30t72.5 -30 t29.5 -71q0 -43 -29.5 -72.5t-72.5 -29.5t-73 29.5t-30 72.5zM817 1329q0 41 30 69.5t73 28.5q41 0 70.5 -28.5t29.5 -69.5q0 -43 -29.5 -71.5t-70.5 -28.5q-43 0 -73 28.5t-30 71.5zM819 1126q0 41 31 72t76 31q43 0 73.5 -31t30.5 -72q0 -43 -30.5 -73.5t-73.5 -30.5 q-45 0 -76 30.5t-31 73.5zM823 920q0 43 31 72.5t74 29.5q41 0 71.5 -29.5t30.5 -72.5t-30.5 -73t-71.5 -30q-43 0 -74 30t-31 73zM819 104q0 41 30 72t71 31q43 0 72.5 -31t29.5 -72q0 -43 -29.5 -73.5t-72.5 -30.5q-41 0 -71 30.5t-30 73.5z" />
<glyph unicode="I" horiz-adv-x="1024" d="M0 1329q0 41 30.5 69.5t75.5 28.5q43 0 74 -28.5t31 -69.5t-30.5 -69.5t-74.5 -28.5q-45 0 -75.5 28.5t-30.5 69.5zM211 1329q0 41 29.5 69.5t72.5 28.5t73 -28.5t30 -69.5t-30 -69.5t-73 -28.5t-72.5 28.5t-29.5 69.5zM623 1329q0 41 29.5 69.5t72.5 28.5 q41 0 71.5 -28.5t30.5 -69.5t-30.5 -69.5t-71.5 -28.5q-43 0 -72.5 28.5t-29.5 69.5zM203 1122q0 45 30.5 76t73.5 31q41 0 72 -31t31 -76t-31 -75.5t-72 -30.5q-43 0 -73.5 30.5t-30.5 75.5zM203 918q0 41 31.5 69.5t76.5 28.5q43 0 75 -29t32 -69q0 -43 -32 -72t-75 -29 q-45 0 -76.5 29t-31.5 72zM203 717q0 41 31.5 70.5t76.5 29.5q43 0 75 -29.5t32 -70.5t-32 -71t-75 -30q-45 0 -76.5 30t-31.5 71zM203 514q0 41 30.5 71.5t73.5 30.5t74 -30.5t31 -71.5q0 -43 -31 -73.5t-74 -30.5t-73.5 30.5t-30.5 73.5zM201 307q0 41 30.5 72t75.5 31 q43 0 74 -31t31 -72q0 -43 -31 -73.5t-74 -30.5q-45 0 -75.5 30.5t-30.5 73.5zM0 100q0 41 30.5 70t73.5 29t74 -29t31 -70q0 -43 -31 -71.5t-74 -28.5t-73.5 28.5t-30.5 71.5zM209 100q0 41 29.5 70t70.5 29t71 -29t30 -70q0 -43 -30 -71.5t-71 -28.5t-70.5 28.5 t-29.5 71.5zM410 98q0 41 30.5 70t73.5 29q41 0 71.5 -29t30.5 -70t-30.5 -69.5t-71.5 -28.5q-43 0 -73.5 28.5t-30.5 69.5zM410 1122q0 45 29.5 76t72.5 31t73.5 -31t30.5 -76t-30.5 -75.5t-73.5 -30.5t-72.5 30.5t-29.5 75.5zM408 918q0 41 31.5 69.5t76.5 28.5 q43 0 75 -29t32 -69q0 -43 -32 -72t-75 -29q-45 0 -76.5 29t-31.5 72zM408 717q0 41 31.5 70.5t76.5 29.5q43 0 75 -29.5t32 -70.5t-32 -71t-75 -30q-45 0 -76.5 30t-31.5 71zM408 514q0 41 30.5 71.5t73.5 30.5t73.5 -30.5t30.5 -71.5q0 -43 -30.5 -73.5t-73.5 -30.5 t-73.5 30.5t-30.5 73.5zM406 307q0 41 30.5 72t75.5 31q43 0 73.5 -31t30.5 -72q0 -43 -30.5 -73.5t-73.5 -30.5q-45 0 -75.5 30.5t-30.5 73.5zM418 1329q0 41 29.5 69.5t72.5 28.5q41 0 72 -28.5t31 -69.5t-31 -69.5t-72 -28.5q-43 0 -72.5 28.5t-29.5 69.5zM623 100 q0 41 29.5 70t72.5 29q41 0 71.5 -29t30.5 -70t-30.5 -69.5t-71.5 -28.5q-43 0 -72.5 28.5t-29.5 69.5z" />
<glyph unicode="J" d="M-199 -102q0 43 29 72.5t70 29.5q43 0 71.5 -29.5t28.5 -72.5t-28.5 -73t-71.5 -30q-41 0 -70 30t-29 73zM0 -307q0 43 30.5 71.5t73.5 28.5t74 -28.5t31 -71.5q0 -41 -31 -70t-74 -29t-73.5 29t-30.5 70zM209 -307q0 43 29.5 71.5t72.5 28.5q41 0 71 -28.5t30 -71.5 q0 -41 -30 -70t-71 -29q-43 0 -72.5 29t-29.5 70zM416 -104q0 43 29.5 73.5t72.5 30.5t73 -30.5t30 -73.5q0 -41 -30 -72t-73 -31t-72.5 31t-29.5 72zM401 102q0 41 32 71t79 30q45 0 77 -30t32 -71q0 -43 -32 -72.5t-77 -29.5q-47 0 -79 29.5t-32 72.5zM401 307q0 41 33 72 t78 31t78 -31t33 -72q0 -43 -33 -73.5t-78 -30.5t-78 30.5t-33 73.5zM401 510q0 41 33 69.5t78 28.5t78 -28.5t33 -69.5q0 -43 -33 -71.5t-78 -28.5t-78 28.5t-33 71.5zM401 715q0 43 33 73.5t80 30.5t80 -30.5t33 -73.5q0 -45 -33 -76t-80 -31t-80 31t-33 76zM401 922 q0 41 33 70.5t80 29.5t80 -29.5t33 -70.5q0 -43 -33 -73t-80 -30t-80 30t-33 73zM403 1124q0 43 33 73t80 30q45 0 78 -30t33 -73t-33 -72.5t-78 -29.5q-47 0 -80 29.5t-33 72.5zM616 1327q0 43 30 71.5t73 28.5q41 0 70.5 -28.5t29.5 -71.5q0 -41 -29.5 -70.5t-70.5 -29.5 q-43 0 -73 29.5t-30 70.5zM412 1329q0 41 28.5 69.5t71.5 28.5q41 0 69.5 -28.5t28.5 -69.5t-28.5 -69.5t-69.5 -28.5q-43 0 -71.5 28.5t-28.5 69.5zM201 1329q0 41 30.5 69.5t75.5 28.5q43 0 74 -28.5t31 -69.5t-31 -69.5t-74 -28.5q-45 0 -75.5 28.5t-30.5 69.5zM621 -106 q0 43 29.5 72.5t72.5 29.5t72.5 -29.5t29.5 -72.5t-29.5 -74t-72.5 -31t-72.5 31t-29.5 74zM627 102q0 41 31.5 71t78.5 30q45 0 77 -30t32 -71q0 -43 -32 -72.5t-77 -29.5q-47 0 -78.5 29.5t-31.5 72.5zM627 307q0 41 32.5 72t77.5 31t78 -31t33 -72q0 -43 -33 -73.5 t-78 -30.5t-77.5 30.5t-32.5 73.5zM627 510q0 41 32.5 69.5t77.5 28.5t78 -28.5t33 -69.5q0 -43 -33 -71.5t-78 -28.5t-77.5 28.5t-32.5 71.5zM627 715q0 43 32.5 73.5t79.5 30.5t80 -30.5t33 -73.5q0 -45 -33 -76t-80 -31t-79.5 31t-32.5 76zM627 922q0 41 32.5 70.5 t79.5 29.5t80 -29.5t33 -70.5q0 -43 -33 -73t-80 -30t-79.5 30t-32.5 73zM629 1124q0 43 32.5 73t79.5 30q45 0 78 -30t33 -73t-33 -72.5t-78 -29.5q-47 0 -79.5 29.5t-32.5 72.5zM6 -106q0 43 30 72.5t73 29.5t72.5 -29.5t29.5 -72.5t-29.5 -74t-72.5 -31t-73 31t-30 74z M416 -311q0 43 29.5 72.5t72.5 29.5t73 -29.5t30 -72.5t-30 -74t-73 -31t-72.5 31t-29.5 74zM825 1327q0 43 30 73t73 30t72.5 -30t29.5 -73t-29.5 -73.5t-72.5 -30.5t-73 30.5t-30 73.5z" />
<glyph unicode="K" d="M0 1329q0 41 30.5 69.5t73.5 28.5t74 -28.5t31 -69.5t-31 -69.5t-74 -28.5t-73.5 28.5t-30.5 69.5zM0 1126q0 43 30.5 74t73.5 31t74 -31t31 -74t-31 -73.5t-74 -30.5t-73.5 30.5t-30.5 73.5zM0 922q0 41 30.5 70.5t73.5 29.5t74 -29.5t31 -70.5t-31 -71t-74 -30 t-73.5 30t-30.5 71zM0 717q0 43 30.5 73.5t73.5 30.5t74 -30.5t31 -73.5q0 -45 -31 -76t-74 -31t-73.5 31t-30.5 76zM0 508q0 43 30.5 72.5t73.5 29.5t74 -29.5t31 -72.5t-31 -72.5t-74 -29.5t-73.5 29.5t-30.5 72.5zM0 305q0 41 30.5 71t73.5 30t74 -30t31 -71t-31 -70.5 t-74 -29.5t-73.5 29.5t-30.5 70.5zM0 102q0 43 30.5 73t75.5 30q43 0 74 -30t31 -73t-30.5 -72.5t-74.5 -29.5q-45 0 -75.5 29.5t-30.5 72.5zM211 717q0 45 29.5 75.5t72.5 30.5q41 0 71 -30.5t30 -75.5t-30 -76t-71 -31q-43 0 -72.5 31t-29.5 76zM414 508q0 41 30.5 71.5 t73.5 30.5q41 0 72 -30.5t31 -71.5q0 -43 -31 -74t-72 -31q-43 0 -73.5 31t-30.5 74zM621 305q0 41 30.5 69.5t73.5 28.5q41 0 71.5 -28.5t30.5 -69.5q0 -43 -30.5 -71.5t-71.5 -28.5q-43 0 -73.5 28.5t-30.5 71.5zM612 102q0 43 32 73t77 30q43 0 74.5 -30t31.5 -73 t-31.5 -72.5t-74.5 -29.5q-45 0 -77 29.5t-32 72.5zM403 922q0 41 31 70.5t76 29.5q43 0 73.5 -29.5t30.5 -70.5q0 -43 -30.5 -73t-73.5 -30q-45 0 -76 30t-31 73zM614 1126q0 41 31 72t74 31t73.5 -31t30.5 -72q0 -43 -30.5 -73.5t-73.5 -30.5t-74 30.5t-31 73.5zM614 1329 q0 41 31 69.5t74 28.5t73.5 -28.5t30.5 -69.5q0 -43 -30.5 -71.5t-73.5 -28.5t-74 28.5t-31 71.5zM614 1329q0 41 31 69.5t74 28.5t73.5 -28.5t30.5 -69.5q0 -43 -30.5 -71.5t-73.5 -28.5t-74 28.5t-31 71.5zM819 1126q0 41 31 72t74 31t73.5 -31t30.5 -72 q0 -43 -30.5 -73.5t-73.5 -30.5t-74 30.5t-31 73.5zM819 1329q0 41 31 69.5t74 28.5t73.5 -28.5t30.5 -69.5q0 -43 -30.5 -71.5t-73.5 -28.5t-74 28.5t-31 71.5zM819 1329q0 41 31 69.5t74 28.5t73.5 -28.5t30.5 -69.5q0 -43 -30.5 -71.5t-73.5 -28.5t-74 28.5t-31 71.5z M819 102q0 41 31 72t74 31t73.5 -31t30.5 -72q0 -43 -30.5 -73.5t-73.5 -30.5t-74 30.5t-31 73.5zM819 305q0 41 31 69.5t74 28.5t73.5 -28.5t30.5 -69.5q0 -43 -30.5 -71.5t-73.5 -28.5t-74 28.5t-31 71.5zM819 102q0 41 31 72t74 31t73.5 -31t30.5 -72h-209zM819 305 q0 41 31 69.5t74 28.5t73.5 -28.5t30.5 -69.5q0 -43 -30.5 -71.5t-73.5 -28.5t-74 28.5t-31 71.5zM205 1126q0 41 30.5 72t73.5 31t74 -31t31 -72q0 -43 -31 -73.5t-74 -30.5t-73.5 30.5t-30.5 73.5zM205 1329q0 41 30.5 69.5t73.5 28.5t74 -28.5t31 -69.5q0 -43 -31 -71.5 t-74 -28.5t-73.5 28.5t-30.5 71.5zM205 1329q0 41 30.5 69.5t73.5 28.5t74 -28.5t31 -69.5q0 -43 -31 -71.5t-74 -28.5t-73.5 28.5t-30.5 71.5zM205 307q0 41 30.5 72t73.5 31t74 -31t31 -72q0 -43 -31 -73.5t-74 -30.5t-73.5 30.5t-30.5 73.5zM205 510q0 41 30.5 69.5 t73.5 28.5t74 -28.5t31 -69.5q0 -43 -31 -71.5t-74 -28.5t-73.5 28.5t-30.5 71.5zM205 307q0 41 30.5 72t73.5 31t74 -31t31 -72h-209zM205 510q0 41 30.5 69.5t73.5 28.5t74 -28.5t31 -69.5q0 -43 -31 -71.5t-74 -28.5t-73.5 28.5t-30.5 71.5zM199 922q0 41 30.5 70.5 t75.5 29.5q43 0 74 -29.5t31 -70.5q0 -43 -31 -73t-74 -30q-45 0 -75.5 30t-30.5 73zM199 102q0 41 30.5 71t75.5 30q43 0 74 -30t31 -71q0 -43 -31 -72.5t-74 -29.5q-45 0 -75.5 29.5t-30.5 72.5zM608 922q0 41 31 70.5t76 29.5q43 0 73.5 -29.5t30.5 -70.5 q0 -43 -30.5 -73t-73.5 -30q-45 0 -76 30t-31 73zM629 512q0 41 30.5 70.5t75.5 29.5q43 0 75 -29.5t30 -70.5t-33 -71.5t-72 -30.5q-45 0 -75.5 29.5t-30.5 72.5zM403 717q0 41 31 70.5t76 29.5q43 0 73.5 -29.5t30.5 -70.5q0 -43 -30.5 -73t-73.5 -30q-45 0 -76 30t-31 73 z" />
<glyph unicode="L" d="M0 1327q0 41 30.5 70.5t75.5 29.5q43 0 74 -29.5t31 -70.5q0 -43 -30.5 -72.5t-74.5 -29.5q-45 0 -75.5 29.5t-30.5 72.5zM0 1122q0 41 30.5 72t75.5 31q43 0 74 -31t31 -72q0 -43 -30.5 -73.5t-74.5 -30.5q-45 0 -75.5 30.5t-30.5 73.5zM0 920q0 41 30.5 69.5t75.5 28.5 t76 -28.5t31 -69.5t-30.5 -70t-76.5 -29q-45 0 -75.5 29t-30.5 70zM0 719q0 41 30.5 71.5t75.5 30.5t76 -30.5t31 -71.5q0 -43 -30.5 -74t-76.5 -31q-45 0 -75.5 31t-30.5 74zM0 512q0 43 30.5 72.5t75.5 29.5q43 0 74 -29.5t31 -72.5t-30.5 -72.5t-74.5 -29.5 q-45 0 -75.5 29.5t-30.5 72.5zM0 307q0 41 30.5 72t75.5 31q43 0 74 -31t31 -72q0 -43 -30.5 -73.5t-74.5 -30.5q-45 0 -75.5 30.5t-30.5 73.5zM0 102q0 41 30.5 71t73.5 30q41 0 72 -30t31 -71q0 -43 -31 -72.5t-72 -29.5q-43 0 -73.5 29.5t-30.5 72.5zM207 100 q0 41 30.5 70t73.5 29q41 0 72 -29t31 -70q0 -43 -31 -71.5t-72 -28.5q-43 0 -73.5 28.5t-30.5 71.5zM414 100q0 41 29.5 70t72.5 29q41 0 70.5 -29t29.5 -70q0 -43 -29.5 -71.5t-70.5 -28.5q-43 0 -72.5 28.5t-29.5 71.5zM616 100q0 41 31 71t74 30t73.5 -30t30.5 -71 t-30.5 -70.5t-73.5 -29.5t-74 29.5t-31 70.5zM205 1327q0 41 30.5 70.5t75.5 29.5q43 0 74 -29.5t31 -70.5q0 -43 -31 -72.5t-74 -29.5q-45 0 -75.5 29.5t-30.5 72.5zM205 1122q0 41 30.5 72t75.5 31q43 0 74 -31t31 -72q0 -43 -31 -73.5t-74 -30.5q-45 0 -75.5 30.5 t-30.5 73.5zM205 920q0 41 30.5 69.5t75.5 28.5t76 -28.5t31 -69.5t-31 -70t-76 -29t-75.5 29t-30.5 70zM205 719q0 41 30.5 71.5t75.5 30.5t76 -30.5t31 -71.5q0 -43 -31 -74t-76 -31t-75.5 31t-30.5 74zM205 512q0 43 30.5 72.5t75.5 29.5q43 0 74 -29.5t31 -72.5 t-31 -72.5t-74 -29.5q-45 0 -75.5 29.5t-30.5 72.5zM213 305q0 41 30.5 72t73.5 31t75 -31t32 -72q0 -43 -32 -73.5t-75 -30.5t-73.5 30.5t-30.5 73.5zM827 100q0 41 31 72t74 31t74.5 -31t31.5 -72q0 -43 -31.5 -73.5t-74.5 -30.5t-74 30.5t-31 73.5z" />
<glyph unicode="M" horiz-adv-x="1433" d="M0 1329q0 41 30.5 69.5t75.5 28.5q43 0 74 -28.5t31 -69.5q0 -43 -30.5 -71.5t-74.5 -28.5q-45 0 -75.5 28.5t-30.5 71.5zM0 1126q0 41 30.5 72t75.5 31q43 0 74 -31t31 -72q0 -43 -30.5 -73.5t-74.5 -30.5q-45 0 -75.5 30.5t-30.5 73.5zM0 920q0 43 30.5 72.5t73.5 29.5 t74 -29.5t31 -72.5t-31 -73t-74 -30t-73.5 30t-30.5 73zM0 715q0 43 30.5 72.5t73.5 29.5t74 -29.5t31 -72.5t-31 -73t-74 -30t-73.5 30t-30.5 73zM0 510q0 41 30.5 71.5t73.5 30.5t74 -30.5t31 -71.5q0 -43 -31 -73.5t-74 -30.5t-73.5 30.5t-30.5 73.5zM0 303q0 43 30.5 73 t73.5 30t74 -30t31 -73t-31 -72.5t-74 -29.5t-73.5 29.5t-30.5 72.5zM0 100q0 41 30.5 71t73.5 30q41 0 72 -30t31 -71t-31 -70.5t-72 -29.5q-43 0 -73.5 29.5t-30.5 70.5zM207 1124q0 41 29.5 72t72.5 31t73 -31t30 -72q0 -43 -30 -73.5t-73 -30.5t-72.5 30.5t-29.5 73.5z M412 918q0 43 30.5 72.5t73.5 29.5q41 0 71.5 -29.5t30.5 -72.5t-30.5 -73t-71.5 -30q-43 0 -73.5 30t-30.5 73zM618 1120q0 43 30 73t73 30q41 0 70.5 -30t29.5 -73t-29.5 -72.5t-70.5 -29.5q-43 0 -73 29.5t-30 72.5zM821 1325q0 43 31 72.5t76 29.5q43 0 73.5 -29.5 t30.5 -72.5t-30.5 -72.5t-73.5 -29.5q-45 0 -76 29.5t-31 72.5zM823 1116q0 39 31 66.5t74 27.5t73.5 -27.5t30.5 -66.5t-30.5 -66.5t-73.5 -27.5t-74 27.5t-31 66.5zM815 920q0 43 32 72.5t77 29.5t76.5 -29.5t31.5 -72.5t-31.5 -73t-76.5 -30t-77 30t-32 73zM815 715 q0 43 31 72.5t74 29.5t73.5 -29.5t30.5 -72.5t-30.5 -73t-73.5 -30t-74 30t-31 73zM817 512q0 41 31 70.5t74 29.5q41 0 71.5 -29.5t30.5 -70.5q0 -43 -30.5 -72.5t-71.5 -29.5q-43 0 -74 29.5t-31 72.5zM817 305q0 43 31 74t76 31q43 0 73.5 -31t30.5 -74 q0 -45 -30.5 -75.5t-73.5 -30.5q-45 0 -76 30.5t-31 75.5zM821 100q0 41 31 70t74 29q41 0 71.5 -29t30.5 -70q0 -43 -30.5 -71.5t-71.5 -28.5q-43 0 -74 28.5t-31 71.5zM412 1122q0 43 30.5 73t73.5 30q41 0 71.5 -30t30.5 -73t-30.5 -72.5t-71.5 -29.5q-43 0 -73.5 29.5 t-30.5 72.5zM207 1327q0 43 30.5 73t73.5 30q41 0 72 -30t31 -73t-31 -72.5t-72 -29.5q-43 0 -73.5 29.5t-30.5 72.5zM207 918q0 43 30.5 72.5t73.5 29.5q41 0 72 -29.5t31 -72.5t-31 -73t-72 -30q-43 0 -73.5 30t-30.5 73zM207 713q0 43 30.5 72.5t73.5 29.5q41 0 72 -29.5 t31 -72.5t-31 -73t-72 -30q-43 0 -73.5 30t-30.5 73zM207 508q0 43 30.5 72.5t73.5 29.5q41 0 72 -29.5t31 -72.5t-31 -72.5t-72 -29.5q-43 0 -73.5 29.5t-30.5 72.5zM207 303q0 43 30.5 73t73.5 30q41 0 72 -30t31 -73t-31 -72.5t-72 -29.5q-43 0 -73.5 29.5t-30.5 72.5z M207 98q0 43 30.5 73t73.5 30q41 0 72 -30t31 -73t-31 -72.5t-72 -29.5q-43 0 -73.5 29.5t-30.5 72.5zM1026 1327q0 43 30.5 73t73.5 30q41 0 72 -30t31 -73t-31 -72.5t-72 -29.5q-43 0 -73.5 29.5t-30.5 72.5zM1026 1122q0 43 30.5 73t73.5 30q41 0 72 -30t31 -73 t-31 -72.5t-72 -29.5q-43 0 -73.5 29.5t-30.5 72.5zM1026 918q0 43 30.5 72.5t73.5 29.5q41 0 72 -29.5t31 -72.5t-31 -73t-72 -30q-43 0 -73.5 30t-30.5 73zM1026 713q0 43 30.5 72.5t73.5 29.5q41 0 72 -29.5t31 -72.5t-31 -73t-72 -30q-43 0 -73.5 30t-30.5 73zM1026 508 q0 43 30.5 72.5t73.5 29.5q41 0 72 -29.5t31 -72.5t-31 -72.5t-72 -29.5q-43 0 -73.5 29.5t-30.5 72.5zM1026 303q0 43 30.5 73t73.5 30q41 0 72 -30t31 -73t-31 -72.5t-72 -29.5q-43 0 -73.5 29.5t-30.5 72.5zM1026 98q0 43 30.5 73t73.5 30q41 0 72 -30t31 -73t-31 -72.5 t-72 -29.5q-43 0 -73.5 29.5t-30.5 72.5zM616 918q0 43 31 72.5t74 29.5q41 0 71.5 -29.5t30.5 -72.5t-30.5 -73t-71.5 -30q-43 0 -74 30t-31 73z" />
<glyph unicode="N" horiz-adv-x="1433" d="M0 1329q0 41 30.5 69.5t75.5 28.5t76 -28.5t31 -69.5q0 -43 -30.5 -71.5t-76.5 -28.5q-45 0 -75.5 28.5t-30.5 71.5zM0 1126q0 41 30.5 72t75.5 31t76 -31t31 -72q0 -43 -30.5 -73.5t-76.5 -30.5q-45 0 -75.5 30.5t-30.5 73.5zM0 922q0 41 30.5 70.5t75.5 29.5 q43 0 74 -29.5t31 -70.5q0 -43 -30.5 -73t-74.5 -30q-45 0 -75.5 30t-30.5 73zM0 715q0 43 30.5 73.5t75.5 30.5q43 0 74 -30.5t31 -73.5t-30.5 -74t-74.5 -31q-45 0 -75.5 31t-30.5 74zM0 510q0 43 30.5 72.5t73.5 29.5t74 -29.5t31 -72.5t-31 -72.5t-74 -29.5t-73.5 29.5 t-30.5 72.5zM0 305q0 43 30.5 73t73.5 30t74 -30t31 -73t-31 -72.5t-74 -29.5t-73.5 29.5t-30.5 72.5zM0 102q0 41 30.5 71t73.5 30q41 0 72 -30t31 -71q0 -43 -31 -72.5t-72 -29.5q-43 0 -73.5 29.5t-30.5 72.5zM219 1122q0 39 28.5 68t67.5 29t68 -29t29 -68 q0 -41 -29 -69.5t-68 -28.5t-67.5 28.5t-28.5 69.5zM213 920q0 43 28.5 73.5t71.5 30.5q41 0 70 -30.5t29 -73.5t-29 -74t-70 -31q-43 0 -71.5 31t-28.5 74zM410 719q0 43 30.5 73.5t73.5 30.5q41 0 71.5 -30.5t30.5 -73.5t-30.5 -74t-71.5 -31q-43 0 -73.5 31t-30.5 74z M614 512q0 43 30 72.5t73 29.5t72.5 -29.5t29.5 -72.5t-29.5 -72.5t-72.5 -29.5t-73 29.5t-30 72.5zM616 307q0 43 30 73t73 30q41 0 70.5 -30t29.5 -73t-29.5 -72.5t-70.5 -29.5q-43 0 -73 29.5t-30 72.5zM821 100q0 41 31 71t74 30t73.5 -30t30.5 -71t-30.5 -70.5 t-73.5 -29.5t-74 29.5t-31 70.5zM821 305q0 41 31 72t74 31t73.5 -31t30.5 -72q0 -43 -30.5 -73.5t-73.5 -30.5t-74 30.5t-31 73.5zM821 510q0 43 31 72.5t76 29.5q43 0 73.5 -29.5t30.5 -72.5t-30.5 -72.5t-73.5 -29.5q-45 0 -76 29.5t-31 72.5zM819 717q0 43 31 73.5 t76 30.5t75.5 -30.5t30.5 -73.5t-30.5 -74t-75.5 -31t-76 31t-31 74zM819 922q0 41 31 70.5t76 29.5q43 0 73.5 -29.5t30.5 -70.5t-30.5 -71t-73.5 -30q-45 0 -76 30t-31 71zM821 1124q0 43 31 73t74 30t73.5 -30t30.5 -73t-30.5 -72.5t-73.5 -29.5t-74 29.5t-31 72.5z M821 1327q0 41 31 70.5t76 29.5q43 0 73.5 -29.5t30.5 -70.5t-30.5 -70.5t-73.5 -29.5q-45 0 -76 29.5t-31 70.5zM205 719q0 43 30.5 73.5t73.5 30.5q41 0 72 -30.5t31 -73.5t-31 -74t-72 -31q-43 0 -73.5 31t-30.5 74zM205 514q0 43 30.5 73.5t73.5 30.5q41 0 72 -30.5 t31 -73.5t-31 -73.5t-72 -30.5q-43 0 -73.5 30.5t-30.5 73.5zM205 309q0 43 30.5 74t73.5 31q41 0 72 -31t31 -74t-31 -73.5t-72 -30.5q-43 0 -73.5 30.5t-30.5 73.5zM205 104q0 43 30.5 74t73.5 31q41 0 72 -31t31 -74t-31 -73.5t-72 -30.5q-43 0 -73.5 30.5t-30.5 73.5z M205 1333q0 43 30.5 74t73.5 31q41 0 72 -31t31 -74t-31 -73.5t-72 -30.5q-43 0 -73.5 30.5t-30.5 73.5zM410 924q0 43 30.5 73.5t73.5 30.5q41 0 71.5 -30.5t30.5 -73.5t-30.5 -74t-71.5 -31q-43 0 -73.5 31t-30.5 74zM1024 719q0 43 30.5 73.5t73.5 30.5q41 0 72 -30.5 t31 -73.5t-31 -74t-72 -31q-43 0 -73.5 31t-30.5 74zM1024 924q0 43 30.5 73.5t73.5 30.5q41 0 72 -30.5t31 -73.5t-31 -74t-72 -31q-43 0 -73.5 31t-30.5 74zM1024 1128q0 43 30.5 74t73.5 31q41 0 72 -31t31 -74t-31 -73.5t-72 -30.5q-43 0 -73.5 30.5t-30.5 73.5z M1024 1333q0 43 30.5 74t73.5 31q41 0 72 -31t31 -74t-31 -73.5t-72 -30.5q-43 0 -73.5 30.5t-30.5 73.5zM1024 514q0 43 30.5 73.5t73.5 30.5q41 0 72 -30.5t31 -73.5t-31 -73.5t-72 -30.5q-43 0 -73.5 30.5t-30.5 73.5zM1024 309q0 43 30.5 74t73.5 31q41 0 72 -31t31 -74 t-31 -73.5t-72 -30.5q-43 0 -73.5 30.5t-30.5 73.5zM1024 104q0 43 30.5 74t73.5 31q41 0 72 -31t31 -74t-31 -73.5t-72 -30.5q-43 0 -73.5 30.5t-30.5 73.5z" />
<glyph unicode="O" d="M0 1122q0 39 30.5 68t73.5 29q41 0 72 -29t31 -68q0 -41 -31 -69.5t-72 -28.5q-43 0 -73.5 28.5t-30.5 69.5zM0 922q0 41 30.5 71.5t73.5 30.5q41 0 72 -30.5t31 -71.5q0 -43 -31 -74t-72 -31q-43 0 -73.5 31t-30.5 74zM0 715q0 43 30.5 72.5t73.5 29.5t74 -29.5 t31 -72.5t-31 -73t-74 -30t-73.5 30t-30.5 73zM0 510q0 43 30.5 72.5t73.5 29.5t74 -29.5t31 -72.5t-31 -72.5t-74 -29.5t-73.5 29.5t-30.5 72.5zM0 305q0 41 30.5 72t73.5 31q41 0 72 -31t31 -72q0 -43 -31 -73.5t-72 -30.5q-43 0 -73.5 30.5t-30.5 73.5zM207 100 q0 41 30.5 71t73.5 30q41 0 72 -30t31 -71t-31 -70.5t-72 -29.5q-43 0 -73.5 29.5t-30.5 70.5zM414 100q0 41 29.5 70t72.5 29q41 0 70.5 -29t29.5 -70q0 -43 -29.5 -71.5t-70.5 -28.5q-43 0 -72.5 28.5t-29.5 71.5zM616 301q0 43 31 72.5t74 29.5q41 0 71.5 -29.5 t30.5 -72.5t-30.5 -72.5t-71.5 -29.5q-43 0 -74 29.5t-31 72.5zM608 508q0 43 32 73.5t77 30.5q43 0 74.5 -30.5t31.5 -73.5t-31.5 -74t-74.5 -31q-45 0 -77 31t-32 74zM608 713q0 41 32 70.5t77 29.5t76.5 -29.5t31.5 -70.5t-31.5 -71t-76.5 -30t-77 30t-32 71zM612 918 q0 41 31 71.5t76 30.5t75.5 -31t30.5 -71q0 -43 -30.5 -74t-75.5 -31t-76 31t-31 74zM612 1120q0 41 31 71t76 30t75.5 -30t30.5 -71t-30.5 -70.5t-75.5 -29.5t-76 29.5t-31 70.5zM408 1327q0 41 29.5 70.5t72.5 29.5t73.5 -29.5t30.5 -70.5q0 -43 -30.5 -72.5t-73.5 -29.5 t-72.5 29.5t-29.5 72.5zM201 1327q0 41 30.5 70.5t73.5 29.5t74 -29.5t31 -70.5q0 -43 -31 -72.5t-74 -29.5t-73.5 29.5t-30.5 72.5zM205 1122q0 39 30.5 68t73.5 29q41 0 72 -29t31 -68q0 -41 -31 -69.5t-72 -28.5q-43 0 -73.5 28.5t-30.5 69.5zM205 922q0 41 30.5 71.5 t73.5 30.5q41 0 72 -30.5t31 -71.5q0 -43 -31 -74t-72 -31q-43 0 -73.5 31t-30.5 74zM205 715q0 43 30.5 72.5t73.5 29.5t74 -29.5t31 -72.5t-31 -73t-74 -30t-73.5 30t-30.5 73zM205 510q0 43 30.5 72.5t73.5 29.5t74 -29.5t31 -72.5t-31 -72.5t-74 -29.5t-73.5 29.5 t-30.5 72.5zM205 305q0 41 30.5 72t73.5 31q41 0 72 -31t31 -72q0 -43 -31 -73.5t-72 -30.5q-43 0 -73.5 30.5t-30.5 73.5zM819 1122q0 39 31 68t74 29q41 0 71.5 -29t30.5 -68q0 -41 -30.5 -69.5t-71.5 -28.5q-43 0 -74 28.5t-31 69.5zM819 922q0 41 31 71.5t74 30.5 q41 0 71.5 -30.5t30.5 -71.5q0 -43 -30.5 -74t-71.5 -31q-43 0 -74 31t-31 74zM819 715q0 43 31 72.5t74 29.5t73.5 -29.5t30.5 -72.5t-30.5 -73t-73.5 -30t-74 30t-31 73zM819 510q0 43 31 72.5t74 29.5t73.5 -29.5t30.5 -72.5t-30.5 -72.5t-73.5 -29.5t-74 29.5t-31 72.5z M819 305q0 41 31 72t74 31q41 0 71.5 -31t30.5 -72q0 -43 -30.5 -73.5t-71.5 -30.5q-43 0 -74 30.5t-31 73.5zM612 1327q0 41 30 70.5t73 29.5t73.5 -29.5t30.5 -70.5q0 -43 -30.5 -72.5t-73.5 -29.5t-73 29.5t-30 72.5zM612 98q0 41 30 71t73 30t73.5 -30t30.5 -71 q0 -43 -30.5 -72.5t-73.5 -29.5t-73 29.5t-30 72.5z" />
<glyph unicode="P" d="M0 100q0 41 30.5 70t75.5 29t76 -29t31 -70q0 -43 -30.5 -71.5t-76.5 -28.5q-45 0 -75.5 28.5t-30.5 71.5zM0 301q0 41 30.5 70.5t75.5 29.5t76 -29.5t31 -70.5q0 -43 -30.5 -72.5t-76.5 -29.5q-45 0 -75.5 29.5t-30.5 72.5zM0 506q0 43 30.5 73.5t75.5 30.5 q43 0 74 -30.5t31 -73.5t-30.5 -74t-74.5 -31q-45 0 -75.5 31t-30.5 74zM0 713q0 43 30.5 72.5t75.5 29.5q43 0 74 -29.5t31 -72.5t-30.5 -73t-74.5 -30q-45 0 -75.5 30t-30.5 73zM0 915q0 41 30.5 71t75.5 30t76 -30t31 -71t-30.5 -70.5t-76.5 -29.5q-45 0 -75.5 29.5 t-30.5 70.5zM0 1122q0 43 30.5 74t75.5 31t76 -31t31 -74q0 -45 -30.5 -75.5t-76.5 -30.5q-45 0 -75.5 30.5t-30.5 75.5zM0 1327q0 41 30.5 70.5t73.5 29.5q41 0 72 -29.5t31 -70.5t-31 -70.5t-72 -29.5q-43 0 -73.5 29.5t-30.5 70.5zM207 1329q0 41 29.5 69.5t72.5 28.5 t73 -28.5t30 -69.5q0 -43 -30 -71.5t-73 -28.5t-72.5 28.5t-29.5 71.5zM412 1329q0 41 29.5 69.5t72.5 28.5t72.5 -28.5t29.5 -69.5q0 -43 -29.5 -71.5t-72.5 -28.5t-72.5 28.5t-29.5 71.5zM614 1128q0 43 30 75t73 32t72.5 -32t29.5 -75q0 -45 -29.5 -76.5t-72.5 -31.5 t-73 31.5t-30 76.5zM612 918q0 43 31 72.5t74 29.5q41 0 71.5 -29.5t30.5 -72.5t-30.5 -73t-71.5 -30q-43 0 -74 30t-31 73zM414 715q0 41 28.5 70.5t71.5 29.5q41 0 69.5 -29.5t28.5 -70.5q0 -43 -28.5 -73t-69.5 -30q-43 0 -71.5 30t-28.5 73zM209 711q0 41 29.5 69.5 t72.5 28.5t73 -28.5t30 -69.5t-30 -70t-73 -29t-72.5 29t-29.5 70zM205 1128q0 43 29.5 75t72.5 32t73 -32t30 -75q0 -45 -30 -76.5t-73 -31.5t-72.5 31.5t-29.5 76.5zM203 918q0 43 30.5 72.5t73.5 29.5q41 0 72 -29.5t31 -72.5t-31 -73t-72 -30q-43 0 -73.5 30t-30.5 73z M205 514q0 43 29.5 75t72.5 32t73 -32t30 -75q0 -45 -30 -76.5t-73 -31.5t-72.5 31.5t-29.5 76.5zM221 305q0 43 30 73t73 30t73.5 -30t30.5 -73q0 -41 -30.5 -71.5t-73.5 -30.5t-73 30.5t-30 71.5zM221 100q0 43 30 73t73 30t73.5 -30t30.5 -73q0 -41 -30.5 -71.5 t-73.5 -30.5t-73 30.5t-30 71.5zM610 715q0 43 30 72.5t73 29.5t73.5 -29.5t30.5 -72.5q0 -41 -30.5 -72t-73.5 -31t-73 31t-30 72zM610 1329q0 43 30 73t73 30t73.5 -30t30.5 -73q0 -41 -30.5 -71.5t-73.5 -30.5t-73 30.5t-30 71.5zM815 920q0 43 29.5 72.5t73.5 29.5 q43 0 73.5 -29.5t30.5 -72.5q0 -41 -30.5 -72t-73.5 -31t-73 31t-30 72zM815 1124q0 43 29.5 73t73.5 30q43 0 73.5 -30t30.5 -73q0 -41 -30.5 -71.5t-73.5 -30.5t-73 30.5t-30 71.5z" />
<glyph unicode="Q" d="M0 1120q0 41 30.5 70t75.5 29t76 -29t31 -70t-30.5 -69.5t-76.5 -28.5q-45 0 -75.5 28.5t-30.5 69.5zM0 920q0 41 30.5 71.5t75.5 30.5t76 -30.5t31 -71.5q0 -43 -30.5 -74t-76.5 -31q-45 0 -75.5 31t-30.5 74zM0 715q0 41 30.5 70.5t75.5 29.5q43 0 74 -29.5t31 -70.5 q0 -43 -30.5 -73t-74.5 -30q-45 0 -75.5 30t-30.5 73zM0 508q0 43 30.5 73.5t75.5 30.5q43 0 74 -30.5t31 -73.5t-30.5 -74t-74.5 -31q-45 0 -75.5 31t-30.5 74zM0 303q0 41 30.5 70.5t73.5 29.5t74 -29.5t31 -70.5q0 -43 -31 -72.5t-74 -29.5t-73.5 29.5t-30.5 72.5z M209 100q0 41 29.5 71t72.5 30q41 0 71 -30t30 -71t-30 -70.5t-71 -29.5q-43 0 -72.5 29.5t-29.5 70.5zM412 100q0 41 30.5 71t75.5 30q43 0 74 -30t31 -71t-31 -70.5t-74 -29.5q-45 0 -75.5 29.5t-30.5 70.5zM623 301q0 41 29.5 69.5t72.5 28.5q41 0 70.5 -28.5t29.5 -69.5 q0 -43 -29.5 -71.5t-70.5 -28.5q-43 0 -72.5 28.5t-29.5 71.5zM610 504q0 43 32 73.5t77 30.5q43 0 74.5 -30.5t31.5 -73.5t-31.5 -74t-74.5 -31q-45 0 -77 31t-32 74zM610 711q0 41 32 70.5t77 29.5t76.5 -29.5t31.5 -70.5q0 -43 -31.5 -73t-76.5 -30t-77 30t-32 73z M608 913q0 43 32 73t79 30q45 0 76.5 -30t31.5 -73t-31.5 -72.5t-76.5 -29.5q-47 0 -79 29.5t-32 72.5zM608 1120q0 43 32 74t77 31q43 0 74.5 -31t31.5 -74t-31.5 -73.5t-74.5 -30.5q-45 0 -77 30.5t-32 73.5zM414 1327q0 41 28.5 70.5t67.5 29.5t67.5 -29.5t28.5 -70.5 q0 -43 -28.5 -72.5t-67.5 -29.5t-67.5 29.5t-28.5 72.5zM203 1329q0 41 30.5 69.5t75.5 28.5q43 0 74 -28.5t31 -69.5t-31 -69.5t-74 -28.5q-45 0 -75.5 28.5t-30.5 69.5zM612 -102q0 43 31 72.5t76 29.5q43 0 73.5 -29.5t30.5 -72.5t-30.5 -73t-73.5 -30q-45 0 -76 30 t-31 73zM205 1120q0 41 30.5 70t75.5 29t76 -29t31 -70t-31 -69.5t-76 -28.5t-75.5 28.5t-30.5 69.5zM205 920q0 41 30.5 71.5t75.5 30.5t76 -30.5t31 -71.5q0 -43 -31 -74t-76 -31t-75.5 31t-30.5 74zM205 715q0 41 30.5 70.5t75.5 29.5q43 0 74 -29.5t31 -70.5 q0 -43 -31 -73t-74 -30q-45 0 -75.5 30t-30.5 73zM205 508q0 43 30.5 73.5t75.5 30.5q43 0 74 -30.5t31 -73.5t-31 -74t-74 -31q-45 0 -75.5 31t-30.5 74zM205 303q0 41 30.5 70.5t73.5 29.5t74 -29.5t31 -70.5q0 -43 -31 -72.5t-74 -29.5t-73.5 29.5t-30.5 72.5zM819 1120 q0 41 31 70t76 29t75.5 -29t30.5 -70t-30.5 -69.5t-75.5 -28.5t-76 28.5t-31 69.5zM819 920q0 41 31 71.5t76 30.5t75.5 -30.5t30.5 -71.5q0 -43 -30.5 -74t-75.5 -31t-76 31t-31 74zM819 715q0 41 31 70.5t76 29.5q43 0 73.5 -29.5t30.5 -70.5q0 -43 -30.5 -73t-73.5 -30 q-45 0 -76 30t-31 73zM819 508q0 43 31 73.5t76 30.5q43 0 73.5 -30.5t30.5 -73.5t-30.5 -74t-73.5 -31q-45 0 -76 31t-31 74zM819 303q0 41 31 70.5t74 29.5t73.5 -29.5t30.5 -70.5q0 -43 -30.5 -72.5t-73.5 -29.5t-74 29.5t-31 72.5zM817 -102q0 43 31 72.5t76 29.5 q43 0 73.5 -29.5t30.5 -72.5t-30.5 -73t-73.5 -30q-45 0 -76 30t-31 73zM612 102q0 43 31 73t76 30q43 0 73.5 -30t30.5 -73t-30.5 -72.5t-73.5 -29.5q-45 0 -76 29.5t-31 72.5zM612 1331q0 43 31 73t76 30q43 0 73.5 -30t30.5 -73t-30.5 -72.5t-73.5 -29.5q-45 0 -76 29.5 t-31 72.5z" />
<glyph unicode="R" d="M0 1327q0 41 30.5 70.5t75.5 29.5q43 0 74 -29.5t31 -70.5t-30.5 -70.5t-74.5 -29.5q-45 0 -75.5 29.5t-30.5 70.5zM211 1327q0 41 29.5 70.5t70.5 29.5t71 -29.5t30 -70.5t-30 -70.5t-71 -29.5t-70.5 29.5t-29.5 70.5zM412 1329q0 41 30.5 69.5t73.5 28.5 q41 0 71.5 -28.5t30.5 -69.5q0 -43 -30.5 -71.5t-71.5 -28.5q-43 0 -73.5 28.5t-30.5 71.5zM618 1126q0 41 31 72t74 31q41 0 71.5 -31t30.5 -72q0 -43 -30.5 -73.5t-71.5 -30.5q-43 0 -74 30.5t-31 73.5zM612 920q0 43 31 72.5t76 29.5t75.5 -29.5t30.5 -72.5t-30.5 -73 t-75.5 -30t-76 30t-31 73zM410 715q0 41 29.5 71.5t72.5 30.5q41 0 70.5 -30.5t29.5 -71.5q0 -43 -29.5 -74t-70.5 -31q-43 0 -72.5 31t-29.5 74zM207 713q0 43 29.5 72.5t72.5 29.5q41 0 71 -29.5t30 -72.5t-30 -73t-71 -30q-43 0 -72.5 30t-29.5 73zM0 100q0 41 30.5 71 t75.5 30t76 -30t31 -71t-30.5 -70.5t-76.5 -29.5q-45 0 -75.5 29.5t-30.5 70.5zM0 303q0 41 30.5 70.5t75.5 29.5t76 -29.5t31 -70.5q0 -43 -30.5 -72.5t-76.5 -29.5q-45 0 -75.5 29.5t-30.5 72.5zM0 506q0 43 31.5 72.5t77.5 29.5q45 0 76.5 -29.5t31.5 -72.5t-31.5 -73 t-76.5 -30t-77 30t-32 73zM0 711q0 41 31.5 70.5t77.5 29.5q45 0 76.5 -29.5t31.5 -70.5q0 -43 -31.5 -73t-76.5 -30t-77 30t-32 73zM0 915q0 43 30.5 74t75.5 31t76 -31t31 -74t-30.5 -73.5t-76.5 -30.5q-45 0 -75.5 30.5t-30.5 73.5zM0 1120q0 41 30.5 71t75.5 30t76 -30 t31 -71t-30.5 -70.5t-76.5 -29.5q-45 0 -75.5 29.5t-30.5 70.5zM618 512q0 41 30 71.5t73 30.5q41 0 70.5 -30.5t29.5 -71.5q0 -43 -29.5 -73.5t-70.5 -30.5q-43 0 -73 30.5t-30 73.5zM614 307q0 41 31 71t74 30q41 0 71.5 -30t30.5 -71q0 -43 -30.5 -72.5t-71.5 -29.5 q-43 0 -74 29.5t-31 72.5zM614 102q0 43 31 73t74 30q41 0 71.5 -30t30.5 -73t-30.5 -72.5t-71.5 -29.5q-43 0 -74 29.5t-31 72.5zM209 1126q0 41 30.5 72t73.5 31q41 0 72 -31t31 -72q0 -43 -31 -73.5t-72 -30.5q-43 0 -73.5 30.5t-30.5 73.5zM203 920q0 43 30.5 72.5 t75.5 29.5t76 -29.5t31 -72.5t-31 -73t-76 -30t-75.5 30t-30.5 73zM823 1126q0 41 31 72t74 31q41 0 71.5 -31t30.5 -72q0 -43 -30.5 -73.5t-71.5 -30.5q-43 0 -74 30.5t-31 73.5zM817 920q0 43 31 72.5t76 29.5t75.5 -29.5t30.5 -72.5t-30.5 -73t-75.5 -30t-76 30t-31 73z M209 512q0 41 30.5 71.5t73.5 30.5q41 0 72 -30.5t31 -71.5q0 -43 -31 -73.5t-72 -30.5q-43 0 -73.5 30.5t-30.5 73.5zM203 305q0 43 30.5 73t75.5 30t76 -30t31 -73t-31 -72.5t-76 -29.5t-75.5 29.5t-30.5 72.5zM823 512q0 41 31 71.5t74 30.5q41 0 71.5 -30.5t30.5 -71.5 q0 -43 -30.5 -73.5t-71.5 -30.5q-43 0 -74 30.5t-31 73.5zM817 305q0 43 31 73t76 30t75.5 -30t30.5 -73t-30.5 -72.5t-75.5 -29.5t-76 29.5t-31 72.5zM205 102q0 43 30.5 73t73.5 30q41 0 72 -30t31 -73t-31 -72.5t-72 -29.5q-43 0 -73.5 29.5t-30.5 72.5zM819 102 q0 43 31 73t74 30q41 0 71.5 -30t30.5 -73t-30.5 -72.5t-71.5 -29.5q-43 0 -74 29.5t-31 72.5zM614 717q0 43 31 72.5t74 29.5q41 0 71.5 -29.5t30.5 -72.5t-30.5 -73t-71.5 -30q-43 0 -74 30t-31 73zM614 1331q0 43 31 73t74 30q41 0 71.5 -30t30.5 -73t-30.5 -72.5 t-71.5 -29.5q-43 0 -74 29.5t-31 72.5z" />
<glyph unicode="S" d="M0 98q0 41 30.5 70t73.5 29q41 0 72 -29t31 -70t-31 -69.5t-72 -28.5q-43 0 -73.5 28.5t-30.5 69.5zM207 98q0 41 29.5 70t70.5 29t71 -29t30 -70t-30 -69.5t-71 -28.5t-70.5 28.5t-29.5 69.5zM408 100q0 41 30.5 70t75.5 29q43 0 73.5 -29t30.5 -70q0 -43 -30.5 -71.5 t-73.5 -28.5q-45 0 -75.5 28.5t-30.5 71.5zM618 303q0 43 30 74t73 31q41 0 70.5 -31t29.5 -74t-29.5 -73.5t-70.5 -30.5q-43 0 -73 30.5t-30 73.5zM612 510q0 41 31 70.5t74 29.5t73.5 -29.5t30.5 -70.5q0 -43 -30.5 -72.5t-73.5 -29.5t-74 29.5t-31 72.5zM410 711 q0 41 28.5 71.5t71.5 30.5q41 0 70.5 -30.5t29.5 -71.5q0 -43 -29.5 -73t-70.5 -30q-43 0 -71.5 30t-28.5 73zM205 715q0 41 30.5 70.5t73.5 29.5q41 0 72 -29.5t31 -70.5q0 -43 -31 -73t-72 -30q-43 0 -73.5 30t-30.5 73zM0 918q0 43 30.5 73.5t73.5 30.5q41 0 72 -30.5 t31 -73.5t-31 -74t-72 -31q-43 0 -73.5 31t-30.5 74zM0 1122q0 41 30.5 70t73.5 29q41 0 72 -29t31 -70q0 -43 -31 -71.5t-72 -28.5q-43 0 -73.5 28.5t-30.5 71.5zM207 1325q0 41 30.5 71.5t73.5 30.5q41 0 72 -30.5t31 -71.5q0 -43 -31 -73.5t-72 -30.5q-43 0 -73.5 30.5 t-30.5 73.5zM414 1327q0 41 29.5 70.5t70.5 29.5t70.5 -29.5t29.5 -70.5t-29.5 -70.5t-70.5 -29.5t-70.5 29.5t-29.5 70.5zM614 1327q0 41 32 70.5t77 29.5q43 0 74.5 -29.5t31.5 -70.5t-31.5 -70.5t-74.5 -29.5q-45 0 -77 29.5t-32 70.5zM205 918q0 43 30.5 73.5t73.5 30.5 q41 0 72 -30.5t31 -73.5t-31 -74t-72 -31q-43 0 -73.5 31t-30.5 74zM205 1122q0 41 30.5 70t73.5 29q41 0 72 -29t31 -70q0 -43 -31 -71.5t-72 -28.5q-43 0 -73.5 28.5t-30.5 71.5zM819 303q0 43 31 74t74 31q41 0 71.5 -31t30.5 -74t-30.5 -73.5t-71.5 -30.5 q-43 0 -74 30.5t-31 73.5zM819 508q0 41 31 69.5t74 28.5q41 0 71.5 -28.5t30.5 -69.5q0 -43 -30.5 -71.5t-71.5 -28.5q-43 0 -74 28.5t-31 71.5zM614 711q0 41 29 71.5t72 30.5q41 0 70.5 -30.5t29.5 -71.5q0 -43 -29.5 -73t-70.5 -30q-43 0 -72 30t-29 73zM840 1325 q0 41 28.5 71.5t71.5 30.5q41 0 70.5 -30.5t29.5 -71.5q0 -43 -29.5 -72.5t-70.5 -29.5q-43 0 -71.5 29.5t-28.5 72.5zM614 96q0 41 29 72t72 31q41 0 70.5 -31t29.5 -72q0 -43 -29.5 -72.5t-70.5 -29.5q-43 0 -72 29.5t-29 72.5z" />
<glyph unicode="T" horiz-adv-x="1433" d="M0 1329q0 41 30.5 69.5t73.5 28.5t74 -28.5t31 -69.5t-31 -69.5t-74 -28.5t-73.5 28.5t-30.5 69.5zM209 1329q0 41 29.5 69.5t72.5 28.5t73 -28.5t30 -69.5t-30 -69.5t-73 -28.5t-72.5 28.5t-29.5 69.5zM414 1329q0 41 29.5 69.5t70.5 28.5t70.5 -28.5t29.5 -69.5 q0 -43 -29.5 -71.5t-70.5 -28.5t-70.5 28.5t-29.5 71.5zM614 1329q0 41 31 69.5t74 28.5q41 0 71.5 -28.5t30.5 -69.5q0 -43 -30.5 -71.5t-71.5 -28.5q-43 0 -74 28.5t-31 71.5zM815 1329q0 43 31 72t74 29t72.5 -29t29.5 -72q0 -41 -29.5 -70.5t-72.5 -29.5t-74 29.5 t-31 70.5zM412 100q0 41 29.5 71t72.5 30t72.5 -30t29.5 -71t-29.5 -70.5t-72.5 -29.5t-72.5 29.5t-29.5 70.5zM410 303q0 41 30.5 70.5t73.5 29.5q41 0 71.5 -29.5t30.5 -70.5q0 -43 -30.5 -72.5t-71.5 -29.5q-43 0 -73.5 29.5t-30.5 72.5zM410 508q0 41 30.5 71.5 t73.5 30.5t73.5 -30.5t30.5 -71.5q0 -43 -30.5 -74t-73.5 -31t-73.5 31t-30.5 74zM408 713q0 41 30.5 70.5t75.5 29.5q43 0 73.5 -29.5t30.5 -70.5q0 -43 -30.5 -73t-73.5 -30q-45 0 -75.5 30t-30.5 73zM408 918q0 41 30.5 71.5t75.5 30.5t76 -31t31 -71q0 -43 -31 -74 t-76 -31t-75.5 31t-30.5 74zM406 1120q0 41 31.5 71t76.5 30q43 0 75 -30t32 -71t-32 -70.5t-75 -29.5q-45 0 -76.5 29.5t-31.5 70.5zM616 100q0 41 30 71t73 30t72.5 -30t29.5 -71t-29.5 -70.5t-72.5 -29.5t-73 29.5t-30 70.5zM614 303q0 41 31 70.5t74 29.5 q41 0 71.5 -29.5t30.5 -70.5q0 -43 -30.5 -72.5t-71.5 -29.5q-43 0 -74 29.5t-31 72.5zM614 508q0 41 31 71.5t74 30.5t73.5 -30.5t30.5 -71.5q0 -43 -30.5 -74t-73.5 -31t-74 31t-31 74zM612 713q0 41 31 70.5t76 29.5q43 0 73.5 -29.5t30.5 -70.5q0 -43 -30.5 -73 t-73.5 -30q-45 0 -76 30t-31 73zM612 918q0 41 31 71.5t76 30.5t75.5 -31t30.5 -71q0 -43 -30.5 -74t-75.5 -31t-76 31t-31 74zM610 1120q0 41 32 71t77 30q43 0 74.5 -30t31.5 -71t-31.5 -70.5t-74.5 -29.5q-45 0 -77 29.5t-32 70.5zM1020 1329q0 43 30.5 72t73.5 29 t73 -29t30 -72q0 -41 -30 -70.5t-73 -29.5t-73.5 29.5t-30.5 70.5z" />
<glyph unicode="U" d="M0 1329q0 41 30.5 69.5t75.5 28.5q43 0 74 -28.5t31 -69.5q0 -43 -30.5 -71.5t-74.5 -28.5q-45 0 -75.5 28.5t-30.5 71.5zM0 1124q0 43 30.5 74t75.5 31q43 0 74 -31t31 -74t-30.5 -73.5t-74.5 -30.5q-45 0 -75.5 30.5t-30.5 73.5zM0 920q0 41 30.5 70.5t75.5 29.5 q43 0 74 -29.5t31 -70.5t-30.5 -71t-74.5 -30q-45 0 -75.5 30t-30.5 71zM0 717q0 41 30.5 71.5t75.5 30.5q43 0 74 -30.5t31 -71.5q0 -43 -30.5 -74t-74.5 -31q-45 0 -75.5 31t-30.5 74zM0 512q0 41 30.5 70.5t75.5 29.5q43 0 74 -29.5t31 -70.5q0 -43 -30.5 -72.5 t-74.5 -29.5q-45 0 -75.5 29.5t-30.5 72.5zM0 305q0 43 30.5 74t75.5 31q43 0 74 -31t31 -74t-30.5 -73.5t-74.5 -30.5q-45 0 -75.5 30.5t-30.5 73.5zM199 98q0 39 30.5 68t75.5 29t76 -29t31 -68q0 -41 -31 -69.5t-76 -28.5t-75.5 28.5t-30.5 69.5zM412 100q0 41 30.5 70 t75.5 29q43 0 74 -29t31 -70t-31 -69.5t-74 -28.5q-45 0 -75.5 28.5t-30.5 69.5zM623 301q0 41 29.5 71.5t72.5 30.5q41 0 70.5 -30.5t29.5 -71.5q0 -43 -29.5 -73.5t-70.5 -30.5q-43 0 -72.5 30.5t-29.5 73.5zM612 506q0 43 31 72.5t76 29.5t75.5 -29.5t30.5 -72.5 t-30.5 -73t-75.5 -30t-76 30t-31 73zM612 713q0 43 31 73.5t76 30.5t75.5 -30.5t30.5 -73.5t-30.5 -74t-75.5 -31t-76 31t-31 74zM608 918q0 41 32 69.5t77 28.5t76.5 -29t31.5 -69q0 -43 -31.5 -72t-76.5 -29t-77 29t-32 72zM608 1120q0 41 32 72t77 31t76.5 -31t31.5 -72 q0 -43 -31.5 -73.5t-76.5 -30.5t-77 30.5t-32 73.5zM610 1325q0 43 32 72.5t77 29.5q43 0 74.5 -29.5t31.5 -72.5t-31.5 -72.5t-74.5 -29.5q-45 0 -77 29.5t-32 72.5zM205 1329q0 41 30.5 69.5t75.5 28.5q43 0 74 -28.5t31 -69.5q0 -43 -31 -71.5t-74 -28.5 q-45 0 -75.5 28.5t-30.5 71.5zM205 1124q0 43 30.5 74t75.5 31q43 0 74 -31t31 -74t-31 -73.5t-74 -30.5q-45 0 -75.5 30.5t-30.5 73.5zM205 920q0 41 30.5 70.5t75.5 29.5q43 0 74 -29.5t31 -70.5t-31 -71t-74 -30q-45 0 -75.5 30t-30.5 71zM205 717q0 41 30.5 71.5 t75.5 30.5q43 0 74 -30.5t31 -71.5q0 -43 -31 -74t-74 -31q-45 0 -75.5 31t-30.5 74zM205 512q0 41 30.5 70.5t75.5 29.5q43 0 74 -29.5t31 -70.5q0 -43 -31 -72.5t-74 -29.5q-45 0 -75.5 29.5t-30.5 72.5zM205 305q0 43 30.5 74t75.5 31q43 0 74 -31t31 -74t-31 -73.5 t-74 -30.5q-45 0 -75.5 30.5t-30.5 73.5zM819 1329q0 41 31 69.5t76 28.5q43 0 73.5 -28.5t30.5 -69.5q0 -43 -30.5 -71.5t-73.5 -28.5q-45 0 -76 28.5t-31 71.5zM819 1124q0 43 31 74t76 31q43 0 73.5 -31t30.5 -74t-30.5 -73.5t-73.5 -30.5q-45 0 -76 30.5t-31 73.5z M819 920q0 41 31 70.5t76 29.5q43 0 73.5 -29.5t30.5 -70.5t-30.5 -71t-73.5 -30q-45 0 -76 30t-31 71zM819 717q0 41 31 71.5t76 30.5q43 0 73.5 -30.5t30.5 -71.5q0 -43 -30.5 -74t-73.5 -31q-45 0 -76 31t-31 74zM819 512q0 41 31 70.5t76 29.5q43 0 73.5 -29.5 t30.5 -70.5q0 -43 -30.5 -72.5t-73.5 -29.5q-45 0 -76 29.5t-31 72.5zM819 305q0 43 31 74t76 31q43 0 73.5 -31t30.5 -74t-30.5 -73.5t-73.5 -30.5q-45 0 -76 30.5t-31 73.5zM616 100q0 41 31 70t76 29q43 0 73.5 -29t30.5 -70t-30.5 -69.5t-73.5 -28.5q-45 0 -76 28.5 t-31 69.5z" />
<glyph unicode="V" horiz-adv-x="1433" d="M0 1329q0 41 30.5 69.5t73.5 28.5t74 -28.5t31 -69.5q0 -43 -31 -71.5t-74 -28.5t-73.5 28.5t-30.5 71.5zM0 1126q0 43 30.5 73t73.5 30t74 -30t31 -73t-31 -72.5t-74 -29.5t-73.5 29.5t-30.5 72.5zM0 920q0 43 30.5 73.5t75.5 30.5q43 0 74 -30.5t31 -73.5t-30.5 -74 t-74.5 -31q-45 0 -75.5 31t-30.5 74zM0 717q0 41 30.5 69.5t75.5 28.5q43 0 74 -28.5t31 -69.5q0 -43 -30.5 -72t-74.5 -29q-45 0 -75.5 29t-30.5 72zM209 512q0 41 29.5 70.5t72.5 29.5t73 -29.5t30 -70.5q0 -43 -30 -72.5t-73 -29.5t-72.5 29.5t-29.5 72.5zM203 307 q0 41 30.5 72t75.5 31q43 0 74 -31t31 -72q0 -43 -31 -73.5t-74 -30.5q-45 0 -75.5 30.5t-30.5 73.5zM408 106q0 43 30.5 73t75.5 30t76 -29.5t31 -73.5q0 -41 -31 -71.5t-76 -30.5t-75.5 30.5t-30.5 71.5zM618 301q0 41 30 71.5t73 30.5q41 0 70.5 -30.5t29.5 -71.5 q0 -43 -29.5 -73.5t-70.5 -30.5q-43 0 -73 30.5t-30 73.5zM608 506q0 43 31 72.5t76 29.5t75.5 -29.5t30.5 -72.5t-30.5 -73t-75.5 -30t-76 30t-31 73zM819 711q0 43 31 73.5t76 30.5q43 0 73.5 -30.5t30.5 -73.5q0 -45 -30.5 -76t-73.5 -31q-45 0 -76 31t-31 76zM817 918 q0 41 31 70.5t76 29.5t75.5 -30t30.5 -70q0 -43 -30.5 -73t-75.5 -30t-76 30t-31 73zM817 1120q0 43 31 73t76 30q43 0 73.5 -30t30.5 -73t-30.5 -72.5t-73.5 -29.5q-45 0 -76 29.5t-31 72.5zM817 1325q0 43 31 72.5t76 29.5q43 0 73.5 -29.5t30.5 -72.5t-30.5 -72.5 t-73.5 -29.5q-45 0 -76 29.5t-31 72.5zM205 1329q0 41 30.5 69.5t73.5 28.5t74 -28.5t31 -69.5q0 -43 -31 -71.5t-74 -28.5t-73.5 28.5t-30.5 71.5zM205 1126q0 43 30.5 73t73.5 30t74 -30t31 -73t-31 -72.5t-74 -29.5t-73.5 29.5t-30.5 72.5zM205 920q0 43 30.5 73.5 t75.5 30.5q43 0 74 -30.5t31 -73.5t-31 -74t-74 -31q-45 0 -75.5 31t-30.5 74zM205 717q0 41 30.5 69.5t75.5 28.5q43 0 74 -28.5t31 -69.5q0 -43 -31 -72t-74 -29q-45 0 -75.5 29t-30.5 72zM1024 1329q0 41 30.5 69.5t73.5 28.5t74 -28.5t31 -69.5q0 -43 -31 -71.5 t-74 -28.5t-73.5 28.5t-30.5 71.5zM1024 1126q0 43 30.5 73t73.5 30t74 -30t31 -73t-31 -72.5t-74 -29.5t-73.5 29.5t-30.5 72.5zM1024 920q0 43 30.5 73.5t75.5 30.5q43 0 74 -30.5t31 -73.5t-30.5 -74t-74.5 -31q-45 0 -75.5 31t-30.5 74zM1024 717q0 41 30.5 69.5 t75.5 28.5q43 0 74 -28.5t31 -69.5q0 -43 -30.5 -72t-74.5 -29q-45 0 -75.5 29t-30.5 72zM414 301q0 41 29.5 71.5t72.5 30.5q41 0 70.5 -30.5t29.5 -71.5q0 -43 -29.5 -73.5t-70.5 -30.5q-43 0 -72.5 30.5t-29.5 73.5zM403 506q0 43 31 72.5t76 29.5t75.5 -29.5t30.5 -72.5 t-30.5 -73t-75.5 -30t-76 30t-31 73zM823 301q0 41 30 71.5t73 30.5q41 0 70.5 -30.5t29.5 -71.5q0 -43 -29.5 -73.5t-70.5 -30.5q-43 0 -73 30.5t-30 73.5zM813 506q0 43 30.5 72.5t76.5 29.5q45 0 75.5 -29.5t30.5 -72.5t-30.5 -73t-75.5 -30t-76 30t-31 73zM612 106 q0 43 31 73t76 30t75.5 -29.5t30.5 -73.5q0 -41 -30.5 -71.5t-75.5 -30.5t-76 30.5t-31 71.5z" />
<glyph unicode="W" horiz-adv-x="1433" d="M0 1329q0 41 31.5 69.5t77.5 28.5q43 0 74.5 -28.5t31.5 -69.5t-31.5 -69.5t-74.5 -28.5q-45 0 -77 28.5t-32 69.5zM0 1128q0 41 31.5 72t77.5 31q43 0 74.5 -31t31.5 -72q0 -43 -31.5 -73.5t-74.5 -30.5q-45 0 -77 30.5t-32 73.5zM0 920q0 43 30.5 73.5t75.5 30.5 t76 -30.5t31 -73.5t-30.5 -74t-76.5 -31q-45 0 -75.5 31t-30.5 74zM0 713q0 43 30.5 72.5t75.5 29.5t76 -29.5t31 -72.5t-30.5 -73t-76.5 -30q-45 0 -75.5 30t-30.5 73zM0 514q0 39 30.5 67.5t75.5 28.5q43 0 74 -28.5t31 -67.5q0 -41 -30.5 -69.5t-74.5 -28.5 q-45 0 -75.5 28.5t-30.5 69.5zM0 311q0 43 30.5 74t75.5 31q43 0 74 -31t31 -74q0 -45 -30.5 -75.5t-74.5 -30.5q-45 0 -75.5 30.5t-30.5 75.5zM0 102q0 43 30.5 73t75.5 30q43 0 74 -30t31 -73t-30.5 -72.5t-74.5 -29.5q-45 0 -75.5 29.5t-30.5 72.5zM213 311q0 45 28.5 76 t71.5 31q41 0 70 -31t29 -76t-29 -75.5t-70 -30.5q-43 0 -71.5 30.5t-28.5 75.5zM403 512q0 41 31 69.5t76 28.5q43 0 73.5 -28.5t30.5 -69.5t-30.5 -69.5t-73.5 -28.5q-45 0 -76 28.5t-31 69.5zM614 309q0 43 31 74t74 31q41 0 71.5 -31t30.5 -74t-30.5 -73.5t-71.5 -30.5 q-43 0 -74 30.5t-31 73.5zM821 102q0 43 31 73t74 30q41 0 71.5 -30t30.5 -73t-30.5 -72.5t-71.5 -29.5q-43 0 -74 29.5t-31 72.5zM821 303q0 41 31 69.5t74 28.5q41 0 71.5 -28.5t30.5 -69.5q0 -43 -30.5 -71.5t-71.5 -28.5q-43 0 -74 28.5t-31 71.5zM817 508q0 41 31 69.5 t74 28.5t73.5 -28.5t30.5 -69.5t-30.5 -69.5t-73.5 -28.5t-74 28.5t-31 69.5zM817 713q0 43 32 73.5t77 30.5q43 0 74.5 -30.5t31.5 -73.5q0 -45 -31.5 -76t-74.5 -31q-45 0 -77 31t-32 76zM815 920q0 41 32 70.5t77 29.5t76.5 -29.5t31.5 -70.5q0 -43 -31.5 -73t-76.5 -30 t-77 30t-32 73zM815 1122q0 41 32 71t77 30q43 0 74.5 -30t31.5 -71q0 -43 -31.5 -72.5t-74.5 -29.5q-45 0 -77 29.5t-32 72.5zM817 1325q0 43 31 72.5t76 29.5t75.5 -29.5t30.5 -72.5t-30.5 -72.5t-75.5 -29.5t-76 29.5t-31 72.5zM205 1329q0 41 31.5 69.5t76.5 28.5 q43 0 75 -28.5t32 -69.5t-32 -69.5t-75 -28.5q-45 0 -76.5 28.5t-31.5 69.5zM205 1128q0 41 31.5 72t76.5 31q43 0 75 -31t32 -72q0 -43 -32 -73.5t-75 -30.5q-45 0 -76.5 30.5t-31.5 73.5zM205 920q0 43 30.5 73.5t75.5 30.5t76 -30.5t31 -73.5t-31 -74t-76 -31t-75.5 31 t-30.5 74zM205 713q0 43 30.5 72.5t75.5 29.5t76 -29.5t31 -72.5t-31 -73t-76 -30t-75.5 30t-30.5 73zM205 514q0 39 30.5 67.5t75.5 28.5q43 0 74 -28.5t31 -67.5q0 -41 -31 -69.5t-74 -28.5q-45 0 -75.5 28.5t-30.5 69.5zM1024 1329q0 41 31.5 69.5t77.5 28.5 q43 0 74.5 -28.5t31.5 -69.5t-31.5 -69.5t-74.5 -28.5q-45 0 -77 28.5t-32 69.5zM1024 1128q0 41 31.5 72t77.5 31q43 0 74.5 -31t31.5 -72q0 -43 -31.5 -73.5t-74.5 -30.5q-45 0 -77 30.5t-32 73.5zM1024 920q0 43 30.5 73.5t75.5 30.5t76 -30.5t31 -73.5t-30.5 -74 t-76.5 -31q-45 0 -75.5 31t-30.5 74zM1024 713q0 43 30.5 72.5t75.5 29.5t76 -29.5t31 -72.5t-30.5 -73t-76.5 -30q-45 0 -75.5 30t-30.5 73zM1024 514q0 39 30.5 67.5t75.5 28.5q43 0 74 -28.5t31 -67.5q0 -41 -30.5 -69.5t-74.5 -28.5q-45 0 -75.5 28.5t-30.5 69.5z M608 512q0 41 31 69.5t76 28.5q43 0 73.5 -28.5t30.5 -69.5t-30.5 -69.5t-73.5 -28.5q-45 0 -76 28.5t-31 69.5zM403 307q0 41 31 70t76 29q43 0 73.5 -29t30.5 -70t-30.5 -69.5t-73.5 -28.5q-45 0 -76 28.5t-31 69.5zM199 102q0 41 30.5 70t75.5 29q43 0 74 -29t31 -70 t-31 -69.5t-74 -28.5q-45 0 -75.5 28.5t-30.5 69.5zM1018 307q0 41 30.5 70t75.5 29q43 0 74 -29t31 -70t-31 -69.5t-74 -28.5q-45 0 -75.5 28.5t-30.5 69.5zM1018 102q0 41 30.5 70t75.5 29q43 0 74 -29t31 -70t-31 -69.5t-74 -28.5q-45 0 -75.5 28.5t-30.5 69.5z" />
<glyph unicode="X" horiz-adv-x="1433" d="M0 1329q0 41 30.5 69.5t73.5 28.5t74 -28.5t31 -69.5t-31 -69.5t-74 -28.5t-73.5 28.5t-30.5 69.5zM0 1128q0 41 30.5 72t73.5 31t74 -31t31 -72q0 -43 -31 -73.5t-74 -30.5t-73.5 30.5t-30.5 73.5zM0 100q0 41 30.5 70t73.5 29t74 -29t31 -70q0 -43 -31 -71.5t-74 -28.5 t-73.5 28.5t-30.5 71.5zM0 301q0 43 30.5 72.5t73.5 29.5t74 -29.5t31 -72.5t-31 -72.5t-74 -29.5t-73.5 29.5t-30.5 72.5zM203 504q0 45 30.5 75.5t73.5 30.5t74 -30.5t31 -75.5t-31 -76t-74 -31t-73.5 31t-30.5 76zM412 713q0 43 29.5 72.5t72.5 29.5t72.5 -29.5 t29.5 -72.5t-29.5 -73t-72.5 -30t-72.5 30t-29.5 73zM616 918q0 43 30 72.5t73 29.5t72.5 -29.5t29.5 -72.5t-29.5 -73t-72.5 -30t-73 30t-30 73zM821 1122q0 43 31 73t76 30q43 0 73.5 -30t30.5 -73t-30.5 -72.5t-73.5 -29.5q-45 0 -76 29.5t-31 72.5zM821 1327 q0 41 31 70.5t76 29.5q43 0 73.5 -29.5t30.5 -70.5q0 -43 -30.5 -72.5t-73.5 -29.5q-45 0 -76 29.5t-31 72.5zM201 915q0 39 31.5 68t76.5 29q43 0 75 -29t32 -68t-32 -67.5t-75 -28.5q-45 0 -76.5 28.5t-31.5 67.5zM614 512q0 43 31 72.5t74 29.5t73.5 -29.5t30.5 -72.5 t-30.5 -72.5t-73.5 -29.5t-74 29.5t-31 72.5zM823 309q0 41 31 71t74 30t73.5 -30t30.5 -71q0 -43 -30.5 -72.5t-73.5 -29.5t-74 29.5t-31 72.5zM815 104q0 41 32 72t77 31t76.5 -31t31.5 -72q0 -43 -31.5 -73.5t-76.5 -30.5t-77 30.5t-32 73.5zM205 1329q0 41 30.5 69.5 t73.5 28.5t74 -28.5t31 -69.5t-31 -69.5t-74 -28.5t-73.5 28.5t-30.5 69.5zM205 1128q0 41 30.5 72t73.5 31t74 -31t31 -72q0 -43 -31 -73.5t-74 -30.5t-73.5 30.5t-30.5 73.5zM205 305q0 41 30.5 69.5t73.5 28.5t74 -28.5t31 -69.5t-31 -69.5t-74 -28.5t-73.5 28.5 t-30.5 69.5zM205 104q0 41 30.5 72t73.5 31t74 -31t31 -72q0 -43 -31 -73.5t-74 -30.5t-73.5 30.5t-30.5 73.5zM1024 1329q0 41 30.5 69.5t73.5 28.5t74 -28.5t31 -69.5t-31 -69.5t-74 -28.5t-73.5 28.5t-30.5 69.5zM1024 1128q0 41 30.5 72t73.5 31t74 -31t31 -72 q0 -43 -31 -73.5t-74 -30.5t-73.5 30.5t-30.5 73.5zM1024 305q0 41 30.5 69.5t73.5 28.5t74 -28.5t31 -69.5t-31 -69.5t-74 -28.5t-73.5 28.5t-30.5 69.5zM1024 104q0 41 30.5 72t73.5 31t74 -31t31 -72q0 -43 -31 -73.5t-74 -30.5t-73.5 30.5t-30.5 73.5zM821 918 q0 43 30 72.5t73 29.5t72.5 -29.5t29.5 -72.5t-29.5 -73t-72.5 -30t-73 30t-30 73zM616 713q0 43 30 72.5t73 29.5t72.5 -29.5t29.5 -72.5t-29.5 -73t-72.5 -30t-73 30t-30 73zM821 508q0 43 30 72.5t73 29.5t72.5 -29.5t29.5 -72.5t-29.5 -72.5t-72.5 -29.5t-73 29.5 t-30 72.5zM412 918q0 43 29.5 72.5t72.5 29.5t72.5 -29.5t29.5 -72.5t-29.5 -73t-72.5 -30t-72.5 30t-29.5 73zM412 508q0 43 29.5 72.5t72.5 29.5t72.5 -29.5t29.5 -72.5t-29.5 -72.5t-72.5 -29.5t-72.5 29.5t-29.5 72.5z" />
<glyph unicode="Y" horiz-adv-x="1433" d="M0 1329q0 41 30.5 69.5t73.5 28.5t74 -28.5t31 -69.5t-31 -69.5t-74 -28.5t-73.5 28.5t-30.5 69.5zM0 1128q0 41 30.5 72t73.5 31t74 -31t31 -72q0 -43 -31 -73.5t-74 -30.5t-73.5 30.5t-30.5 73.5zM0 100q0 41 30.5 70t73.5 29t74 -29t31 -70q0 -43 -31 -71.5t-74 -28.5 t-73.5 28.5t-30.5 71.5zM0 301q0 43 30.5 72.5t73.5 29.5t74 -29.5t31 -72.5t-31 -72.5t-74 -29.5t-73.5 29.5t-30.5 72.5zM203 504q0 45 30.5 75.5t73.5 30.5t74 -30.5t31 -75.5t-31 -76t-74 -31t-73.5 31t-30.5 76zM412 713q0 43 29.5 72.5t72.5 29.5t72.5 -29.5 t29.5 -72.5t-29.5 -73t-72.5 -30t-72.5 30t-29.5 73zM616 918q0 43 30 72.5t73 29.5t72.5 -29.5t29.5 -72.5t-29.5 -73t-72.5 -30t-73 30t-30 73zM821 1122q0 43 31 73t76 30q43 0 73.5 -30t30.5 -73t-30.5 -72.5t-73.5 -29.5q-45 0 -76 29.5t-31 72.5zM821 1327 q0 41 31 70.5t76 29.5q43 0 73.5 -29.5t30.5 -70.5q0 -43 -30.5 -72.5t-73.5 -29.5q-45 0 -76 29.5t-31 72.5zM201 915q0 39 31.5 68t76.5 29q43 0 75 -29t32 -68t-32 -67.5t-75 -28.5q-45 0 -76.5 28.5t-31.5 67.5zM821 918q0 43 30 72.5t73 29.5t72.5 -29.5t29.5 -72.5 t-29.5 -73t-72.5 -30t-73 30t-30 73zM616 713q0 43 30 72.5t73 29.5t72.5 -29.5t29.5 -72.5t-29.5 -73t-72.5 -30t-73 30t-30 73zM412 508q0 43 29.5 72.5t72.5 29.5t72.5 -29.5t29.5 -72.5t-29.5 -72.5t-72.5 -29.5t-72.5 29.5t-29.5 72.5zM207 303q0 43 29.5 73t72.5 30 t73 -30t30 -73t-30 -72.5t-73 -29.5t-72.5 29.5t-29.5 72.5zM207 98q0 43 29.5 73t72.5 30t73 -30t30 -73t-30 -72.5t-73 -29.5t-72.5 29.5t-29.5 72.5zM207 1122q0 43 29.5 73t72.5 30t73 -30t30 -73t-30 -72.5t-73 -29.5t-72.5 29.5t-29.5 72.5zM207 1327q0 43 29.5 73 t72.5 30t73 -30t30 -73t-30 -72.5t-73 -29.5t-72.5 29.5t-29.5 72.5zM412 918q0 43 29.5 72.5t72.5 29.5t72.5 -29.5t29.5 -72.5t-29.5 -73t-72.5 -30t-72.5 30t-29.5 73zM1026 1122q0 43 29.5 73t72.5 30t73 -30t30 -73t-30 -72.5t-73 -29.5t-72.5 29.5t-29.5 72.5z M1026 1327q0 43 29.5 73t72.5 30t73 -30t30 -73t-30 -72.5t-73 -29.5t-72.5 29.5t-29.5 72.5z" />
<glyph unicode="Z" d="M0 1327q0 41 30.5 70.5t73.5 29.5q41 0 72 -29.5t31 -70.5t-31 -70.5t-72 -29.5q-43 0 -73.5 29.5t-30.5 70.5zM207 1327q0 41 30.5 70.5t73.5 29.5t74 -29.5t31 -70.5t-31 -70.5t-74 -29.5t-73.5 29.5t-30.5 70.5zM416 1329q0 41 29.5 69.5t72.5 28.5q41 0 70.5 -28.5 t29.5 -69.5t-29.5 -69.5t-70.5 -28.5q-43 0 -72.5 28.5t-29.5 69.5zM618 1329q0 41 30 69.5t73 28.5t72.5 -28.5t29.5 -69.5t-29.5 -69.5t-72.5 -28.5t-73 28.5t-30 69.5zM614 1124q0 45 30 76t73 31q41 0 70.5 -31t29.5 -76t-29.5 -75.5t-70.5 -30.5q-43 0 -73 30.5 t-30 75.5zM614 918q0 41 31 70.5t76 29.5t75.5 -30t30.5 -70q0 -43 -30.5 -73t-75.5 -30t-76 30t-31 73zM408 713q0 45 30.5 75.5t75.5 30.5q43 0 73.5 -30.5t30.5 -75.5t-30.5 -76t-73.5 -31q-45 0 -75.5 31t-30.5 76zM199 504q0 43 30.5 72.5t73.5 29.5t74 -29.5t31 -72.5 t-31 -73t-74 -30t-73.5 30t-30.5 73zM0 301q0 41 28.5 70.5t71.5 29.5q41 0 70 -29.5t29 -70.5q0 -43 -29 -72.5t-70 -29.5q-43 0 -71.5 29.5t-28.5 72.5zM0 100q0 41 29.5 70t72.5 29t73 -29t30 -70q0 -43 -30 -71.5t-73 -28.5t-72.5 28.5t-29.5 71.5zM205 100 q0 41 30.5 71t73.5 30t74 -30t31 -71t-31 -70.5t-74 -29.5t-73.5 29.5t-30.5 70.5zM414 100q0 41 29.5 71t72.5 30q41 0 70.5 -30t29.5 -71t-29.5 -70.5t-70.5 -29.5q-43 0 -72.5 29.5t-29.5 70.5zM616 100q0 41 31 71t74 30t73.5 -30t30.5 -71t-30.5 -70.5t-73.5 -29.5 t-74 29.5t-31 70.5zM612 713q0 45 31 75.5t76 30.5q43 0 73.5 -30.5t30.5 -75.5t-30.5 -76t-73.5 -31q-45 0 -76 31t-31 76zM408 508q0 45 30.5 75.5t75.5 30.5q43 0 73.5 -30.5t30.5 -75.5t-30.5 -76t-73.5 -31q-45 0 -75.5 31t-30.5 76zM203 303q0 45 30.5 76t75.5 31 q43 0 74 -31t31 -76t-31 -75.5t-74 -30.5q-45 0 -75.5 30.5t-30.5 75.5zM817 918q0 45 31 75.5t76 30.5q43 0 73.5 -30.5t30.5 -75.5t-30.5 -76t-73.5 -31q-45 0 -76 31t-31 76zM817 1122q0 45 31 76t76 31q43 0 73.5 -31t30.5 -76t-30.5 -75.5t-73.5 -30.5q-45 0 -76 30.5 t-31 75.5zM817 1327q0 45 31 76t76 31q43 0 73.5 -31t30.5 -76t-30.5 -75.5t-73.5 -30.5q-45 0 -76 30.5t-31 75.5zM817 98q0 45 31 76t76 31q43 0 73.5 -31t30.5 -76t-30.5 -75.5t-73.5 -30.5q-45 0 -76 30.5t-31 75.5z" />
<glyph unicode="[" horiz-adv-x="819" d="M0 1329q0 41 29.5 69.5t72.5 28.5t73 -28.5t30 -69.5q0 -43 -30 -71.5t-73 -28.5t-72.5 28.5t-29.5 71.5zM0 1124q0 41 30.5 71t73.5 30t74 -30t31 -71t-31 -70.5t-74 -29.5t-73.5 29.5t-30.5 70.5zM0 920q0 43 30.5 73.5t73.5 30.5t74 -30.5t31 -73.5q0 -45 -31 -76 t-74 -31t-73.5 31t-30.5 76zM0 717q0 39 30.5 67.5t73.5 28.5t74 -28.5t31 -67.5t-31 -67.5t-74 -28.5t-73.5 28.5t-30.5 67.5zM0 512q0 45 30.5 77t73.5 32t74 -32t31 -77q0 -47 -31 -79t-74 -32t-73.5 32t-30.5 79zM0 305q0 39 30.5 67.5t75.5 28.5q43 0 74 -28.5 t31 -67.5t-30.5 -67.5t-74.5 -28.5q-45 0 -75.5 28.5t-30.5 67.5zM0 100q0 41 30.5 70t75.5 29q43 0 74 -29t31 -70q0 -43 -30.5 -71.5t-74.5 -28.5q-45 0 -75.5 28.5t-30.5 71.5zM410 1329q0 41 29.5 69.5t72.5 28.5t72.5 -28.5t29.5 -69.5q0 -43 -29.5 -71.5t-72.5 -28.5 t-72.5 28.5t-29.5 71.5zM205 1329q0 41 29.5 69.5t72.5 28.5t73 -28.5t30 -69.5q0 -43 -30 -71.5t-73 -28.5t-72.5 28.5t-29.5 71.5zM205 1124q0 41 30.5 71t73.5 30t74 -30t31 -71t-31 -70.5t-74 -29.5t-73.5 29.5t-30.5 70.5zM205 920q0 43 30.5 73.5t73.5 30.5t74 -30.5 t31 -73.5q0 -45 -31 -76t-74 -31t-73.5 31t-30.5 76zM205 717q0 39 30.5 67.5t73.5 28.5t74 -28.5t31 -67.5t-31 -67.5t-74 -28.5t-73.5 28.5t-30.5 67.5zM205 512q0 45 30.5 77t73.5 32t74 -32t31 -77q0 -47 -31 -79t-74 -32t-73.5 32t-30.5 79zM205 305q0 39 30.5 67.5 t75.5 28.5q43 0 74 -28.5t31 -67.5t-31 -67.5t-74 -28.5q-45 0 -75.5 28.5t-30.5 67.5zM416 104q0 43 29.5 74t72.5 31t73 -31t30 -74t-30 -73.5t-73 -30.5t-72.5 30.5t-29.5 73.5zM205 100q0 41 30.5 70t75.5 29q43 0 74 -29t31 -70q0 -43 -31 -71.5t-74 -28.5 q-45 0 -75.5 28.5t-30.5 71.5z" />
<glyph unicode="\" horiz-adv-x="1433" d="M1036 115q0 41 -30.5 69.5t-73.5 28.5q-45 0 -76 -28.5t-31 -69.5t31 -70t76 -29q43 0 73.5 29t30.5 70zM1036 317q0 43 -30.5 74t-73.5 31q-45 0 -76 -31t-31 -74t31 -73.5t76 -30.5q43 0 73.5 30.5t30.5 73.5zM836 522q0 43 -31 74t-76 31q-43 0 -74.5 -31t-31.5 -74 t31.5 -72.5t74.5 -29.5q45 0 76 29.5t31 72.5zM623 729q0 43 -30 74t-73 31t-73.5 -31t-30.5 -74t30.5 -72.5t73.5 -29.5t73 29.5t30 72.5zM416 934q0 43 -30 72.5t-73 29.5t-72.5 -29.5t-29.5 -72.5q0 -41 29.5 -70.5t72.5 -29.5t73 29.5t30 70.5zM211 1139 q0 43 -29.5 73.5t-72.5 30.5t-73 -30.5t-30 -73.5t30 -73t73 -30t72.5 30t29.5 73zM219 1343q0 41 -30.5 71t-75.5 30q-43 0 -75 -30t-32 -71q0 -43 32 -71.5t75 -28.5q45 0 75.5 28.5t30.5 71.5zM1241 115q0 41 -30.5 69.5t-73.5 28.5q-45 0 -76 -28.5t-31 -69.5t31 -70 t76 -29q43 0 73.5 29t30.5 70zM1241 317q0 43 -30.5 74t-73.5 31q-45 0 -76 -31t-31 -74t31 -73.5t76 -30.5q43 0 73.5 30.5t30.5 73.5zM1040 522q0 43 -30.5 74t-75.5 31q-43 0 -75 -31t-32 -74t32 -72.5t75 -29.5q45 0 75.5 29.5t30.5 72.5zM827 729q0 43 -29.5 74 t-72.5 31t-73.5 -31t-30.5 -74t30.5 -72.5t73.5 -29.5t72.5 29.5t29.5 72.5zM621 934q0 43 -30 72.5t-73 29.5t-72.5 -29.5t-29.5 -72.5q0 -41 29.5 -70.5t72.5 -29.5t73 29.5t30 70.5zM416 1139q0 43 -30 73.5t-73 30.5t-72.5 -30.5t-29.5 -73.5t29.5 -73t72.5 -30t73 30 t30 73zM424 1343q0 41 -31 71t-76 30q-43 0 -74.5 -30t-31.5 -71q0 -43 31.5 -71.5t74.5 -28.5q45 0 76 28.5t31 71.5z" />
<glyph unicode="]" horiz-adv-x="819" d="M221 1339q0 41 -29.5 70t-72.5 29q-41 0 -72 -29t-31 -70t31 -70.5t72 -29.5q43 0 72.5 29.5t29.5 70.5zM426 1135q0 43 -29.5 71.5t-74.5 28.5q-43 0 -74 -28.5t-31 -71.5q0 -41 31 -71t74 -30q45 0 74.5 30t29.5 71zM426 930q0 43 -29.5 73.5t-74.5 30.5 q-43 0 -74 -30.5t-31 -73.5t31 -75t74 -32q45 0 74.5 32t29.5 75zM426 727q0 41 -29.5 68.5t-74.5 27.5q-43 0 -74 -27.5t-31 -68.5q0 -39 31 -67.5t74 -28.5q45 0 74.5 28.5t29.5 67.5zM426 522q0 45 -29.5 77t-74.5 32q-43 0 -74 -32t-31 -77t31 -77.5t74 -32.5 q45 0 74.5 32.5t29.5 77.5zM426 315q0 41 -30.5 69t-73.5 28t-75 -28t-32 -69q0 -39 32 -67.5t75 -28.5t73.5 28.5t30.5 67.5zM215 115q0 45 -29.5 74.5t-72.5 29.5q-41 0 -72 -29.5t-31 -74.5q0 -43 31 -74t72 -31q43 0 72.5 31t29.5 74zM426 1339q0 41 -29.5 70t-72.5 29 q-41 0 -72 -29t-31 -70t31 -70.5t72 -29.5q43 0 72.5 29.5t29.5 70.5zM631 1339q0 41 -30 70t-73 29q-41 0 -71.5 -29t-30.5 -70t30.5 -70.5t71.5 -29.5q43 0 73 29.5t30 70.5zM631 1135q0 43 -30 71.5t-75 28.5q-43 0 -73.5 -28.5t-30.5 -71.5q0 -41 30.5 -71t73.5 -30 q45 0 75 30t30 71zM631 930q0 43 -30 73.5t-75 30.5q-43 0 -73.5 -30.5t-30.5 -73.5t30.5 -75t73.5 -32q45 0 75 32t30 75zM631 727q0 41 -30 68.5t-75 27.5q-43 0 -73.5 -27.5t-30.5 -68.5q0 -39 30.5 -67.5t73.5 -28.5q45 0 75 28.5t30 67.5zM631 522q0 45 -30 77t-75 32 q-43 0 -73.5 -32t-30.5 -77t30.5 -77.5t73.5 -32.5q45 0 75 32.5t30 77.5zM631 315q0 41 -31 69t-74 28t-74.5 -28t-31.5 -69q0 -39 31.5 -67.5t74.5 -28.5t74 28.5t31 67.5zM420 115q0 45 -30 74.5t-73 29.5q-41 0 -71.5 -29.5t-30.5 -74.5q0 -43 30.5 -74t71.5 -31 q43 0 73 31t30 74zM631 111q0 41 -31 69.5t-74 28.5t-74.5 -28.5t-31.5 -69.5t31.5 -71t74.5 -30t74 30t31 71z" />
<glyph unicode="^" horiz-adv-x="1024" d="M0 1126q0 39 30.5 68t75.5 29t76 -29t31 -68q0 -41 -30.5 -69.5t-76.5 -28.5q-45 0 -75.5 28.5t-30.5 69.5zM205 1325q0 41 31.5 71.5t76.5 30.5q43 0 75 -30.5t32 -71.5q0 -43 -32 -73.5t-75 -30.5q-45 0 -76.5 30.5t-31.5 73.5zM416 1126q0 43 29.5 74t72.5 31t73 -31 t30 -74t-30 -73.5t-73 -30.5t-72.5 30.5t-29.5 73.5zM205 1126q0 39 30.5 68t75.5 29t76 -29t31 -68q0 -41 -31 -69.5t-76 -28.5t-75.5 28.5t-30.5 69.5zM410 1325q0 41 31.5 71.5t76.5 30.5q43 0 75 -30.5t32 -71.5q0 -43 -32 -73.5t-75 -30.5q-45 0 -76.5 30.5t-31.5 73.5 zM621 1126q0 43 29.5 74t72.5 31t72.5 -31t29.5 -74t-29.5 -73.5t-72.5 -30.5t-72.5 30.5t-29.5 73.5z" />
<glyph unicode="_" d="M0 -106q0 45 30.5 75.5t75.5 30.5q43 0 74 -30.5t31 -75.5t-30.5 -76t-74.5 -31q-45 0 -75.5 31t-30.5 76zM211 -106q0 45 29.5 75.5t72.5 30.5t73 -30.5t30 -75.5t-30 -76t-73 -31t-72.5 31t-29.5 76zM416 -106q0 45 29.5 75.5t72.5 30.5t73 -30.5t30 -75.5t-30 -76 t-73 -31t-72.5 31t-29.5 76zM621 -109q0 43 29.5 75t72.5 32t72.5 -32t29.5 -75q0 -45 -29.5 -75.5t-72.5 -30.5t-72.5 30.5t-29.5 75.5zM825 -109q0 43 30 75t73 32t72.5 -32t29.5 -75q0 -45 -29.5 -75.5t-72.5 -30.5t-73 30.5t-30 75.5z" />
<glyph unicode="a" d="M203 920q0 41 30.5 70.5t73.5 29.5t74 -29.5t31 -70.5t-31 -71t-74 -30t-73.5 30t-30.5 71zM412 920q0 41 30.5 70.5t75.5 29.5t76 -29.5t31 -70.5t-31 -71t-76 -30t-75.5 30t-30.5 71zM621 717q0 43 29.5 72.5t72.5 29.5t72.5 -29.5t29.5 -72.5t-29.5 -73t-72.5 -30 t-72.5 30t-29.5 73zM614 510q0 43 31 73.5t76 30.5q43 0 73.5 -30.5t30.5 -73.5q0 -45 -30.5 -76t-73.5 -31q-45 0 -76 31t-31 76zM614 301q0 43 31 72.5t74 29.5t73.5 -29.5t30.5 -72.5t-30.5 -72.5t-73.5 -29.5t-74 29.5t-31 72.5zM614 100q0 41 31 70t74 29 q41 0 71.5 -29t30.5 -70q0 -43 -30.5 -71.5t-71.5 -28.5q-43 0 -74 28.5t-31 71.5zM408 100q0 41 30.5 71t73.5 30q41 0 71.5 -30t30.5 -71t-30.5 -70.5t-71.5 -29.5q-43 0 -73.5 29.5t-30.5 70.5zM205 100q0 41 29.5 71t72.5 30q41 0 71 -30t30 -71t-30 -70.5t-71 -29.5 q-43 0 -72.5 29.5t-29.5 70.5zM0 307q0 39 30.5 67.5t75.5 28.5t76 -28.5t31 -67.5t-30.5 -67.5t-76.5 -28.5q-45 0 -75.5 28.5t-30.5 67.5zM203 506q0 41 30.5 69.5t73.5 28.5t74 -28.5t31 -69.5t-31 -69.5t-74 -28.5t-73.5 28.5t-30.5 69.5zM412 510q0 39 29.5 66.5 t70.5 27.5t70.5 -27.5t29.5 -66.5q0 -41 -29.5 -68.5t-70.5 -27.5t-70.5 27.5t-29.5 68.5zM205 307q0 39 30.5 67.5t75.5 28.5t76 -28.5t31 -67.5t-31 -67.5t-76 -28.5t-75.5 28.5t-30.5 67.5zM819 307q0 39 31 67.5t76 28.5t75.5 -28.5t30.5 -67.5t-30.5 -67.5t-75.5 -28.5 t-76 28.5t-31 67.5zM819 102q0 39 31 68t76 29t75.5 -29t30.5 -68t-30.5 -67.5t-75.5 -28.5t-76 28.5t-31 67.5zM819 512q0 39 31 67.5t76 28.5t75.5 -28.5t30.5 -67.5t-30.5 -67.5t-75.5 -28.5t-76 28.5t-31 67.5zM819 717q0 39 31 67.5t76 28.5q43 0 74.5 -27.5 t31.5 -68.5q2 -109 -106 -109q-43 0 -75 34t-32 75zM614 922q0 39 31 67.5t76 28.5t75.5 -28.5t30.5 -67.5t-30.5 -68t-75.5 -29t-76 29t-31 68z" />
<glyph unicode="b" d="M0 1327q0 41 30.5 70.5t75.5 29.5q43 0 74 -29.5t31 -70.5t-30.5 -70.5t-74.5 -29.5q-45 0 -75.5 29.5t-30.5 70.5zM0 1122q0 43 30.5 74t75.5 31q43 0 74 -31t31 -74t-30.5 -73.5t-74.5 -30.5q-45 0 -75.5 30.5t-30.5 73.5zM0 918q0 41 30.5 70.5t75.5 29.5q43 0 74 -30 t31 -70q0 -43 -30.5 -73t-74.5 -30q-45 0 -75.5 30t-30.5 73zM0 715q0 41 30.5 70.5t75.5 29.5q43 0 74 -29.5t31 -70.5t-30.5 -71t-74.5 -30q-45 0 -75.5 30t-30.5 71zM0 512q0 41 30.5 71.5t75.5 30.5q43 0 74 -30.5t31 -71.5q0 -43 -30.5 -73.5t-74.5 -30.5 q-45 0 -75.5 30.5t-30.5 73.5zM0 305q0 41 30.5 72t75.5 31q43 0 74 -31t31 -72q0 -43 -30.5 -73.5t-74.5 -30.5q-45 0 -75.5 30.5t-30.5 73.5zM0 100q0 41 30.5 71t75.5 30q43 0 74 -30t31 -71t-30.5 -70.5t-74.5 -29.5q-45 0 -75.5 29.5t-30.5 70.5zM616 303q0 43 31 74 t76 31t75.5 -31t30.5 -74q0 -45 -30.5 -75.5t-75.5 -30.5t-76 30.5t-31 75.5zM610 506q0 39 32 67.5t79 28.5q45 0 76.5 -28.5t31.5 -67.5q0 -41 -31.5 -69.5t-76.5 -28.5q-47 0 -79 28.5t-32 69.5zM610 709q0 45 31 75.5t76 30.5t75.5 -30.5t30.5 -75.5t-30.5 -76 t-75.5 -31t-76 31t-31 76zM205 1327q0 41 30.5 70.5t75.5 29.5q43 0 74 -29.5t31 -70.5t-31 -70.5t-74 -29.5q-45 0 -75.5 29.5t-30.5 70.5zM205 1122q0 43 30.5 74t75.5 31q43 0 74 -31t31 -74t-31 -73.5t-74 -30.5q-45 0 -75.5 30.5t-30.5 73.5zM205 918q0 41 30.5 70.5 t75.5 29.5q43 0 74 -30t31 -70q0 -43 -31 -73t-74 -30q-45 0 -75.5 30t-30.5 73zM205 715q0 41 30.5 70.5t75.5 29.5q43 0 74 -29.5t31 -70.5t-31 -71t-74 -30q-45 0 -75.5 30t-30.5 71zM205 512q0 41 30.5 71.5t75.5 30.5q43 0 74 -30.5t31 -71.5q0 -43 -31 -73.5 t-74 -30.5q-45 0 -75.5 30.5t-30.5 73.5zM205 305q0 41 30.5 72t75.5 31q43 0 74 -31t31 -72q0 -43 -31 -73.5t-74 -30.5q-45 0 -75.5 30.5t-30.5 73.5zM207 98q0 41 31.5 71t74.5 30t74 -30t31 -71q0 -43 -31 -71.5t-74 -28.5t-74.5 28.5t-31.5 71.5zM416 102q0 43 29.5 73 t72.5 30q41 0 70.5 -30t29.5 -73t-29.5 -72.5t-70.5 -29.5q-43 0 -72.5 29.5t-29.5 72.5zM618 102q0 43 31 73t74 30t73.5 -30t30.5 -73t-30.5 -72.5t-73.5 -29.5t-74 29.5t-31 72.5zM821 303q0 43 31 74t76 31t75.5 -31t30.5 -74q0 -45 -30.5 -75.5t-75.5 -30.5t-76 30.5 t-31 75.5zM829 506q0 96 97 96q45 0 76.5 -28.5t31.5 -67.5q0 -41 -31.5 -69.5t-76.5 -28.5q-97 0 -97 98zM815 709q0 45 31 75.5t76 30.5t75.5 -30.5t30.5 -75.5t-30.5 -76t-75.5 -31t-76 31t-31 76zM616 915q0 43 30 74t71 31t70.5 -31t29.5 -74t-29.5 -73.5t-70.5 -30.5 t-71 30.5t-30 73.5zM412 920q0 41 29.5 70.5t72.5 29.5t72.5 -29.5t29.5 -70.5t-29.5 -71t-72.5 -30t-72.5 30t-29.5 71z" />
<glyph unicode="c" d="M614 715q0 41 31 70.5t74 29.5q41 0 71.5 -29.5t30.5 -70.5t-30.5 -71t-71.5 -30q-43 0 -74 30t-31 71zM410 918q0 41 30.5 71.5t73.5 30.5q41 0 71.5 -31t30.5 -71q0 -43 -30.5 -74t-71.5 -31q-43 0 -73.5 31t-30.5 74zM203 922q0 41 30.5 69.5t73.5 28.5q41 0 72 -28.5 t31 -69.5q0 -43 -31 -72t-72 -29q-43 0 -73.5 29t-30.5 72zM0 717q0 43 29.5 73.5t72.5 30.5q41 0 71 -30.5t30 -73.5q0 -45 -30 -76t-71 -31q-43 0 -72.5 31t-29.5 76zM0 508q0 43 30.5 72.5t75.5 29.5t76 -29.5t31 -72.5t-30.5 -72.5t-76.5 -29.5q-45 0 -75.5 29.5 t-30.5 72.5zM0 303q0 41 30.5 72t75.5 31t76 -31t31 -72q0 -43 -30.5 -73.5t-76.5 -30.5q-45 0 -75.5 30.5t-30.5 73.5zM203 96q0 39 30.5 68t75.5 29q43 0 74 -29t31 -68t-31 -67.5t-74 -28.5q-45 0 -75.5 28.5t-30.5 67.5zM414 100q0 41 29.5 70t72.5 29q41 0 70.5 -29 t29.5 -70q0 -43 -29.5 -71.5t-70.5 -28.5q-43 0 -72.5 28.5t-29.5 71.5zM616 303q0 43 30 74t73 31q41 0 70.5 -31t29.5 -74t-29.5 -73.5t-70.5 -30.5q-43 0 -73 30.5t-30 73.5zM205 717q0 43 29.5 73.5t72.5 30.5q41 0 71 -30.5t30 -73.5q0 -45 -30 -76t-71 -31 q-43 0 -72.5 31t-29.5 76zM205 508q0 43 30.5 72.5t75.5 29.5t76 -29.5t31 -72.5t-31 -72.5t-76 -29.5t-75.5 29.5t-30.5 72.5zM205 303q0 41 30.5 72t75.5 31t76 -31t31 -72q0 -43 -31 -73.5t-76 -30.5t-75.5 30.5t-30.5 73.5zM819 715q0 41 31 70.5t74 29.5 q41 0 71.5 -29.5t30.5 -70.5t-30.5 -71t-71.5 -30q-43 0 -74 30t-31 71zM821 303q0 43 30 74t73 31q41 0 70.5 -31t29.5 -74t-29.5 -73.5t-70.5 -30.5q-43 0 -73 30.5t-30 73.5zM614 920q0 41 31 70.5t74 29.5q41 0 71.5 -29.5t30.5 -70.5t-30.5 -71t-71.5 -30q-43 0 -74 30 t-31 71zM616 98q0 43 30 74t73 31q41 0 70.5 -31t29.5 -74t-29.5 -73.5t-70.5 -30.5q-43 0 -73 30.5t-30 73.5z" />
<glyph unicode="d" d="M815 1327q0 41 -30.5 70.5t-73.5 29.5q-45 0 -76 -29.5t-31 -70.5t31 -70.5t76 -29.5q43 0 73.5 29.5t30.5 70.5zM815 1122q0 43 -30.5 74t-73.5 31q-45 0 -76 -31t-31 -74t31 -73.5t76 -30.5q43 0 73.5 30.5t30.5 73.5zM815 715q0 41 -30.5 70.5t-73.5 29.5 q-45 0 -76 -29.5t-31 -70.5t31 -71t76 -30q43 0 73.5 30t30.5 71zM815 512q0 41 -30.5 71.5t-73.5 30.5q-45 0 -76 -30.5t-31 -71.5q0 -43 31 -73.5t76 -30.5q43 0 73.5 30.5t30.5 73.5zM815 305q0 41 -30.5 72t-73.5 31q-45 0 -76 -31t-31 -72q0 -43 31 -73.5t76 -30.5 q43 0 73.5 30.5t30.5 73.5zM401 102q0 43 -30.5 73t-73.5 30t-73.5 -30t-30.5 -73t30.5 -72.5t73.5 -29.5t73.5 29.5t30.5 72.5zM199 303q0 43 -31 74t-76 31t-75.5 -31t-30.5 -74q0 -45 30.5 -75.5t75.5 -30.5t76 30.5t31 75.5zM205 506q0 39 -32 67.5t-77 28.5 q-47 0 -78.5 -28.5t-31.5 -67.5q0 -41 31.5 -69.5t78.5 -28.5q45 0 77 28.5t32 69.5zM205 709q0 45 -31 75.5t-76 30.5t-75.5 -30.5t-30.5 -75.5t30.5 -76t75.5 -31t76 31t31 76zM403 915q0 43 -29.5 74t-70.5 31t-70.5 -31t-29.5 -74t29.5 -73.5t70.5 -30.5t70.5 30.5 t29.5 73.5zM608 920q0 41 -29.5 70.5t-72.5 29.5t-73 -29.5t-30 -70.5t30 -71t73 -30t72.5 30t29.5 71zM1020 1327q0 41 -31 70.5t-74 29.5q-45 0 -75.5 -29.5t-30.5 -70.5t30.5 -70.5t75.5 -29.5q43 0 74 29.5t31 70.5zM1020 1122q0 43 -31 74t-74 31q-45 0 -75.5 -31 t-30.5 -74t30.5 -73.5t75.5 -30.5q43 0 74 30.5t31 73.5zM1020 918q0 41 -31 70.5t-74 29.5q-45 0 -75.5 -30t-30.5 -70q0 -43 30.5 -73t75.5 -30q43 0 74 30t31 73zM1020 715q0 41 -31 70.5t-74 29.5q-45 0 -75.5 -29.5t-30.5 -70.5t30.5 -71t75.5 -30q43 0 74 30t31 71z M1020 512q0 41 -31 71.5t-74 30.5q-45 0 -75.5 -30.5t-30.5 -71.5q0 -43 30.5 -73.5t75.5 -30.5q43 0 74 30.5t31 73.5zM1020 305q0 41 -31 72t-74 31q-45 0 -75.5 -31t-30.5 -72q0 -43 30.5 -73.5t75.5 -30.5q43 0 74 30.5t31 73.5zM1020 100q0 41 -31 71t-74 30 q-45 0 -75.5 -30t-30.5 -71t30.5 -70.5t75.5 -29.5q43 0 74 29.5t31 70.5zM809 102q0 43 -29.5 73t-70.5 30q-43 0 -73 -30t-30 -73t30 -72.5t73 -29.5q41 0 70.5 29.5t29.5 72.5zM612 102q0 43 -30.5 73t-73.5 30t-74 -30t-31 -73t31 -72.5t74 -29.5t73.5 29.5t30.5 72.5z M403 303q0 43 -30.5 74t-75.5 31t-76 -31t-31 -74q0 -45 31 -75.5t76 -30.5t75.5 30.5t30.5 75.5zM410 506q0 39 -32 67.5t-77 28.5q-96 0 -96 -96q0 -98 96 -98q45 0 77 28.5t32 69.5zM410 709q0 45 -31 75.5t-76 30.5t-75.5 -30.5t-30.5 -75.5t30.5 -76t75.5 -31t76 31 t31 76zM813 920q0 41 -29.5 70.5t-72.5 29.5t-73 -29.5t-30 -70.5t30 -71t73 -30t72.5 30t29.5 71z" />
<glyph unicode="e" d="M203 915q0 41 30.5 71t73.5 30t74 -30t31 -71t-31 -70.5t-74 -29.5t-73.5 29.5t-30.5 70.5zM412 920q0 43 29.5 73.5t72.5 30.5q41 0 70.5 -30.5t29.5 -73.5t-29.5 -74t-70.5 -31q-43 0 -72.5 31t-29.5 74zM618 713q0 43 31 74.5t74 31.5t73.5 -31.5t30.5 -74.5 q0 -45 -30.5 -76t-73.5 -31t-74 31t-31 76zM616 508q0 41 31 70.5t74 29.5t73.5 -29.5t30.5 -70.5t-30.5 -70.5t-73.5 -29.5t-74 29.5t-31 70.5zM410 508q0 41 30.5 70.5t73.5 29.5q41 0 71.5 -29.5t30.5 -70.5t-30.5 -70.5t-71.5 -29.5q-43 0 -73.5 29.5t-30.5 70.5z M207 508q0 41 29.5 70.5t72.5 29.5q41 0 71 -29.5t30 -70.5q0 -43 -30 -72.5t-71 -29.5q-43 0 -72.5 29.5t-29.5 72.5zM0 506q0 41 30.5 70.5t73.5 29.5q41 0 72 -29.5t31 -70.5t-31 -70.5t-72 -29.5q-43 0 -73.5 29.5t-30.5 70.5zM0 713q0 43 30.5 73.5t73.5 30.5 q41 0 72 -30.5t31 -73.5q0 -45 -31 -76t-72 -31q-43 0 -73.5 31t-30.5 76zM0 303q0 41 30.5 69.5t73.5 28.5t74 -28.5t31 -69.5q0 -43 -31 -71.5t-74 -28.5t-73.5 28.5t-30.5 71.5zM207 96q0 39 30.5 68t73.5 29t74 -29t31 -68t-31 -67.5t-74 -28.5t-73.5 28.5t-30.5 67.5z M416 100q0 41 29.5 70t72.5 29t73 -29t30 -70q0 -43 -30 -71.5t-73 -28.5t-72.5 28.5t-29.5 71.5zM823 713q0 43 31 74.5t74 31.5t73.5 -31.5t30.5 -74.5q0 -45 -30.5 -76t-73.5 -31t-74 31t-31 76zM618 918q0 43 31 74.5t74 31.5t73.5 -31.5t30.5 -74.5q0 -45 -30.5 -76 t-73.5 -31t-74 31t-31 76zM823 508q0 43 31 74.5t74 31.5t73.5 -31.5t30.5 -74.5q0 -45 -30.5 -76t-73.5 -31t-74 31t-31 76zM209 713q0 43 30.5 74.5t73.5 31.5t74 -31.5t31 -74.5q0 -45 -31 -76t-74 -31t-73.5 31t-30.5 76zM209 303q0 43 30.5 75t73.5 32t74 -32t31 -75 q0 -45 -31 -75.5t-74 -30.5t-73.5 30.5t-30.5 75.5zM618 98q0 43 31 75t74 32t73.5 -32t30.5 -75q0 -45 -30.5 -75.5t-73.5 -30.5t-74 30.5t-31 75.5z" />
<glyph unicode="f" horiz-adv-x="1024" d="M406 1329q0 41 30.5 69.5t73.5 28.5t73.5 -28.5t30.5 -69.5q0 -43 -30.5 -71.5t-73.5 -28.5t-73.5 28.5t-30.5 71.5zM205 1126q0 43 29.5 73t70.5 30t71 -30t30 -73t-30 -72.5t-71 -29.5t-70.5 29.5t-29.5 72.5zM205 924q0 41 30.5 70.5t73.5 29.5t74 -29.5t31 -70.5 q0 -43 -31 -73t-74 -30t-73.5 30t-30.5 73zM203 717q0 43 30.5 73.5t75.5 30.5q43 0 74 -30.5t31 -73.5q0 -45 -31 -76t-74 -31q-45 0 -75.5 31t-30.5 76zM203 510q0 41 31.5 70.5t76.5 29.5t77 -29.5t32 -70.5t-32 -70.5t-77 -29.5t-76.5 29.5t-31.5 70.5zM201 305 q0 43 31.5 74t78.5 31q45 0 77 -31t32 -74t-32 -73.5t-77 -30.5q-47 0 -78.5 30.5t-31.5 73.5zM201 100q0 41 30.5 71t75.5 30t76 -30t31 -71t-31 -70.5t-76 -29.5t-75.5 29.5t-30.5 70.5zM0 715q0 41 30.5 69.5t73.5 28.5q41 0 72 -28.5t31 -69.5q0 -43 -31 -72t-72 -29 q-43 0 -73.5 29t-30.5 72zM610 1329q0 41 31 69.5t74 28.5t73.5 -28.5t30.5 -69.5q0 -43 -30.5 -71.5t-73.5 -28.5t-74 28.5t-31 71.5zM410 1126q0 43 29.5 73t70.5 30t70.5 -30t29.5 -73t-29.5 -72.5t-70.5 -29.5t-70.5 29.5t-29.5 72.5zM410 924q0 41 30.5 70.5t73.5 29.5 t73.5 -29.5t30.5 -70.5q0 -43 -30.5 -73t-73.5 -30t-73.5 30t-30.5 73zM408 717q0 43 30.5 73.5t75.5 30.5q43 0 73.5 -30.5t30.5 -73.5q0 -45 -30.5 -76t-73.5 -31q-45 0 -75.5 31t-30.5 76zM428 508q0 41 32 70.5t77 29.5t76.5 -29.5t31.5 -70.5q0 -43 -31.5 -71.5 t-76.5 -28.5t-77 28.5t-32 71.5zM426 305q0 43 31.5 74t79.5 31q45 0 76.5 -31t31.5 -74t-31.5 -73.5t-76.5 -30.5q-47 0 -79 30.5t-32 73.5zM414 100q0 41 31.5 71t74.5 30q45 0 76 -30t31 -71q0 -100 -107 -100q-43 0 -74.5 29.5t-31.5 70.5zM610 713q0 41 31 70.5 t74 29.5t72.5 -29.5t29.5 -70.5q0 -43 -29.5 -72t-72.5 -29t-74 29t-31 72z" />
<glyph unicode="g" d="M0 -307q0 41 30.5 69.5t73.5 28.5t74 -28.5t31 -69.5t-31 -70t-74 -29t-73.5 29t-30.5 70zM616 -104q0 43 31 73.5t76 30.5q43 0 73.5 -30.5t30.5 -73.5t-30.5 -74t-73.5 -31q-45 0 -76 31t-31 74zM614 100q0 41 31 71t76 30t75.5 -30t30.5 -71t-30.5 -70.5t-75.5 -29.5 t-76 29.5t-31 70.5zM410 100q0 41 29.5 71t72.5 30t72.5 -30t29.5 -71t-29.5 -70.5t-72.5 -29.5t-72.5 29.5t-29.5 70.5zM201 98q0 41 30.5 70t73.5 29t74 -29t31 -70t-31 -69.5t-74 -28.5t-73.5 28.5t-30.5 69.5zM0 301q0 41 29.5 71.5t70.5 30.5t71 -30.5t30 -71.5 q0 -43 -30 -73.5t-71 -30.5t-70.5 30.5t-29.5 73.5zM0 508q0 43 30.5 73.5t75.5 30.5q43 0 74 -30.5t31 -73.5t-30.5 -74t-74.5 -31q-45 0 -75.5 31t-30.5 74zM0 713q0 41 30.5 69.5t75.5 28.5q43 0 74 -28.5t31 -69.5q0 -43 -30.5 -72t-74.5 -29q-45 0 -75.5 29t-30.5 72z M199 909q0 43 31.5 73t76.5 30q43 0 75 -30t32 -73t-32 -72.5t-75 -29.5q-45 0 -76.5 29.5t-31.5 72.5zM616 715q0 43 30 73.5t73 30.5q41 0 70.5 -30.5t29.5 -73.5q0 -45 -29.5 -76t-70.5 -31q-43 0 -73 31t-30 76zM616 506q0 43 31 72.5t76 29.5q43 0 73.5 -29.5 t30.5 -72.5t-30.5 -73t-73.5 -30q-45 0 -76 30t-31 73zM612 303q0 41 32 70.5t77 29.5q43 0 74.5 -29.5t31.5 -70.5q0 -43 -31.5 -72.5t-74.5 -29.5q-45 0 -77 29.5t-32 72.5zM205 -307q0 41 30.5 69.5t73.5 28.5t74 -28.5t31 -69.5t-31 -70t-74 -29t-73.5 29t-30.5 70z M414 -307q0 41 30.5 69.5t73.5 28.5q41 0 72 -28.5t31 -69.5t-31 -70t-72 -29q-43 0 -73.5 29t-30.5 70zM621 -307q0 41 29.5 69.5t70.5 28.5t70.5 -28.5t29.5 -69.5t-29.5 -70t-70.5 -29t-70.5 29t-29.5 70zM821 -104q0 43 31 73.5t76 30.5q43 0 73.5 -30.5t30.5 -73.5 t-30.5 -74t-73.5 -31q-45 0 -76 31t-31 74zM819 100q0 41 31 71t76 30t75.5 -30t30.5 -71t-30.5 -70.5t-75.5 -29.5t-76 29.5t-31 70.5zM205 301q0 41 29.5 71.5t70.5 30.5t71 -30.5t30 -71.5q0 -43 -30 -73.5t-71 -30.5t-70.5 30.5t-29.5 73.5zM205 508q0 43 30.5 73.5 t75.5 30.5q43 0 74 -30.5t31 -73.5t-31 -74t-74 -31q-45 0 -75.5 31t-30.5 74zM205 713q0 41 30.5 69.5t75.5 28.5q43 0 74 -28.5t31 -69.5q0 -43 -31 -72t-74 -29q-45 0 -75.5 29t-30.5 72zM403 909q0 43 32 73t77 30q43 0 74.5 -30t31.5 -73t-31.5 -72.5t-74.5 -29.5 q-45 0 -77 29.5t-32 72.5zM618 918q0 39 30 66.5t71 27.5t70.5 -28t29.5 -66q0 -41 -29.5 -69t-70.5 -28t-71 28t-30 69zM819 922q0 41 32 69.5t77 28.5q43 0 74.5 -28.5t31.5 -69.5q0 -43 -31.5 -72t-74.5 -29q-45 0 -77 29t-32 72zM821 715q0 43 30 73.5t73 30.5 q41 0 70.5 -30.5t29.5 -73.5q0 -45 -29.5 -76t-70.5 -31q-43 0 -73 31t-30 76zM821 506q0 43 31 72.5t76 29.5q43 0 73.5 -29.5t30.5 -72.5t-30.5 -73t-73.5 -30q-45 0 -76 30t-31 73zM817 303q0 41 32 70.5t77 29.5q43 0 74.5 -29.5t31.5 -70.5q0 -43 -31.5 -72.5 t-74.5 -29.5q-45 0 -77 29.5t-32 72.5z" />
<glyph unicode="h" d="M0 1329q0 41 30.5 69.5t73.5 28.5t74 -28.5t31 -69.5q0 -43 -31 -71.5t-74 -28.5t-73.5 28.5t-30.5 71.5zM0 1126q0 43 30.5 73t73.5 30t74 -30t31 -73t-31 -72.5t-74 -29.5t-73.5 29.5t-30.5 72.5zM0 922q0 43 30.5 72.5t73.5 29.5q41 0 72 -29.5t31 -72.5t-31 -73 t-72 -30q-43 0 -73.5 30t-30.5 73zM0 717q0 41 30.5 71.5t73.5 30.5q41 0 72 -30.5t31 -71.5q0 -43 -31 -74t-72 -31q-43 0 -73.5 31t-30.5 74zM0 508q0 43 30.5 73.5t73.5 30.5t74 -30.5t31 -73.5t-31 -74t-74 -31t-73.5 31t-30.5 74zM0 303q0 41 30.5 70.5t73.5 29.5 t74 -29.5t31 -70.5q0 -43 -31 -72.5t-74 -29.5t-73.5 29.5t-30.5 72.5zM0 100q0 41 30.5 71t73.5 30q41 0 72 -30t31 -71t-31 -70.5t-72 -29.5q-43 0 -73.5 29.5t-30.5 70.5zM616 100q0 41 30 70t73 29t72.5 -29t29.5 -70q0 -43 -29.5 -71.5t-72.5 -28.5t-73 28.5t-30 71.5z M610 303q0 41 31 72t76 31q43 0 73.5 -31t30.5 -72q0 -43 -30.5 -73.5t-73.5 -30.5q-45 0 -76 30.5t-31 73.5zM610 506q0 41 32 70.5t77 29.5q43 0 74.5 -29.5t31.5 -70.5t-31.5 -70.5t-74.5 -29.5q-45 0 -77 29.5t-32 70.5zM612 713q0 45 31 75.5t76 30.5t75.5 -30.5 t30.5 -75.5t-30.5 -76t-75.5 -31t-76 31t-31 76zM207 920q0 43 29.5 72.5t70.5 29.5t71 -29.5t30 -72.5t-30 -73t-71 -30t-70.5 30t-29.5 73zM205 1329q0 41 30.5 69.5t73.5 28.5t74 -28.5t31 -69.5q0 -43 -31 -71.5t-74 -28.5t-73.5 28.5t-30.5 71.5zM205 1126 q0 43 30.5 73t73.5 30t74 -30t31 -73t-31 -72.5t-74 -29.5t-73.5 29.5t-30.5 72.5zM205 717q0 41 30.5 71.5t73.5 30.5q41 0 72 -30.5t31 -71.5q0 -43 -31 -74t-72 -31q-43 0 -73.5 31t-30.5 74zM205 508q0 43 30.5 73.5t73.5 30.5t74 -30.5t31 -73.5t-31 -74t-74 -31 t-73.5 31t-30.5 74zM205 303q0 41 30.5 70.5t73.5 29.5t74 -29.5t31 -70.5q0 -43 -31 -72.5t-74 -29.5t-73.5 29.5t-30.5 72.5zM205 100q0 41 30.5 71t73.5 30q41 0 72 -30t31 -71t-31 -70.5t-72 -29.5q-43 0 -73.5 29.5t-30.5 70.5zM821 100q0 41 30 70t73 29t72.5 -29 t29.5 -70q0 -43 -29.5 -71.5t-72.5 -28.5t-73 28.5t-30 71.5zM815 303q0 41 31 72t76 31q43 0 73.5 -31t30.5 -72q0 -43 -30.5 -73.5t-73.5 -30.5q-45 0 -76 30.5t-31 73.5zM815 506q0 41 32 70.5t77 29.5q43 0 74.5 -29.5t31.5 -70.5t-31.5 -70.5t-74.5 -29.5 q-45 0 -77 29.5t-32 70.5zM817 713q0 45 31 75.5t76 30.5t75.5 -30.5t30.5 -75.5t-30.5 -76t-75.5 -31t-76 31t-31 76zM612 922q0 41 30 70.5t73 29.5t72.5 -29.5t29.5 -70.5q0 -43 -29.5 -73t-72.5 -30t-73 30t-30 73zM410 920q0 43 28.5 72.5t71.5 29.5q41 0 70.5 -29.5 t29.5 -72.5t-29.5 -73t-70.5 -30q-43 0 -71.5 30t-28.5 73z" />
<glyph unicode="i" horiz-adv-x="1024" d="M0 100q0 41 30.5 71t75.5 30q43 0 74 -30t31 -71t-30.5 -70.5t-74.5 -29.5q-45 0 -75.5 29.5t-30.5 70.5zM211 100q0 41 29.5 71t70.5 30t72 -31t31 -72q0 -43 -29 -71.5t-72 -28.5q-41 0 -71.5 30.5t-30.5 71.5zM414 96q0 41 29.5 71t72.5 30t72.5 -30t29.5 -71 t-29.5 -70.5t-72.5 -29.5t-72.5 29.5t-29.5 70.5zM0 922q0 39 30.5 67.5t75.5 28.5t76 -28.5t31 -67.5t-30.5 -68t-76.5 -29q-45 0 -75.5 29t-30.5 68zM201 717q0 43 30.5 72.5t75.5 29.5q43 0 74 -29.5t31 -72.5t-31 -73t-74 -30q-45 0 -75.5 30t-30.5 73zM201 510 q0 43 31.5 73.5t76.5 30.5q43 0 75 -30.5t32 -73.5t-32 -73.5t-75 -30.5q-45 0 -76.5 30.5t-31.5 73.5zM201 305q0 41 31.5 71t76.5 30q43 0 75 -30t32 -71q0 -43 -32 -72.5t-75 -29.5q-45 0 -76.5 29.5t-31.5 72.5zM201 1327q0 41 30.5 70.5t75.5 29.5t76 -29.5t31 -70.5 t-31 -70.5t-76 -29.5t-75.5 29.5t-30.5 70.5zM616 100q0 41 30 71t73 30t72.5 -30t29.5 -71t-29.5 -70.5t-72.5 -29.5t-73 29.5t-30 70.5zM205 922q0 39 30.5 67.5t75.5 28.5t76 -28.5t31 -67.5t-31 -68t-76 -29t-75.5 29t-30.5 68zM418 920q0 41 28.5 69.5t71.5 28.5 q41 0 69.5 -28.5t28.5 -69.5q0 -43 -28.5 -72t-69.5 -29q-43 0 -71.5 29t-28.5 72zM406 717q0 43 30.5 72.5t75.5 29.5q43 0 73.5 -29.5t30.5 -72.5t-30.5 -73t-73.5 -30q-45 0 -75.5 30t-30.5 73zM406 510q0 43 31.5 73.5t76.5 30.5q43 0 75 -30.5t32 -73.5t-32 -73.5 t-75 -30.5q-45 0 -76.5 30.5t-31.5 73.5zM406 305q0 41 31.5 71t76.5 30q43 0 75 -30t32 -71q0 -43 -32 -72.5t-75 -29.5q-45 0 -76.5 29.5t-31.5 72.5zM406 1327q0 41 30.5 70.5t75.5 29.5t75.5 -29.5t30.5 -70.5t-30.5 -70.5t-75.5 -29.5t-75.5 29.5t-30.5 70.5z" />
<glyph unicode="j" horiz-adv-x="1024" d="M412 1329q0 41 29.5 69.5t70.5 28.5t70.5 -28.5t29.5 -69.5q0 -43 -29.5 -71.5t-70.5 -28.5t-70.5 28.5t-29.5 71.5zM205 922q0 39 30.5 67.5t73.5 28.5t74 -28.5t31 -67.5t-31 -68t-74 -29t-73.5 29t-30.5 68zM408 717q0 41 30.5 71.5t73.5 30.5t73.5 -30.5t30.5 -71.5 q0 -43 -30.5 -74t-73.5 -31t-73.5 31t-30.5 74zM408 512q0 41 30.5 70.5t75.5 29.5t76 -29.5t31 -70.5t-31 -70.5t-76 -29.5t-75.5 29.5t-30.5 70.5zM406 309q0 43 31.5 73t76.5 30q43 0 75 -30t32 -73t-32 -72.5t-75 -29.5q-45 0 -76.5 29.5t-31.5 72.5zM406 104 q0 41 30.5 72t75.5 31q43 0 73.5 -31t30.5 -72q0 -43 -30.5 -73.5t-73.5 -30.5q-45 0 -75.5 30.5t-30.5 73.5zM406 -102q0 43 30.5 72.5t75.5 29.5t75.5 -29.5t30.5 -72.5q0 -41 -30.5 -71t-75.5 -30t-75.5 30t-30.5 71zM205 -305q0 43 29.5 72.5t70.5 29.5t71 -29.5 t30 -72.5q0 -41 -30 -71t-71 -30t-70.5 30t-29.5 71zM0 -309q0 41 29.5 69.5t72.5 28.5t73 -28.5t30 -69.5q0 -39 -30 -68t-73 -29t-72.5 29t-29.5 68zM-209 -106q0 45 31 75.5t74 30.5t73.5 -30.5t30.5 -75.5q0 -43 -30.5 -74t-73.5 -31t-74 31t-31 74zM616 1329 q0 41 30 69.5t71 28.5t70.5 -28.5t29.5 -69.5q0 -43 -29.5 -71.5t-70.5 -28.5t-71 28.5t-30 71.5zM410 922q0 39 30.5 67.5t73.5 28.5t73.5 -28.5t30.5 -67.5t-30.5 -68t-73.5 -29t-73.5 29t-30.5 68zM618 920q0 41 30 69.5t73 28.5q41 0 70.5 -28.5t29.5 -69.5 q0 -43 -29.5 -72t-70.5 -29q-43 0 -73 29t-30 72zM612 717q0 41 31 71.5t74 30.5t73.5 -30.5t30.5 -71.5q0 -43 -30.5 -74t-73.5 -31t-74 31t-31 74zM612 512q0 41 31 70.5t76 29.5t75.5 -29.5t30.5 -70.5t-30.5 -70.5t-75.5 -29.5t-76 29.5t-31 70.5zM610 309q0 43 32 73 t77 30q43 0 74.5 -30t31.5 -73t-31.5 -72.5t-74.5 -29.5q-45 0 -77 29.5t-32 72.5zM610 104q0 41 31 72t76 31q43 0 73.5 -31t30.5 -72q0 -43 -30.5 -73.5t-73.5 -30.5q-45 0 -76 30.5t-31 73.5zM610 -102q0 43 31 72.5t76 29.5t75.5 -29.5t30.5 -72.5q0 -41 -30.5 -71 t-75.5 -30t-76 30t-31 71zM410 -305q0 43 29.5 72.5t70.5 29.5t70.5 -29.5t29.5 -72.5q0 -41 -29.5 -71t-70.5 -30t-70.5 30t-29.5 71zM-4 -106q0 45 30.5 75.5t73.5 30.5t74 -30.5t31 -75.5q0 -43 -31 -74t-74 -31t-73.5 31t-30.5 74z" />
<glyph unicode="k" d="M0 1327q0 41 30.5 70.5t73.5 29.5t74 -29.5t31 -70.5t-31 -70.5t-74 -29.5t-73.5 29.5t-30.5 70.5zM0 1126q0 41 30.5 71t73.5 30t74 -30t31 -71q0 -43 -31 -72.5t-74 -29.5t-73.5 29.5t-30.5 72.5zM0 924q0 41 30.5 70.5t75.5 29.5q43 0 74 -29.5t31 -70.5t-30.5 -71 t-74.5 -30q-45 0 -75.5 30t-30.5 71zM0 719q0 43 30.5 73.5t75.5 30.5q43 0 74 -30.5t31 -73.5q0 -45 -30.5 -76t-74.5 -31q-45 0 -75.5 31t-30.5 76zM0 512q0 41 29.5 70.5t72.5 29.5t73 -29.5t30 -70.5q0 -43 -30 -72.5t-73 -29.5t-72.5 29.5t-29.5 72.5zM410 715 q0 41 30.5 70.5t75.5 29.5t76 -29.5t31 -70.5q0 -43 -31 -73t-76 -30t-75.5 30t-30.5 73zM623 918q0 41 29.5 70.5t70.5 29.5t70.5 -30t29.5 -70q0 -43 -29.5 -73t-70.5 -30t-70.5 30t-29.5 73zM0 100q0 41 30.5 71t73.5 30t74 -30t31 -71t-31 -70.5t-74 -29.5t-73.5 29.5 t-30.5 70.5zM0 305q0 41 30.5 71t73.5 30q41 0 72 -30t31 -71q0 -43 -31 -72.5t-72 -29.5q-43 0 -73.5 29.5t-30.5 72.5zM610 102q0 41 31 71t76 30t75.5 -30t30.5 -71q0 -43 -30.5 -72.5t-75.5 -29.5t-76 29.5t-31 72.5zM410 305q0 41 29.5 71t70.5 30t70.5 -30t29.5 -71 q0 -43 -29.5 -72.5t-70.5 -29.5t-70.5 29.5t-29.5 72.5zM205 1327q0 41 30.5 70.5t73.5 29.5t74 -29.5t31 -70.5t-31 -70.5t-74 -29.5t-73.5 29.5t-30.5 70.5zM205 1126q0 41 30.5 71t73.5 30t74 -30t31 -71q0 -43 -31 -72.5t-74 -29.5t-73.5 29.5t-30.5 72.5zM205 924 q0 41 30.5 70.5t75.5 29.5q43 0 74 -29.5t31 -70.5t-31 -71t-74 -30q-45 0 -75.5 30t-30.5 71zM205 719q0 43 30.5 73.5t75.5 30.5q43 0 74 -30.5t31 -73.5q0 -45 -31 -76t-74 -31q-45 0 -75.5 31t-30.5 76zM205 512q0 41 29.5 70.5t72.5 29.5t73 -29.5t30 -70.5 q0 -43 -30 -72.5t-73 -29.5t-72.5 29.5t-29.5 72.5zM410 512q0 41 29.5 70.5t72.5 29.5t72.5 -29.5t29.5 -70.5q0 -43 -29.5 -72.5t-72.5 -29.5t-72.5 29.5t-29.5 72.5zM623 715q0 41 31.5 70.5t74.5 29.5q45 0 76 -29.5t31 -70.5q0 -43 -31 -73t-76 -30q-43 0 -74.5 30 t-31.5 73zM827 918q0 41 30 70.5t71 29.5t70.5 -30t29.5 -70q0 -43 -29.5 -73t-70.5 -30t-71 30t-30 73zM205 100q0 41 30.5 71t73.5 30t74 -30t31 -71t-31 -70.5t-74 -29.5t-73.5 29.5t-30.5 70.5zM205 305q0 41 30.5 71t73.5 30q41 0 72 -30t31 -71q0 -43 -31 -72.5 t-72 -29.5q-43 0 -73.5 29.5t-30.5 72.5zM815 102q0 41 31 71t76 30t75.5 -30t30.5 -71q0 -43 -30.5 -72.5t-75.5 -29.5t-76 29.5t-31 72.5zM614 305q0 41 30 71t71 30t70.5 -30t29.5 -71q0 -43 -29.5 -72.5t-70.5 -29.5t-71 29.5t-30 72.5z" />
<glyph unicode="l" horiz-adv-x="1024" d="M0 1331q0 39 30.5 67.5t73.5 28.5t74 -28.5t31 -67.5q0 -41 -31 -69.5t-74 -28.5t-73.5 28.5t-30.5 69.5zM205 1122q0 41 30.5 71t73.5 30q41 0 72 -30t31 -71t-31 -70.5t-72 -29.5q-43 0 -73.5 29.5t-30.5 70.5zM205 920q0 41 30.5 71.5t73.5 30.5q41 0 72 -30.5 t31 -71.5q0 -43 -31 -74t-72 -31q-43 0 -73.5 31t-30.5 74zM203 715q0 41 30.5 70.5t73.5 29.5t74 -29.5t31 -70.5q0 -43 -31 -73t-74 -30t-73.5 30t-30.5 73zM203 510q0 41 31.5 71.5t76.5 30.5q43 0 75 -30.5t32 -71.5q0 -43 -32 -73.5t-75 -30.5q-45 0 -76.5 30.5 t-31.5 73.5zM207 303q0 43 30.5 73t75.5 30q43 0 74 -30t31 -73t-31 -72.5t-74 -29.5q-45 0 -75.5 29.5t-30.5 72.5zM0 98q0 41 30.5 70t73.5 29q41 0 72 -29t31 -70t-31 -69.5t-72 -28.5q-43 0 -73.5 28.5t-30.5 69.5zM205 1331q0 39 30.5 67.5t73.5 28.5t74 -28.5 t31 -67.5q0 -41 -31 -69.5t-74 -28.5t-73.5 28.5t-30.5 69.5zM414 1331q0 39 30.5 67.5t73.5 28.5q41 0 72 -28.5t31 -67.5q0 -41 -31 -69.5t-72 -28.5q-43 0 -73.5 28.5t-30.5 69.5zM410 1122q0 41 30.5 71t73.5 30q41 0 71.5 -30t30.5 -71t-30.5 -70.5t-71.5 -29.5 q-43 0 -73.5 29.5t-30.5 70.5zM410 920q0 41 30.5 71.5t73.5 30.5q41 0 71.5 -30.5t30.5 -71.5q0 -43 -30.5 -74t-71.5 -31q-43 0 -73.5 31t-30.5 74zM408 715q0 41 30.5 70.5t73.5 29.5t73.5 -29.5t30.5 -70.5q0 -43 -30.5 -73t-73.5 -30t-73.5 30t-30.5 73zM408 510 q0 41 31.5 71.5t76.5 30.5q43 0 75 -30.5t32 -71.5q0 -43 -32 -73.5t-75 -30.5q-45 0 -76.5 30.5t-31.5 73.5zM412 303q0 43 30.5 73t75.5 30q43 0 74 -30t31 -73t-31 -72.5t-74 -29.5q-45 0 -75.5 29.5t-30.5 72.5zM412 100q0 41 29.5 71t72.5 30t72.5 -30t29.5 -71 t-29.5 -70.5t-72.5 -29.5t-72.5 29.5t-29.5 70.5zM616 100q0 41 31 71t74 30t73.5 -30t30.5 -71t-30.5 -70.5t-73.5 -29.5t-74 29.5t-31 70.5zM211 96q0 41 29.5 70t72.5 29t74 -29t31 -70t-31 -69.5t-74 -28.5t-72.5 28.5t-29.5 69.5z" />
<glyph unicode="m" horiz-adv-x="1638" d="M205 100q0 41 29.5 71t72.5 30t73 -30t30 -71t-30 -70.5t-73 -29.5t-72.5 29.5t-29.5 70.5zM205 303q0 41 29.5 70.5t72.5 29.5t73 -29.5t30 -70.5q0 -43 -30 -72.5t-73 -29.5t-72.5 29.5t-29.5 72.5zM205 506q0 41 30.5 70.5t75.5 29.5t76 -29.5t31 -70.5q0 -43 -31 -73 t-76 -30t-75.5 30t-30.5 73zM205 711q0 43 30.5 73.5t75.5 30.5t76 -30.5t31 -73.5t-31 -74t-76 -31t-75.5 31t-30.5 74zM205 918q0 41 30.5 70.5t73.5 29.5q41 0 72 -30t31 -70q0 -43 -31 -73t-72 -30q-43 0 -73.5 30t-30.5 73zM412 922q0 39 30.5 67.5t73.5 28.5 q41 0 71.5 -28.5t30.5 -67.5q0 -41 -30.5 -70t-71.5 -29q-43 0 -73.5 29t-30.5 70zM618 719q0 43 30 73.5t73 30.5t72.5 -30.5t29.5 -73.5t-29.5 -74t-72.5 -31t-73 31t-30 74zM612 512q0 43 31 72.5t76 29.5q43 0 73.5 -29.5t30.5 -72.5t-30.5 -72.5t-73.5 -29.5 q-45 0 -76 29.5t-31 72.5zM612 309q0 41 31 71t76 30q43 0 73.5 -30t30.5 -71q0 -43 -30.5 -72.5t-73.5 -29.5q-45 0 -76 29.5t-31 72.5zM612 104q0 41 31 72t76 31q43 0 73.5 -31t30.5 -72q0 -43 -30.5 -73.5t-73.5 -30.5q-45 0 -76 30.5t-31 73.5zM1020 100q0 41 31.5 71 t76.5 30q43 0 75 -30t32 -71t-32 -70.5t-75 -29.5q-45 0 -76.5 29.5t-31.5 70.5zM1022 305q0 41 30.5 72t75.5 31t76 -31t31 -72q0 -43 -30.5 -73.5t-76.5 -30.5q-45 0 -75.5 30.5t-30.5 73.5zM1022 508q0 41 30.5 70.5t75.5 29.5t76 -29.5t31 -70.5t-30.5 -70.5 t-76.5 -29.5q-45 0 -75.5 29.5t-30.5 70.5zM1024 713q0 43 30.5 73.5t75.5 30.5q43 0 74 -30.5t31 -73.5t-30.5 -74t-74.5 -31q-45 0 -75.5 31t-30.5 74zM821 918q0 41 30 70.5t73 29.5q41 0 70.5 -30t29.5 -70q0 -41 -29.5 -71t-70.5 -30q-43 0 -73 30t-30 71zM1225 100 q0 41 31.5 71t76.5 30q43 0 75 -30t32 -71t-32 -70.5t-75 -29.5q-45 0 -76.5 29.5t-31.5 70.5zM1227 305q0 41 30.5 72t75.5 31t76 -31t31 -72q0 -43 -31 -73.5t-76 -30.5t-75.5 30.5t-30.5 73.5zM1227 508q0 41 30.5 70.5t75.5 29.5t76 -29.5t31 -70.5t-31 -70.5t-76 -29.5 t-75.5 29.5t-30.5 70.5zM1229 713q0 43 30.5 73.5t75.5 30.5q43 0 74 -30.5t31 -73.5t-31 -74t-74 -31q-45 0 -75.5 31t-30.5 74zM-4 100q0 41 31.5 71t76.5 30q43 0 75 -30t32 -71t-32 -70.5t-75 -29.5q-45 0 -76.5 29.5t-31.5 70.5zM-2 305q0 41 30.5 72t75.5 31t76 -31 t31 -72q0 -43 -30.5 -73.5t-76.5 -30.5q-45 0 -75.5 30.5t-30.5 73.5zM-2 508q0 41 30.5 70.5t75.5 29.5t76 -29.5t31 -70.5t-30.5 -70.5t-76.5 -29.5q-45 0 -75.5 29.5t-30.5 70.5zM0 713q0 43 30.5 73.5t75.5 30.5q43 0 74 -30.5t31 -73.5t-30.5 -74t-74.5 -31 q-45 0 -75.5 31t-30.5 74zM1026 918q0 41 29.5 70.5t72.5 29.5q41 0 71 -30t30 -70q0 -41 -30 -71t-71 -30q-43 0 -72.5 30t-29.5 71zM2 918q0 41 29.5 70.5t72.5 29.5q41 0 71 -30t30 -70q0 -41 -30 -71t-71 -30q-43 0 -72.5 30t-29.5 71z" />
<glyph unicode="n" d="M0 98q0 41 30.5 70t75.5 29q43 0 74 -29t31 -70t-30.5 -69.5t-74.5 -28.5q-45 0 -75.5 28.5t-30.5 69.5zM0 301q0 41 30.5 71.5t75.5 30.5q43 0 74 -30.5t31 -71.5q0 -43 -30.5 -73.5t-74.5 -30.5q-45 0 -75.5 30.5t-30.5 73.5zM0 508q0 41 30.5 71.5t73.5 30.5 q41 0 72 -30.5t31 -71.5q0 -43 -31 -74t-72 -31q-43 0 -73.5 31t-30.5 74zM0 711q0 41 30.5 70.5t73.5 29.5q41 0 72 -29.5t31 -70.5t-31 -71t-72 -30q-43 0 -73.5 30t-30.5 71zM0 915q0 43 30.5 74t73.5 31q41 0 72 -31t31 -74t-31 -73.5t-72 -30.5q-43 0 -73.5 30.5 t-30.5 73.5zM616 715q0 41 31 70.5t74 29.5t73.5 -29.5t30.5 -70.5t-30.5 -71t-73.5 -30t-74 30t-31 71zM610 512q0 41 32 71.5t77 30.5q43 0 74.5 -30.5t31.5 -71.5q0 -43 -31.5 -73.5t-74.5 -30.5q-45 0 -77 30.5t-32 73.5zM610 305q0 43 31 73t76 30q43 0 73.5 -30 t30.5 -73t-30.5 -72.5t-73.5 -29.5q-45 0 -76 29.5t-31 72.5zM616 102q0 41 30 71t73 30t72.5 -30t29.5 -71q0 -43 -29.5 -72.5t-72.5 -29.5t-73 29.5t-30 72.5zM205 98q0 41 30.5 70t75.5 29q43 0 74 -29t31 -70t-31 -69.5t-74 -28.5q-45 0 -75.5 28.5t-30.5 69.5zM205 301 q0 41 30.5 71.5t75.5 30.5q43 0 74 -30.5t31 -71.5q0 -43 -31 -73.5t-74 -30.5q-45 0 -75.5 30.5t-30.5 73.5zM205 508q0 41 30.5 71.5t73.5 30.5q41 0 72 -30.5t31 -71.5q0 -43 -31 -74t-72 -31q-43 0 -73.5 31t-30.5 74zM205 711q0 41 30.5 70.5t73.5 29.5q41 0 72 -29.5 t31 -70.5t-31 -71t-72 -30q-43 0 -73.5 30t-30.5 71zM207 915q0 43 30.5 74t73.5 31t73 -31t30 -74q0 -47 -31 -75.5t-72 -28.5q-43 0 -73.5 30.5t-30.5 73.5zM416 920q0 41 29.5 70.5t70.5 29.5q43 0 71.5 -29.5t28.5 -70.5q0 -43 -28.5 -73t-71.5 -30q-41 0 -70.5 30 t-29.5 73zM614 918q0 41 31 69.5t74 28.5q41 0 71.5 -29t30.5 -69q0 -43 -30.5 -72t-71.5 -29q-43 0 -74 29t-31 72zM821 715q0 41 31 70.5t74 29.5t73.5 -29.5t30.5 -70.5t-30.5 -71t-73.5 -30t-74 30t-31 71zM815 512q0 41 32 71.5t77 30.5q43 0 74.5 -30.5t31.5 -71.5 q0 -43 -31.5 -73.5t-74.5 -30.5q-45 0 -77 30.5t-32 73.5zM815 305q0 43 31 73t76 30q43 0 73.5 -30t30.5 -73t-30.5 -72.5t-73.5 -29.5q-45 0 -76 29.5t-31 72.5zM821 102q0 41 30 71t73 30t72.5 -30t29.5 -71q0 -43 -29.5 -72.5t-72.5 -29.5t-73 29.5t-30 72.5z" />
<glyph unicode="o" d="M0 711q0 39 30.5 67.5t73.5 28.5t74 -28.5t31 -67.5t-31 -68t-74 -29t-73.5 29t-30.5 68zM0 512q0 41 30.5 71.5t73.5 30.5t74 -30.5t31 -71.5q0 -43 -31 -73.5t-74 -30.5t-73.5 30.5t-30.5 73.5zM0 307q0 41 30.5 71t73.5 30t74 -30t31 -71q0 -43 -31 -72.5t-74 -29.5 t-73.5 29.5t-30.5 72.5zM209 102q0 43 29.5 73t72.5 30q41 0 71 -30t30 -73t-30 -72.5t-71 -29.5q-43 0 -72.5 29.5t-29.5 72.5zM618 303q0 41 30 70.5t73 29.5t72.5 -29.5t29.5 -70.5q0 -43 -29.5 -72.5t-72.5 -29.5t-73 29.5t-30 72.5zM612 506q0 43 31 72.5t76 29.5 q43 0 73.5 -29.5t30.5 -72.5t-30.5 -73t-73.5 -30q-45 0 -76 30t-31 73zM612 713q0 41 31 71.5t76 30.5q43 0 73.5 -30.5t30.5 -71.5q0 -43 -30.5 -74t-73.5 -31q-45 0 -76 31t-31 74zM203 920q0 41 30.5 70.5t73.5 29.5q41 0 72 -29.5t31 -70.5q0 -43 -31 -73t-72 -30 q-43 0 -73.5 30t-30.5 73zM205 711q0 39 30.5 67.5t73.5 28.5t74 -28.5t31 -67.5t-31 -68t-74 -29t-73.5 29t-30.5 68zM205 512q0 41 30.5 71.5t73.5 30.5t74 -30.5t31 -71.5q0 -43 -31 -73.5t-74 -30.5t-73.5 30.5t-30.5 73.5zM205 307q0 41 30.5 71t73.5 30t74 -30t31 -71 q0 -43 -31 -72.5t-74 -29.5t-73.5 29.5t-30.5 72.5zM414 102q0 43 29.5 73t72.5 30q41 0 70.5 -30t29.5 -73t-29.5 -72.5t-70.5 -29.5q-43 0 -72.5 29.5t-29.5 72.5zM616 100q0 41 31 71t74 30q41 0 71.5 -30t30.5 -71t-30.5 -70.5t-71.5 -29.5q-43 0 -74 29.5t-31 70.5z M823 303q0 41 30 70.5t73 29.5t72.5 -29.5t29.5 -70.5q0 -43 -29.5 -72.5t-72.5 -29.5t-73 29.5t-30 72.5zM817 506q0 43 31 72.5t76 29.5q43 0 73.5 -29.5t30.5 -72.5t-30.5 -73t-73.5 -30q-45 0 -76 30t-31 73zM817 713q0 41 31 71.5t76 30.5q43 0 73.5 -30.5t30.5 -71.5 q0 -43 -30.5 -74t-73.5 -31q-45 0 -76 31t-31 74zM614 924q0 39 31 67.5t74 28.5t73.5 -28.5t30.5 -67.5q0 -41 -30.5 -70t-73.5 -29t-74 29t-31 70zM408 915q0 43 30.5 73t73.5 30q41 0 71.5 -30t30.5 -73q0 -41 -30.5 -70.5t-71.5 -29.5q-43 0 -73.5 29.5t-30.5 70.5z" />
<glyph unicode="p" d="M0 -307q0 41 30.5 69.5t73.5 28.5t74 -28.5t31 -69.5t-31 -70t-74 -29t-73.5 29t-30.5 70zM0 -104q0 43 30.5 73.5t73.5 30.5t74 -30.5t31 -73.5t-31 -74t-74 -31t-73.5 31t-30.5 74zM0 102q0 43 30.5 73t75.5 30t76 -30t31 -73t-30.5 -72.5t-76.5 -29.5 q-45 0 -75.5 29.5t-30.5 72.5zM0 305q0 41 30.5 69.5t75.5 28.5t76 -28.5t31 -69.5q0 -43 -30.5 -71.5t-76.5 -28.5q-45 0 -75.5 28.5t-30.5 71.5zM0 506q0 41 30.5 70.5t73.5 29.5q41 0 72 -29.5t31 -70.5q0 -43 -31 -73t-72 -30q-43 0 -73.5 30t-30.5 73zM0 711 q0 43 30.5 73.5t73.5 30.5q41 0 72 -30.5t31 -73.5t-31 -74t-72 -31q-43 0 -73.5 31t-30.5 74zM0 918q0 43 30.5 72.5t75.5 29.5q43 0 74 -29.5t31 -72.5t-30.5 -73t-74.5 -30q-45 0 -75.5 30t-30.5 73zM623 719q0 43 28.5 73.5t71.5 30.5q41 0 69.5 -30.5t28.5 -73.5 q0 -45 -28.5 -76t-69.5 -31q-43 0 -71.5 31t-28.5 76zM612 510q0 41 31 71.5t74 30.5t73.5 -30.5t30.5 -71.5q0 -43 -30.5 -73.5t-73.5 -30.5t-74 30.5t-31 73.5zM612 305q0 41 31 71t76 30q43 0 73.5 -30t30.5 -71q0 -43 -30.5 -72.5t-73.5 -29.5q-45 0 -76 29.5t-31 72.5z M406 100q0 41 31.5 71t76.5 30q96 0 96 -101q0 -100 -96 -100q-45 0 -76.5 29.5t-31.5 70.5zM215 100q0 41 27.5 71t68.5 30q39 0 67 -30t28 -71t-28 -70.5t-67 -29.5q-41 0 -68.5 29.5t-27.5 70.5zM205 -307q0 41 30.5 69.5t73.5 28.5t74 -28.5t31 -69.5t-31 -70t-74 -29 t-73.5 29t-30.5 70zM205 -104q0 43 30.5 73.5t73.5 30.5t74 -30.5t31 -73.5t-31 -74t-74 -31t-73.5 31t-30.5 74zM205 305q0 41 30.5 69.5t75.5 28.5t76 -28.5t31 -69.5q0 -43 -31 -71.5t-76 -28.5t-75.5 28.5t-30.5 71.5zM205 506q0 41 30.5 70.5t73.5 29.5q41 0 72 -29.5 t31 -70.5q0 -43 -31 -73t-72 -30q-43 0 -73.5 30t-30.5 73zM205 711q0 43 30.5 73.5t73.5 30.5q41 0 72 -30.5t31 -73.5t-31 -74t-72 -31q-43 0 -73.5 31t-30.5 74zM205 918q0 43 30.5 72.5t75.5 29.5q43 0 74 -29.5t31 -72.5t-31 -73t-74 -30q-45 0 -75.5 30t-30.5 73z M414 913q0 43 28.5 72t71.5 29q41 0 70.5 -29t29.5 -72q0 -41 -29.5 -70.5t-70.5 -29.5q-43 0 -71.5 29.5t-28.5 70.5zM616 920q0 41 31 70.5t74 29.5t73.5 -29.5t30.5 -70.5t-30.5 -71t-73.5 -30t-74 30t-31 71zM827 719q0 43 29 73.5t72 30.5q41 0 69.5 -30.5t28.5 -73.5 q0 -45 -28.5 -76t-69.5 -31q-43 0 -72 31t-29 76zM817 510q0 41 31 71.5t74 30.5t73.5 -30.5t30.5 -71.5q0 -43 -30.5 -73.5t-73.5 -30.5t-74 30.5t-31 73.5zM817 305q0 41 31 71t76 30q43 0 73.5 -30t30.5 -71q0 -43 -30.5 -72.5t-73.5 -29.5q-45 0 -76 29.5t-31 72.5z M610 100q0 41 32 71t77 30t76.5 -30t31.5 -71t-31.5 -70.5t-76.5 -29.5t-77 29.5t-32 70.5z" />
<glyph unicode="q" d="M823 -307q0 41 -30.5 69.5t-73.5 28.5t-74 -28.5t-31 -69.5t31 -70t74 -29t73.5 29t30.5 70zM823 -104q0 43 -30.5 73.5t-73.5 30.5t-74 -30.5t-31 -73.5t31 -74t74 -31t73.5 31t30.5 74zM823 102q0 43 -30.5 73t-75.5 30t-76 -30t-31 -73t31 -72.5t76 -29.5t75.5 29.5 t30.5 72.5zM823 305q0 41 -30.5 69.5t-75.5 28.5t-76 -28.5t-31 -69.5q0 -43 31 -71.5t76 -28.5t75.5 28.5t30.5 71.5zM823 506q0 41 -30.5 70.5t-71.5 29.5q-43 0 -74 -29.5t-31 -70.5q0 -43 31 -73t74 -30q41 0 71.5 30t30.5 73zM823 711q0 43 -30.5 73.5t-71.5 30.5 q-43 0 -74 -30.5t-31 -73.5t31 -74t74 -31q41 0 71.5 31t30.5 74zM412 920q0 41 -31 70.5t-74 29.5t-73.5 -29.5t-30.5 -70.5t30.5 -71t73.5 -30t74 30t31 71zM201 719q0 43 -29 73.5t-70 30.5q-43 0 -71.5 -30.5t-28.5 -73.5q0 -45 28.5 -76t71.5 -31q41 0 70 31t29 76z M211 510q0 41 -30.5 71.5t-74.5 30.5q-43 0 -73.5 -30.5t-30.5 -71.5q0 -43 30.5 -73.5t73.5 -30.5t74 30.5t31 73.5zM211 305q0 41 -30.5 71t-74.5 30q-45 0 -75.5 -30t-30.5 -71q0 -43 30.5 -72.5t75.5 -29.5q43 0 74 29.5t31 72.5zM418 100q0 41 -32 71t-77 30t-76.5 -30 t-31.5 -71t31.5 -70.5t76.5 -29.5t77 29.5t32 70.5zM608 100q0 41 -27.5 71t-66.5 30q-41 0 -68.5 -30t-27.5 -71t27.5 -70.5t68.5 -29.5q39 0 66.5 29.5t27.5 70.5zM1028 -307q0 41 -30.5 69.5t-73.5 28.5t-74 -28.5t-31 -69.5t31 -70t74 -29t73.5 29t30.5 70zM1028 -104 q0 43 -30.5 73.5t-73.5 30.5t-74 -30.5t-31 -73.5t31 -74t74 -31t73.5 31t30.5 74zM1028 102q0 43 -30.5 73t-75.5 30t-76 -30t-31 -73t31 -72.5t76 -29.5t75.5 29.5t30.5 72.5zM1028 305q0 41 -30.5 69.5t-75.5 28.5t-76 -28.5t-31 -69.5q0 -43 31 -71.5t76 -28.5 t75.5 28.5t30.5 71.5zM1028 506q0 41 -30.5 70.5t-71.5 29.5q-43 0 -74 -29.5t-31 -70.5q0 -43 31 -73t74 -30q41 0 71.5 30t30.5 73zM1028 711q0 43 -30.5 73.5t-71.5 30.5q-43 0 -74 -30.5t-31 -73.5t31 -74t74 -31q41 0 71.5 31t30.5 74zM1028 918q0 43 -30.5 72.5 t-73.5 29.5q-45 0 -76 -29.5t-31 -72.5t31 -73t76 -30q43 0 73.5 30t30.5 73zM817 920q0 41 -29.5 70.5t-70.5 29.5t-71 -29.5t-30 -70.5t30 -71t71 -30t70.5 30t29.5 71zM623 922q0 43 -31 71.5t-74 28.5t-73.5 -28.5t-30.5 -71.5q0 -41 30.5 -71t73.5 -30t74 30t31 71z M406 719q0 43 -29 73.5t-70 30.5q-43 0 -71.5 -30.5t-28.5 -73.5q0 -45 28.5 -76t71.5 -31q41 0 70 31t29 76zM416 510q0 41 -31 71.5t-74 30.5t-73.5 -30.5t-30.5 -71.5q0 -43 30.5 -73.5t73.5 -30.5t74 30.5t31 73.5zM416 305q0 41 -31 71t-74 30q-45 0 -75.5 -30 t-30.5 -71q0 -43 30.5 -72.5t75.5 -29.5q43 0 74 29.5t31 72.5z" />
<glyph unicode="r" d="M0 102q0 43 29.5 73t72.5 30t73 -30t30 -73t-30 -72.5t-73 -29.5t-72.5 29.5t-29.5 72.5zM0 305q0 41 29.5 71t72.5 30t73 -30t30 -71t-30 -70.5t-73 -29.5t-72.5 29.5t-29.5 70.5zM0 506q0 41 30.5 69.5t75.5 28.5t76 -28.5t31 -69.5q0 -43 -30.5 -71.5t-76.5 -28.5 q-45 0 -75.5 28.5t-30.5 71.5zM0 709q0 43 30.5 73.5t75.5 30.5t76 -30.5t31 -73.5t-30.5 -74t-76.5 -31q-45 0 -75.5 31t-30.5 74zM0 918q0 41 30.5 71.5t73.5 30.5t74 -31t31 -71q0 -43 -31 -74t-74 -31t-73.5 31t-30.5 74zM410 920q0 41 30.5 69.5t73.5 28.5t73.5 -28.5 t30.5 -69.5q0 -43 -30.5 -72t-73.5 -29t-73.5 29t-30.5 72zM205 102q0 43 29.5 73t72.5 30t73 -30t30 -73t-30 -72.5t-73 -29.5t-72.5 29.5t-29.5 72.5zM205 305q0 41 29.5 71t72.5 30t73 -30t30 -71t-30 -70.5t-73 -29.5t-72.5 29.5t-29.5 70.5zM205 506q0 41 30.5 69.5 t75.5 28.5t76 -28.5t31 -69.5q0 -43 -31 -71.5t-76 -28.5t-75.5 28.5t-30.5 71.5zM205 709q0 43 30.5 73.5t75.5 30.5t76 -30.5t31 -73.5t-31 -74t-76 -31t-75.5 31t-30.5 74zM205 918q0 41 30.5 71.5t73.5 30.5t74 -31t31 -71q0 -43 -31 -74t-74 -31t-73.5 31t-30.5 74z M821 922q0 39 29 67.5t72 28.5q41 0 69.5 -28.5t28.5 -67.5q0 -41 -28.5 -70t-69.5 -29q-43 0 -72 29t-29 70zM614 920q0 41 31 69.5t74 28.5t73.5 -28.5t30.5 -69.5q0 -43 -30.5 -72t-73.5 -29t-74 29t-31 72zM418 715q0 43 28.5 73.5t69.5 30.5t69.5 -30.5t28.5 -73.5 t-28.5 -74t-69.5 -31t-69.5 31t-28.5 74z" />
<glyph unicode="s" d="M0 102q0 41 30.5 71t73.5 30q41 0 72 -30t31 -71q0 -43 -31 -72.5t-72 -29.5q-43 0 -73.5 29.5t-30.5 72.5zM207 102q0 41 30.5 71t73.5 30t74 -30t31 -71q0 -43 -31 -72.5t-74 -29.5t-73.5 29.5t-30.5 72.5zM416 98q0 41 29.5 70t72.5 29t73 -29t30 -70t-30 -69.5 t-73 -28.5t-72.5 28.5t-29.5 69.5zM621 303q0 43 30.5 74t73.5 31q41 0 71.5 -31t30.5 -74q0 -45 -30.5 -75.5t-71.5 -30.5q-43 0 -73.5 30.5t-30.5 75.5zM406 510q0 41 30.5 70.5t73.5 29.5q41 0 71.5 -29.5t30.5 -70.5q0 -43 -30.5 -72.5t-71.5 -29.5q-43 0 -73.5 29.5 t-30.5 72.5zM203 510q0 41 29.5 70.5t72.5 29.5q41 0 71 -29.5t30 -70.5q0 -43 -30 -72.5t-71 -29.5q-43 0 -72.5 29.5t-29.5 72.5zM0 713q0 41 28.5 70.5t69.5 29.5t70 -29.5t29 -70.5q0 -43 -29 -73t-70 -30t-69.5 30t-28.5 73zM188 913q0 43 31 73t76 30t75.5 -30 t30.5 -73t-30.5 -72.5t-75.5 -29.5t-76 29.5t-31 72.5zM401 915q0 41 31 71t76 30q43 0 73.5 -30t30.5 -71t-30.5 -70.5t-73.5 -29.5q-45 0 -76 29.5t-31 70.5zM610 915q0 41 32 71t77 30t76.5 -30t31.5 -71t-31.5 -70.5t-76.5 -29.5t-77 29.5t-32 70.5zM197 713 q0 41 32.5 70.5t73.5 29.5t69.5 -29.5t28.5 -70.5q0 -43 -28.5 -73t-69.5 -30t-73.5 30t-32.5 73zM614 508q0 41 29 70.5t70 29.5t69.5 -29.5t28.5 -70.5q0 -43 -28.5 -72.5t-69.5 -29.5t-70 29.5t-29 72.5zM819 918q0 41 29 70.5t70 29.5t69.5 -30t28.5 -70q0 -43 -29 -73 t-69 -30q-41 0 -70 30t-29 73zM819 303q0 41 29 70.5t70 29.5t69.5 -29.5t28.5 -70.5q0 -43 -29 -72.5t-69 -29.5q-41 0 -70 29.5t-29 72.5zM614 98q0 41 29 71t70 30t69.5 -30t28.5 -71q0 -43 -28.5 -72.5t-69.5 -29.5t-70 29.5t-29 72.5z" />
<glyph unicode="t" horiz-adv-x="1024" d="M203 1327q0 41 30.5 70.5t75.5 29.5q43 0 74 -29.5t31 -70.5t-31 -70.5t-74 -29.5q-45 0 -75.5 29.5t-30.5 70.5zM203 1124q0 43 30.5 73t75.5 30q43 0 74 -30t31 -73t-31 -72.5t-74 -29.5q-45 0 -75.5 29.5t-30.5 72.5zM203 922q0 41 30.5 70.5t75.5 29.5t76 -29.5 t31 -70.5q0 -43 -31 -73t-76 -30t-75.5 30t-30.5 73zM0 715q0 41 29.5 70.5t72.5 29.5q41 0 71 -29.5t30 -70.5q0 -43 -30 -73t-71 -30q-43 0 -72.5 30t-29.5 73zM410 100q0 41 30.5 71t73.5 30q41 0 71.5 -30t30.5 -71t-30.5 -70.5t-71.5 -29.5q-43 0 -73.5 29.5 t-30.5 70.5zM203 303q0 43 30.5 73t73.5 30q41 0 72 -30t31 -73t-31 -72.5t-72 -29.5q-43 0 -73.5 29.5t-30.5 72.5zM203 508q0 41 30.5 70.5t75.5 29.5t76 -29.5t31 -70.5q0 -43 -31 -72.5t-76 -29.5t-75.5 29.5t-30.5 72.5zM408 1327q0 41 30.5 70.5t75.5 29.5 q43 0 73.5 -29.5t30.5 -70.5t-30.5 -70.5t-73.5 -29.5q-45 0 -75.5 29.5t-30.5 70.5zM408 1124q0 43 30.5 73t75.5 30q43 0 73.5 -30t30.5 -73t-30.5 -72.5t-73.5 -29.5q-45 0 -75.5 29.5t-30.5 72.5zM408 922q0 41 30.5 70.5t75.5 29.5t76 -29.5t31 -70.5q0 -43 -31 -73 t-76 -30t-75.5 30t-30.5 73zM408 717q0 41 30.5 71.5t75.5 30.5t76 -30.5t31 -71.5q0 -43 -31 -74t-76 -31t-75.5 31t-30.5 74zM205 715q0 41 29.5 70.5t72.5 29.5q41 0 71 -29.5t30 -70.5q0 -43 -30 -73t-71 -30q-43 0 -72.5 30t-29.5 73zM614 100q0 41 31 71t74 30 q41 0 71.5 -30t30.5 -71t-30.5 -70.5t-71.5 -29.5q-43 0 -74 29.5t-31 70.5zM408 303q0 43 30.5 73t73.5 30q41 0 71.5 -30t30.5 -73t-30.5 -72.5t-71.5 -29.5q-43 0 -73.5 29.5t-30.5 72.5zM408 508q0 41 30.5 70.5t75.5 29.5t76 -29.5t31 -70.5q0 -43 -31 -72.5t-76 -29.5 t-75.5 29.5t-30.5 72.5zM621 709q0 41 29.5 70.5t72.5 29.5t72.5 -29.5t29.5 -70.5t-29.5 -71t-72.5 -30t-72.5 30t-29.5 71z" />
<glyph unicode="u" d="M0 915q0 41 29.5 70t72.5 29t73 -29t30 -70q0 -43 -30 -71.5t-73 -28.5t-72.5 28.5t-29.5 71.5zM0 715q0 41 30.5 70.5t73.5 29.5q41 0 72 -29.5t31 -70.5t-31 -71t-72 -30q-43 0 -73.5 30t-30.5 71zM0 510q0 43 30.5 73.5t73.5 30.5q41 0 72 -30.5t31 -73.5t-31 -73.5 t-72 -30.5q-43 0 -73.5 30.5t-30.5 73.5zM0 305q0 41 30.5 71t73.5 30q41 0 72 -30t31 -71t-31 -70.5t-72 -29.5q-43 0 -73.5 29.5t-30.5 70.5zM207 102q0 43 29.5 73t72.5 30t73 -30t30 -73t-30 -72.5t-73 -29.5t-72.5 29.5t-29.5 72.5zM616 102q0 41 29 71t72 30 q41 0 69.5 -30t28.5 -71q0 -43 -28.5 -72.5t-69.5 -29.5q-43 0 -72 29.5t-29 72.5zM616 305q0 41 31 71t74 30q41 0 71.5 -30t30.5 -71q0 -43 -30.5 -72.5t-71.5 -29.5q-43 0 -74 29.5t-31 72.5zM610 506q0 41 31 70.5t76 29.5t75.5 -29.5t30.5 -70.5t-30.5 -70.5 t-75.5 -29.5t-76 29.5t-31 70.5zM610 711q0 41 31 71.5t76 30.5t75.5 -30.5t30.5 -71.5q0 -43 -30.5 -74t-75.5 -31t-76 31t-31 74zM610 915q0 43 31 73t76 30t75.5 -30t30.5 -73t-30.5 -72.5t-75.5 -29.5t-76 29.5t-31 72.5zM205 915q0 41 29.5 70t72.5 29t73 -29t30 -70 q0 -43 -30 -71.5t-73 -28.5t-72.5 28.5t-29.5 71.5zM205 715q0 41 30.5 70.5t73.5 29.5q41 0 72 -29.5t31 -70.5t-31 -71t-72 -30q-43 0 -73.5 30t-30.5 71zM205 510q0 43 30.5 73.5t73.5 30.5q41 0 72 -30.5t31 -73.5t-31 -73.5t-72 -30.5q-43 0 -73.5 30.5t-30.5 73.5z M205 305q0 41 30.5 71t73.5 30q41 0 72 -30t31 -71t-31 -70.5t-72 -29.5q-43 0 -73.5 29.5t-30.5 70.5zM412 102q0 43 29.5 73t72.5 30t72.5 -30t29.5 -73t-29.5 -72.5t-72.5 -29.5t-72.5 29.5t-29.5 72.5zM821 102q0 41 29 71t72 30q41 0 69.5 -30t28.5 -71 q0 -43 -28.5 -72.5t-69.5 -29.5q-43 0 -72 29.5t-29 72.5zM821 305q0 41 31 71t74 30q41 0 71.5 -30t30.5 -71q0 -43 -30.5 -72.5t-71.5 -29.5q-43 0 -74 29.5t-31 72.5zM815 506q0 41 31 70.5t76 29.5t75.5 -29.5t30.5 -70.5t-30.5 -70.5t-75.5 -29.5t-76 29.5t-31 70.5z M815 711q0 41 31 71.5t76 30.5t75.5 -30.5t30.5 -71.5q0 -43 -30.5 -74t-75.5 -31t-76 31t-31 74zM815 915q0 43 31 73t76 30t75.5 -30t30.5 -73t-30.5 -72.5t-75.5 -29.5t-76 29.5t-31 72.5z" />
<glyph unicode="v" horiz-adv-x="1433" d="M0 915q0 41 30.5 70t73.5 29t74 -29t31 -70q0 -43 -31 -71.5t-74 -28.5t-73.5 28.5t-30.5 71.5zM0 715q0 41 30.5 70.5t73.5 29.5t74 -29.5t31 -70.5t-31 -71t-74 -30t-73.5 30t-30.5 71zM0 512q0 41 30.5 71.5t73.5 30.5q41 0 72 -30.5t31 -71.5q0 -43 -31 -73.5 t-72 -30.5q-43 0 -73.5 30.5t-30.5 73.5zM207 307q0 41 30.5 71t73.5 30q41 0 72 -30t31 -71t-31 -70.5t-72 -29.5q-43 0 -73.5 29.5t-30.5 70.5zM414 104q0 41 29.5 72t72.5 31q41 0 70.5 -31t29.5 -72q0 -43 -29.5 -73.5t-70.5 -30.5q-43 0 -72.5 30.5t-29.5 73.5z M612 301q0 45 32 76t77 31q43 0 74.5 -31t31.5 -76t-31.5 -75.5t-74.5 -30.5q-45 0 -77 30.5t-32 75.5zM827 510q0 41 30 70.5t73 29.5q41 0 70.5 -29.5t29.5 -70.5q0 -43 -29.5 -72.5t-70.5 -29.5q-43 0 -73 29.5t-30 72.5zM821 713q0 41 31 70.5t74 29.5t73.5 -29.5 t30.5 -70.5q0 -43 -30.5 -73t-73.5 -30t-74 30t-31 73zM821 913q0 41 30 71t73 30t72.5 -30t29.5 -71t-29.5 -70.5t-72.5 -29.5t-73 29.5t-30 70.5zM205 915q0 41 30.5 70t73.5 29t74 -29t31 -70q0 -43 -31 -71.5t-74 -28.5t-73.5 28.5t-30.5 71.5zM205 715q0 41 30.5 70.5 t73.5 29.5t74 -29.5t31 -70.5t-31 -71t-74 -30t-73.5 30t-30.5 71zM205 512q0 41 30.5 71.5t73.5 30.5q41 0 72 -30.5t31 -71.5q0 -43 -31 -73.5t-72 -30.5q-43 0 -73.5 30.5t-30.5 73.5zM412 307q0 41 30.5 71t73.5 30q41 0 71.5 -30t30.5 -71t-30.5 -70.5t-71.5 -29.5 q-43 0 -73.5 29.5t-30.5 70.5zM618 104q0 41 30 72t73 31q41 0 70.5 -31t29.5 -72q0 -43 -29.5 -73.5t-70.5 -30.5q-43 0 -73 30.5t-30 73.5zM817 301q0 45 32 76t77 31q43 0 74.5 -31t31.5 -76t-31.5 -75.5t-74.5 -30.5q-45 0 -77 30.5t-32 75.5zM1032 510q0 41 30 70.5 t73 29.5q41 0 70.5 -29.5t29.5 -70.5q0 -43 -29.5 -72.5t-70.5 -29.5q-43 0 -73 29.5t-30 72.5zM1026 713q0 41 30.5 70.5t73.5 29.5t74 -29.5t31 -70.5q0 -43 -30.5 -73t-74.5 -30q-43 0 -73.5 30t-30.5 73zM1026 913q0 41 29.5 71t72.5 30t73 -30t30 -71t-30 -70.5 t-73 -29.5t-72.5 29.5t-29.5 70.5z" />
<glyph unicode="w" horiz-adv-x="1433" d="M0 913q0 39 30.5 68t73.5 29q41 0 72 -29t31 -68q0 -41 -31 -69.5t-72 -28.5q-43 0 -73.5 28.5t-30.5 69.5zM0 717q0 41 30.5 69.5t75.5 28.5q43 0 74 -28.5t31 -69.5q0 -43 -30.5 -72t-74.5 -29q-45 0 -75.5 29t-30.5 72zM0 512q0 43 30.5 73.5t75.5 30.5q43 0 74 -30.5 t31 -73.5t-30.5 -73.5t-74.5 -30.5q-45 0 -75.5 30.5t-30.5 73.5zM0 305q0 41 29.5 72t70.5 31t71 -31t30 -72q0 -43 -30 -73.5t-71 -30.5t-70.5 30.5t-29.5 73.5zM0 100q0 41 29.5 71t70.5 30t71 -30t30 -71t-30 -70.5t-71 -29.5t-70.5 29.5t-29.5 70.5zM410 512 q0 41 30.5 70.5t73.5 29.5q41 0 71.5 -29.5t30.5 -70.5q0 -43 -30.5 -72.5t-71.5 -29.5q-43 0 -73.5 29.5t-30.5 72.5zM608 307q0 43 31 74t76 31t75.5 -31t30.5 -74t-30.5 -73.5t-75.5 -30.5t-76 30.5t-31 73.5zM821 102q0 41 30 71t73 30t72.5 -30t29.5 -71 q0 -43 -29.5 -72.5t-72.5 -29.5t-73 29.5t-30 72.5zM815 920q0 41 32 69.5t77 28.5q43 0 74.5 -28.5t31.5 -69.5q0 -43 -31.5 -72t-74.5 -29q-45 0 -77 29t-32 72zM817 717q0 43 31 72.5t76 29.5t75.5 -29.5t30.5 -72.5t-30.5 -73t-75.5 -30t-76 30t-31 73zM817 512 q0 43 31 72.5t76 29.5q43 0 73.5 -29.5t30.5 -72.5t-30.5 -72.5t-73.5 -29.5q-45 0 -76 29.5t-31 72.5zM823 307q0 43 30 73t73 30t72.5 -30t29.5 -73t-29.5 -72.5t-72.5 -29.5t-73 29.5t-30 72.5zM205 913q0 39 30.5 68t73.5 29q41 0 72 -29t31 -68q0 -41 -31 -69.5 t-72 -28.5q-43 0 -73.5 28.5t-30.5 69.5zM205 717q0 41 30.5 69.5t75.5 28.5q43 0 74 -28.5t31 -69.5q0 -43 -31 -72t-74 -29q-45 0 -75.5 29t-30.5 72zM205 512q0 43 30.5 73.5t75.5 30.5q43 0 74 -30.5t31 -73.5t-31 -73.5t-74 -30.5q-45 0 -75.5 30.5t-30.5 73.5z M205 305q0 41 29.5 72t70.5 31t71 -31t30 -72q0 -43 -30 -73.5t-71 -30.5t-70.5 30.5t-29.5 73.5zM205 100q0 41 29.5 71t70.5 30t71 -30t30 -71t-30 -70.5t-71 -29.5t-70.5 29.5t-29.5 70.5zM614 512q0 41 31 70.5t74 29.5q41 0 71.5 -29.5t30.5 -70.5q0 -43 -30.5 -72.5 t-71.5 -29.5q-43 0 -74 29.5t-31 72.5zM412 305q0 43 29.5 74t72.5 31q41 0 70.5 -31t29.5 -74t-29.5 -73.5t-70.5 -30.5q-43 0 -72.5 30.5t-29.5 73.5zM1026 102q0 41 29.5 71t72.5 30t73 -30t30 -71q0 -43 -30 -72.5t-73 -29.5t-72.5 29.5t-29.5 72.5zM1020 920 q0 41 31.5 69.5t76.5 28.5q43 0 75 -28.5t32 -69.5q0 -43 -32 -72t-75 -29q-45 0 -76.5 29t-31.5 72zM1022 717q0 43 30.5 72.5t75.5 29.5t76 -29.5t31 -72.5t-30.5 -73t-76.5 -30q-45 0 -75.5 30t-30.5 73zM1022 512q0 43 30.5 72.5t75.5 29.5q43 0 74 -29.5t31 -72.5 t-31 -72.5t-74 -29.5q-45 0 -75.5 29.5t-30.5 72.5zM1028 307q0 43 29.5 73t72.5 30t73 -30t30 -73t-29.5 -72.5t-73.5 -29.5q-43 0 -72.5 29.5t-29.5 72.5z" />
<glyph unicode="x" horiz-adv-x="1433" d="M0 102q0 39 30.5 66t73.5 27q41 0 72 -27t31 -66t-31 -65.5t-72 -26.5q-43 0 -73.5 26.5t-30.5 65.5zM207 301q0 43 30.5 74t73.5 31q41 0 72 -31t31 -74q0 -45 -31 -75.5t-72 -30.5q-43 0 -73.5 30.5t-30.5 75.5zM414 510q0 41 30.5 71.5t73.5 30.5q41 0 72 -30.5 t31 -71.5q0 -43 -31 -73.5t-72 -30.5q-43 0 -73.5 30.5t-30.5 73.5zM621 717q0 41 29.5 71.5t72.5 30.5t72.5 -30.5t29.5 -71.5q0 -43 -29.5 -74t-72.5 -31t-72.5 31t-29.5 74zM825 920q0 41 30 69.5t71 28.5t70.5 -28.5t29.5 -69.5q0 -43 -29.5 -72t-70.5 -29t-71 29 t-30 72zM0 918q0 39 30.5 67.5t73.5 28.5q41 0 72 -29t31 -67q0 -41 -31 -70t-72 -29q-43 0 -73.5 29t-30.5 70zM209 717q0 41 30.5 70.5t73.5 29.5q41 0 72 -29.5t31 -70.5t-31 -71t-72 -30q-43 0 -73.5 30t-30.5 71zM612 309q0 41 31 71t76 30q43 0 73.5 -30t30.5 -71 t-30.5 -70.5t-73.5 -29.5q-45 0 -76 29.5t-31 70.5zM823 104q0 43 31 74t74 31q41 0 71.5 -31t30.5 -74t-30.5 -73.5t-71.5 -30.5q-43 0 -74 30.5t-31 73.5zM205 102q0 39 30.5 66t73.5 27q41 0 72 -27t31 -66t-31 -65.5t-72 -26.5q-43 0 -73.5 26.5t-30.5 65.5zM412 301 q0 43 30.5 74t73.5 31q41 0 71.5 -31t30.5 -74q0 -45 -30.5 -75.5t-71.5 -30.5q-43 0 -73.5 30.5t-30.5 75.5zM618 510q0 41 31 71.5t74 30.5q41 0 71.5 -30.5t30.5 -71.5q0 -43 -30.5 -73.5t-71.5 -30.5q-43 0 -74 30.5t-31 73.5zM825 717q0 41 30 71.5t73 30.5t72.5 -30.5 t29.5 -71.5q0 -43 -29.5 -74t-72.5 -31t-73 31t-30 74zM1030 920q0 41 30 69.5t70 28.5q41 0 71 -28.5t30 -69.5q0 -43 -30 -72t-71 -29t-70.5 29t-29.5 72zM205 918q0 39 30.5 67.5t73.5 28.5q41 0 72 -29t31 -67q0 -41 -31 -70t-72 -29q-43 0 -73.5 29t-30.5 70zM414 717 q0 41 30.5 70.5t73.5 29.5q41 0 72 -29.5t31 -70.5t-31 -71t-72 -30q-43 0 -73.5 30t-30.5 71zM817 309q0 41 31 71t76 30q43 0 73.5 -30t30.5 -71t-30.5 -70.5t-73.5 -29.5q-45 0 -76 29.5t-31 70.5zM1028 104q0 43 31 74t74 31q41 0 71.5 -31t30.5 -74t-30.5 -73.5 t-71.5 -30.5q-43 0 -74 30.5t-31 73.5z" />
<glyph unicode="y" d="M0 918q0 41 30.5 69.5t73.5 28.5q41 0 72 -29t31 -69q0 -43 -31 -72t-72 -29q-43 0 -73.5 29t-30.5 72zM0 715q0 43 30.5 72.5t73.5 29.5q41 0 72 -29.5t31 -72.5t-31 -73t-72 -30q-43 0 -73.5 30t-30.5 73zM0 512q0 41 30.5 70.5t75.5 29.5q43 0 74 -29.5t31 -70.5 q0 -43 -30.5 -72.5t-74.5 -29.5q-45 0 -75.5 29.5t-30.5 72.5zM0 307q0 41 30.5 72t75.5 31q43 0 74 -31t31 -72q0 -43 -30.5 -73.5t-74.5 -30.5q-45 0 -75.5 30.5t-30.5 73.5zM0 -307q0 41 30.5 69.5t73.5 28.5q41 0 72 -28.5t31 -69.5t-31 -70t-72 -29q-43 0 -73.5 29 t-30.5 70zM207 -307q0 41 30.5 69.5t73.5 28.5t74 -28.5t31 -69.5t-31 -70t-74 -29t-73.5 29t-30.5 70zM618 -104q0 43 31 73.5t74 30.5q41 0 71.5 -30.5t30.5 -73.5t-30.5 -74t-71.5 -31q-43 0 -74 31t-31 74zM612 100q0 41 31 71t76 30t75.5 -30t30.5 -71t-30.5 -70.5 t-75.5 -29.5t-76 29.5t-31 70.5zM612 303q0 41 31 70.5t76 29.5t75.5 -29.5t30.5 -70.5q0 -43 -30.5 -72.5t-75.5 -29.5t-76 29.5t-31 72.5zM616 508q0 41 31 71.5t74 30.5t73.5 -30.5t30.5 -71.5q0 -43 -30.5 -74t-73.5 -31t-74 31t-31 74zM616 711q0 41 31 69.5t74 28.5 q41 0 71.5 -28.5t30.5 -69.5q0 -43 -30.5 -72t-71.5 -29q-43 0 -74 29t-31 72zM610 915q0 43 31 74t76 31t75.5 -31t30.5 -74q0 -45 -30.5 -75.5t-75.5 -30.5t-76 30.5t-31 75.5zM203 98q0 41 30.5 70t75.5 29q43 0 74 -29t31 -70t-31 -69.5t-74 -28.5q-45 0 -75.5 28.5 t-30.5 69.5zM205 918q0 41 30.5 69.5t73.5 28.5q41 0 72 -29t31 -69q0 -43 -31 -72t-72 -29q-43 0 -73.5 29t-30.5 72zM205 715q0 43 30.5 72.5t73.5 29.5q41 0 72 -29.5t31 -72.5t-31 -73t-72 -30q-43 0 -73.5 30t-30.5 73zM205 512q0 41 30.5 70.5t75.5 29.5 q43 0 74 -29.5t31 -70.5q0 -43 -31 -72.5t-74 -29.5q-45 0 -75.5 29.5t-30.5 72.5zM205 307q0 41 30.5 72t75.5 31q43 0 74 -31t31 -72q0 -43 -31 -73.5t-74 -30.5q-45 0 -75.5 30.5t-30.5 73.5zM412 -307q0 41 30.5 69.5t73.5 28.5t74 -28.5t31 -69.5t-31 -70t-74 -29 t-73.5 29t-30.5 70zM621 -307q0 41 29.5 69.5t72.5 28.5q41 0 70.5 -28.5t29.5 -69.5t-29.5 -70t-70.5 -29q-43 0 -72.5 29t-29.5 70zM823 -104q0 43 31 73.5t74 30.5q41 0 71.5 -30.5t30.5 -73.5t-30.5 -74t-71.5 -31q-43 0 -74 31t-31 74zM817 100q0 41 31 71t76 30 t75.5 -30t30.5 -71t-30.5 -70.5t-75.5 -29.5t-76 29.5t-31 70.5zM817 303q0 41 31 70.5t76 29.5t75.5 -29.5t30.5 -70.5q0 -43 -30.5 -72.5t-75.5 -29.5t-76 29.5t-31 72.5zM821 508q0 41 31 71.5t74 30.5t73.5 -30.5t30.5 -71.5q0 -43 -30.5 -74t-73.5 -31t-74 31t-31 74z M821 711q0 41 31 69.5t74 28.5q41 0 71.5 -28.5t30.5 -69.5q0 -43 -30.5 -72t-71.5 -29q-43 0 -74 29t-31 72zM815 915q0 43 31 74t76 31t75.5 -31t30.5 -74q0 -45 -30.5 -75.5t-75.5 -30.5t-76 30.5t-31 75.5zM408 98q0 41 30.5 70t75.5 29q43 0 73.5 -29t30.5 -70 t-30.5 -69.5t-73.5 -28.5q-45 0 -75.5 28.5t-30.5 69.5z" />
<glyph unicode="z" horiz-adv-x="1024" d="M410 98q0 39 30.5 68t73.5 29q41 0 71.5 -29t30.5 -68q0 -41 -30.5 -69.5t-71.5 -28.5q-43 0 -73.5 28.5t-30.5 69.5zM207 98q0 39 29.5 68t72.5 29q41 0 71 -29t30 -68q0 -41 -30 -69.5t-71 -28.5q-43 0 -72.5 28.5t-29.5 69.5zM0 96q0 39 30.5 68t73.5 29q41 0 72 -29 t31 -68t-31 -67.5t-72 -28.5q-43 0 -73.5 28.5t-30.5 67.5zM0 299q0 45 29.5 76t70.5 31t71 -31t30 -76t-30 -75.5t-71 -30.5t-70.5 30.5t-29.5 75.5zM201 506q0 41 30.5 70.5t75.5 29.5q43 0 74 -29.5t31 -70.5t-31 -70.5t-74 -29.5q-45 0 -75.5 29.5t-30.5 70.5zM412 709 q0 41 30.5 70.5t73.5 29.5q41 0 71.5 -29.5t30.5 -70.5q0 -43 -30.5 -73t-71.5 -30q-43 0 -73.5 30t-30.5 73zM412 913q0 41 30.5 72t73.5 31q41 0 71.5 -31t30.5 -72q0 -43 -30.5 -73.5t-71.5 -30.5q-43 0 -73.5 30.5t-30.5 73.5zM209 918q0 41 29.5 69.5t72.5 28.5 q41 0 71 -29t30 -69q0 -43 -30 -72t-71 -29q-43 0 -72.5 29t-29.5 72zM0 918q0 41 30.5 70.5t73.5 29.5t74 -30t31 -70q0 -41 -31 -71t-74 -30t-73.5 30t-30.5 71zM406 506q0 41 30.5 70.5t75.5 29.5q43 0 73.5 -29.5t30.5 -70.5t-30.5 -70.5t-73.5 -29.5q-45 0 -75.5 29.5 t-30.5 70.5zM610 711q0 41 31 70.5t76 29.5q43 0 73.5 -29.5t30.5 -70.5t-30.5 -71t-73.5 -30q-45 0 -76 30t-31 71zM610 915q0 41 31 71t76 30q43 0 73.5 -30t30.5 -71t-30.5 -70.5t-73.5 -29.5q-45 0 -76 29.5t-31 70.5zM201 301q0 41 30.5 70.5t75.5 29.5q43 0 74 -29.5 t31 -70.5t-31 -70.5t-74 -29.5q-45 0 -75.5 29.5t-30.5 70.5zM610 96q0 41 31 71t76 30q43 0 73.5 -30t30.5 -71t-30.5 -70.5t-73.5 -29.5q-45 0 -76 29.5t-31 70.5z" />
<glyph unicode="{" horiz-adv-x="1024" d="M408 1329q0 41 30.5 69.5t75.5 28.5q43 0 73.5 -28.5t30.5 -69.5q0 -43 -30.5 -71.5t-73.5 -28.5q-45 0 -75.5 28.5t-30.5 71.5zM203 1128q0 41 29.5 71t72.5 30t73 -30t30 -71q0 -43 -30 -72.5t-73 -29.5t-72.5 29.5t-29.5 72.5zM203 926q0 41 30.5 70.5t75.5 29.5 q43 0 74 -29.5t31 -70.5q0 -43 -31 -73t-74 -30q-45 0 -75.5 30t-30.5 73zM0 719q0 41 30.5 69.5t73.5 28.5t74 -28.5t31 -69.5q0 -43 -31 -72t-74 -29t-73.5 29t-30.5 72zM207 514q0 43 30.5 73.5t73.5 30.5q41 0 72 -30.5t31 -73.5q0 -45 -31 -75.5t-72 -30.5 q-43 0 -73.5 30.5t-30.5 75.5zM205 307q0 41 30.5 71t73.5 30t74 -30t31 -71q0 -43 -31 -72.5t-74 -29.5t-73.5 29.5t-30.5 72.5zM412 104q0 41 30.5 72t73.5 31t74 -31t31 -72q0 -43 -31 -73.5t-74 -30.5t-73.5 30.5t-30.5 73.5zM612 1329q0 41 31 69.5t76 28.5 q43 0 73.5 -28.5t30.5 -69.5q0 -43 -30.5 -71.5t-73.5 -28.5q-45 0 -76 28.5t-31 71.5zM408 1128q0 41 29.5 71t72.5 30t72.5 -30t29.5 -71q0 -43 -29.5 -72.5t-72.5 -29.5t-72.5 29.5t-29.5 72.5zM408 926q0 41 30.5 70.5t75.5 29.5q43 0 73.5 -29.5t30.5 -70.5 q0 -43 -30.5 -73t-73.5 -30q-45 0 -75.5 30t-30.5 73zM205 719q0 41 30.5 69.5t73.5 28.5t74 -28.5t31 -69.5q0 -43 -31 -72t-74 -29t-73.5 29t-30.5 72zM412 514q0 43 30.5 73.5t73.5 30.5q41 0 71.5 -30.5t30.5 -73.5q0 -45 -30.5 -75.5t-71.5 -30.5q-43 0 -73.5 30.5 t-30.5 75.5zM410 307q0 41 30.5 71t73.5 30t73.5 -30t30.5 -71q0 -43 -30.5 -72.5t-73.5 -29.5t-73.5 29.5t-30.5 72.5zM616 104q0 41 31 72t74 31t73.5 -31t30.5 -72q0 -43 -30.5 -73.5t-73.5 -30.5t-74 30.5t-31 73.5z" />
<glyph unicode="|" horiz-adv-x="614" d="M0 1327q0 41 30.5 70.5t75.5 29.5q43 0 74 -29.5t31 -70.5t-30.5 -70.5t-74.5 -29.5q-45 0 -75.5 29.5t-30.5 70.5zM0 1126q0 41 30.5 71t75.5 30q43 0 74 -30t31 -71q0 -43 -30.5 -72.5t-74.5 -29.5q-45 0 -75.5 29.5t-30.5 72.5zM0 920q0 43 30.5 73.5t73.5 30.5 q41 0 72 -30.5t31 -73.5t-31 -74t-72 -31q-43 0 -73.5 31t-30.5 74zM0 715q0 41 30.5 70.5t73.5 29.5q41 0 72 -29.5t31 -70.5q0 -43 -31 -73t-72 -30q-43 0 -73.5 30t-30.5 73zM0 510q0 41 30.5 71.5t73.5 30.5t74 -30.5t31 -71.5q0 -43 -31 -73.5t-74 -30.5t-73.5 30.5 t-30.5 73.5zM0 305q0 41 30.5 71t73.5 30t74 -30t31 -71q0 -43 -31 -72.5t-74 -29.5t-73.5 29.5t-30.5 72.5zM0 102q0 41 30.5 71t73.5 30t74 -30t31 -71q0 -43 -31 -72.5t-74 -29.5t-73.5 29.5t-30.5 72.5zM205 1327q0 41 30.5 70.5t75.5 29.5q43 0 74 -29.5t31 -70.5 t-31 -70.5t-74 -29.5q-45 0 -75.5 29.5t-30.5 70.5zM205 1126q0 41 30.5 71t75.5 30q43 0 74 -30t31 -71q0 -43 -31 -72.5t-74 -29.5q-45 0 -75.5 29.5t-30.5 72.5zM205 920q0 43 30.5 73.5t73.5 30.5q41 0 72 -30.5t31 -73.5t-31 -74t-72 -31q-43 0 -73.5 31t-30.5 74z M205 715q0 41 30.5 70.5t73.5 29.5q41 0 72 -29.5t31 -70.5q0 -43 -31 -73t-72 -30q-43 0 -73.5 30t-30.5 73zM205 510q0 41 30.5 71.5t73.5 30.5t74 -30.5t31 -71.5q0 -43 -31 -73.5t-74 -30.5t-73.5 30.5t-30.5 73.5zM205 305q0 41 30.5 71t73.5 30t74 -30t31 -71 q0 -43 -31 -72.5t-74 -29.5t-73.5 29.5t-30.5 72.5zM205 102q0 41 30.5 71t73.5 30t74 -30t31 -71q0 -43 -31 -72.5t-74 -29.5t-73.5 29.5t-30.5 72.5z" />
<glyph unicode="}" horiz-adv-x="1024" d="M0 1329q0 41 30.5 69.5t73.5 28.5t74 -28.5t31 -69.5q0 -43 -31 -71.5t-74 -28.5t-73.5 28.5t-30.5 71.5zM209 1126q0 43 29.5 73t72.5 30t73 -30t30 -73t-30 -72.5t-73 -29.5t-72.5 29.5t-29.5 72.5zM205 920q0 43 30.5 73.5t73.5 30.5t74 -30.5t31 -73.5q0 -45 -31 -76 t-74 -31t-73.5 31t-30.5 76zM412 717q0 41 30.5 71.5t73.5 30.5q41 0 71.5 -30.5t30.5 -71.5q0 -43 -30.5 -74t-71.5 -31q-43 0 -73.5 31t-30.5 74zM203 512q0 43 30.5 73.5t73.5 30.5t74 -30.5t31 -73.5t-31 -73.5t-74 -30.5t-73.5 30.5t-30.5 73.5zM203 307q0 41 30.5 71 t75.5 30q43 0 74 -30t31 -71t-31 -70.5t-74 -29.5q-45 0 -75.5 29.5t-30.5 70.5zM0 100q0 41 30.5 71t73.5 30t74 -30t31 -71t-31 -70.5t-74 -29.5t-73.5 29.5t-30.5 70.5zM205 1329q0 41 30.5 69.5t73.5 28.5t74 -28.5t31 -69.5q0 -43 -31 -71.5t-74 -28.5t-73.5 28.5 t-30.5 71.5zM414 1126q0 43 29.5 73t72.5 30t72.5 -30t29.5 -73t-29.5 -72.5t-72.5 -29.5t-72.5 29.5t-29.5 72.5zM410 920q0 43 30.5 73.5t73.5 30.5t73.5 -30.5t30.5 -73.5q0 -45 -30.5 -76t-73.5 -31t-73.5 31t-30.5 76zM616 717q0 41 31 71.5t74 30.5q41 0 71.5 -30.5 t30.5 -71.5q0 -43 -30.5 -74t-71.5 -31q-43 0 -74 31t-31 74zM408 512q0 43 30.5 73.5t73.5 30.5t73.5 -30.5t30.5 -73.5t-30.5 -73.5t-73.5 -30.5t-73.5 30.5t-30.5 73.5zM408 307q0 41 30.5 71t75.5 30q43 0 73.5 -30t30.5 -71t-30.5 -70.5t-73.5 -29.5q-45 0 -75.5 29.5 t-30.5 70.5zM205 100q0 41 30.5 71t73.5 30t74 -30t31 -71t-31 -70.5t-74 -29.5t-73.5 29.5t-30.5 70.5z" />
<glyph unicode="~" d="M0 1126q0 39 30.5 67t75.5 28q43 0 74 -28t31 -67t-30.5 -66.5t-74.5 -27.5q-45 0 -75.5 27.5t-30.5 66.5zM211 1325q0 41 29.5 71.5t72.5 30.5t73 -30.5t30 -71.5q0 -43 -30 -73.5t-73 -30.5t-72.5 30.5t-29.5 73.5zM205 1126q0 39 30.5 67t75.5 28q43 0 74 -28t31 -67 t-31 -66.5t-74 -27.5q-45 0 -75.5 27.5t-30.5 66.5zM416 1325q0 41 29.5 71.5t72.5 30.5t73 -30.5t30 -71.5q0 -43 -30 -73.5t-73 -30.5t-72.5 30.5t-29.5 73.5zM821 1327q0 41 31 70.5t76 29.5q43 0 73.5 -29.5t30.5 -70.5t-30.5 -70.5t-73.5 -29.5q-45 0 -76 29.5 t-31 70.5zM610 1126q0 41 31 71t76 30q43 0 73.5 -30t30.5 -71t-30.5 -70.5t-73.5 -29.5q-45 0 -76 29.5t-31 70.5z" />
<glyph unicode="&#xa0;" />
<glyph unicode="&#xa3;" horiz-adv-x="1433" d="M821 100q0 41 30 71t73 30q41 0 70.5 -30t29.5 -71t-29.5 -70.5t-70.5 -29.5q-43 0 -73 29.5t-30 70.5zM618 100q0 41 30 71t73 30q41 0 70.5 -30t29.5 -71t-29.5 -70.5t-70.5 -29.5q-43 0 -73 29.5t-30 70.5zM408 98q0 41 30.5 70t75.5 29q43 0 73.5 -29t30.5 -70 t-30.5 -69.5t-73.5 -28.5q-45 0 -75.5 28.5t-30.5 69.5zM201 98q0 41 30.5 70t73.5 29q41 0 72 -29t31 -70t-31 -69.5t-72 -28.5q-43 0 -73.5 28.5t-30.5 69.5zM813 1124q0 41 30.5 70t76.5 29q43 0 73.5 -29t30.5 -70q0 -43 -30.5 -71.5t-73.5 -28.5q-45 0 -76 28.5 t-31 71.5zM408 1327q0 41 29.5 70.5t72.5 29.5t72.5 -29.5t29.5 -70.5t-29.5 -70.5t-72.5 -29.5t-72.5 29.5t-29.5 70.5zM207 1126q0 41 29.5 71t70.5 30t71 -30t30 -71q0 -43 -30 -72.5t-71 -29.5t-70.5 29.5t-29.5 72.5zM207 922q0 43 30.5 72.5t73.5 29.5q41 0 72 -29.5 t31 -72.5t-31 -73t-72 -30q-43 0 -73.5 30t-30.5 73zM207 715q0 43 30.5 73.5t73.5 30.5q41 0 72 -30.5t31 -73.5t-31 -74t-72 -31q-43 0 -73.5 31t-30.5 74zM207 510q0 41 30.5 70.5t73.5 29.5t74 -29.5t31 -70.5q0 -43 -31 -72.5t-74 -29.5t-73.5 29.5t-30.5 72.5z M203 303q0 43 30.5 74t75.5 31t76 -31t31 -74q0 -45 -31 -75.5t-76 -30.5t-75.5 30.5t-30.5 75.5zM0 715q0 39 30.5 67.5t73.5 28.5q41 0 72 -28.5t31 -67.5q0 -41 -31 -70t-72 -29q-43 0 -73.5 29t-30.5 70zM1026 100q0 41 29.5 71t72.5 30q41 0 71 -30t30 -71t-30 -70.5 t-71 -29.5q-43 0 -72.5 29.5t-29.5 70.5zM1018 1124q0 41 30.5 70t75.5 29q43 0 74 -29t31 -70q0 -43 -31 -71.5t-74 -28.5q-45 0 -75.5 28.5t-30.5 71.5zM817 1325q0 43 30 72.5t71 29.5t70.5 -29.5t29.5 -72.5t-30 -72.5t-70 -29.5q-41 0 -71 29.5t-30 72.5zM612 1321 q0 43 30 71.5t73 28.5t72.5 -28.5t29.5 -71.5q0 -41 -29.5 -70.5t-72.5 -29.5t-73 29.5t-30 70.5zM412 1126q0 41 29.5 71t70.5 30t70.5 -30t29.5 -71q0 -43 -29.5 -72.5t-70.5 -29.5t-70.5 29.5t-29.5 72.5zM412 922q0 43 30.5 72.5t73.5 29.5q41 0 71.5 -29.5t30.5 -72.5 t-30.5 -73t-71.5 -30q-43 0 -73.5 30t-30.5 73zM412 715q0 43 30.5 73.5t73.5 30.5q41 0 71.5 -30.5t30.5 -73.5t-30.5 -74t-71.5 -31q-43 0 -73.5 31t-30.5 74zM412 510q0 41 30.5 70.5t73.5 29.5t74 -29.5t31 -70.5q0 -43 -31 -72.5t-74 -29.5t-73.5 29.5t-30.5 72.5z M408 303q0 43 30.5 74t75.5 31t76 -31t31 -74q0 -45 -31 -75.5t-76 -30.5t-75.5 30.5t-30.5 75.5zM618 715q0 41 29 69.5t72 28.5q41 0 69.5 -28.5t28.5 -69.5t-28.5 -70t-69.5 -29q-43 0 -72 29t-29 70z" />
<glyph unicode="&#xa9;" horiz-adv-x="1843" d="M0 920q0 41 30.5 70.5t73.5 29.5t74 -29.5t31 -70.5q0 -43 -31 -73t-74 -30t-73.5 30t-30.5 73zM0 717q0 41 30.5 70.5t73.5 29.5t74 -29.5t31 -70.5t-31 -71t-74 -30t-73.5 30t-30.5 71zM0 510q0 45 31.5 75.5t77.5 30.5q43 0 74.5 -30.5t31.5 -75.5t-31.5 -76 t-74.5 -31q-45 0 -77 31t-32 76zM0 303q0 41 31.5 70.5t77.5 29.5q43 0 74.5 -29.5t31.5 -70.5q0 -43 -31.5 -72.5t-74.5 -29.5q-45 0 -77 29.5t-32 72.5zM205 100q0 41 30.5 71t73.5 30t74 -30t31 -71t-31 -70.5t-74 -29.5t-73.5 29.5t-30.5 70.5zM414 -102q0 43 29.5 72.5 t72.5 29.5q41 0 70.5 -29.5t29.5 -72.5t-29.5 -73t-70.5 -30q-43 0 -72.5 30t-29.5 73zM616 -102q0 43 30 72.5t73 29.5t72.5 -29.5t29.5 -72.5t-29.5 -73t-72.5 -30t-73 30t-30 73zM821 -104q0 43 30 73.5t73 30.5t72.5 -30.5t29.5 -73.5q0 -41 -29.5 -72t-72.5 -31t-73 31 t-30 72zM1026 98q0 39 30.5 68t73.5 29t74 -29t31 -68q0 -41 -30.5 -69.5t-74.5 -28.5q-43 0 -73.5 28.5t-30.5 69.5zM1235 301q0 43 30.5 74t75.5 31q43 0 74 -31t31 -74q0 -45 -31 -75.5t-74 -30.5q-45 0 -75.5 30.5t-30.5 75.5zM1225 506q0 41 32.5 70.5t77.5 29.5 t78 -29.5t33 -70.5t-33 -70.5t-78 -29.5t-77.5 29.5t-32.5 70.5zM1227 713q0 43 31.5 73.5t76.5 30.5t77 -30.5t32 -73.5q0 -45 -32 -76t-77 -31t-76.5 31t-31.5 76zM1229 918q0 41 31.5 70.5t76.5 29.5q43 0 75 -30t32 -70q0 -41 -32 -71t-75 -30q-45 0 -76.5 30t-31.5 71z M1028 1122q0 43 29.5 74t70.5 31t71 -31t30 -74t-30 -73.5t-71 -30.5t-70.5 30.5t-29.5 73.5zM821 1327q0 41 31 70.5t74 29.5q41 0 71.5 -29.5t30.5 -70.5t-30.5 -70.5t-71.5 -29.5q-43 0 -74 29.5t-31 70.5zM614 1329q0 41 31 69.5t74 28.5q41 0 71.5 -28.5t30.5 -69.5 q0 -43 -30.5 -71.5t-71.5 -28.5q-43 0 -74 28.5t-31 71.5zM403 1329q0 41 31 69.5t76 28.5q43 0 73.5 -28.5t30.5 -69.5q0 -43 -30.5 -71.5t-73.5 -28.5q-45 0 -76 28.5t-31 71.5zM205 1130q0 45 29.5 76t72.5 31t73 -30.5t30 -76.5q0 -45 -30 -75.5t-73 -30.5t-72.5 30.5 t-29.5 75.5zM610 918q0 39 31 66.5t76 27.5t75.5 -28t30.5 -66q0 -41 -30.5 -69t-75.5 -28t-76 28t-31 69zM401 717q0 43 31 73.5t74 30.5t73.5 -30.5t30.5 -73.5t-30.5 -74t-73.5 -31t-74 31t-31 74zM401 512q0 41 32 70.5t77 29.5t76.5 -29.5t31.5 -70.5t-31.5 -70.5 t-76.5 -29.5t-77 29.5t-32 70.5zM618 309q0 43 30 73t73 30t72.5 -30t29.5 -73t-29.5 -72.5t-72.5 -29.5t-73 29.5t-30 72.5zM205 920q0 41 30.5 70.5t73.5 29.5t74 -29.5t31 -70.5q0 -43 -31 -73t-74 -30t-73.5 30t-30.5 73zM205 717q0 41 30.5 70.5t73.5 29.5t74 -29.5 t31 -70.5t-31 -71t-74 -30t-73.5 30t-30.5 71zM205 510q0 45 31.5 75.5t76.5 30.5q43 0 75 -30.5t32 -75.5t-32 -76t-75 -31q-45 0 -76.5 31t-31.5 76zM205 303q0 41 31.5 70.5t76.5 29.5q43 0 75 -29.5t32 -70.5q0 -43 -32 -72.5t-75 -29.5q-45 0 -76.5 29.5t-31.5 72.5z M410 100q0 41 30.5 71t73.5 30t73.5 -30t30.5 -71t-30.5 -70.5t-73.5 -29.5t-73.5 29.5t-30.5 70.5zM618 -102q0 43 30 72.5t73 29.5q41 0 70.5 -29.5t29.5 -72.5t-29.5 -73t-70.5 -30q-43 0 -73 30t-30 73zM821 -102q0 43 30 72.5t73 29.5t72.5 -29.5t29.5 -72.5t-29.5 -73 t-72.5 -30t-73 30t-30 73zM1026 -104q0 43 29.5 73.5t72.5 30.5t73 -30.5t30 -73.5q0 -41 -30 -72t-73 -31t-72.5 31t-29.5 72zM1231 98q0 39 30.5 68t73.5 29t74 -29t31 -68q0 -41 -31 -69.5t-74 -28.5t-73.5 28.5t-30.5 69.5zM1440 301q0 43 30.5 74t75.5 31q43 0 74 -31 t31 -74q0 -45 -31 -75.5t-74 -30.5q-45 0 -75.5 30.5t-30.5 75.5zM1430 506q0 41 32.5 70.5t77.5 29.5t78 -29.5t33 -70.5t-33 -70.5t-78 -29.5t-77.5 29.5t-32.5 70.5zM1432 713q0 43 31.5 73.5t76.5 30.5t77 -30.5t32 -73.5q0 -45 -32 -76t-77 -31t-76.5 31t-31.5 76z M1434 918q0 41 31.5 70.5t76.5 29.5q43 0 75 -30t32 -70q0 -41 -32 -71t-75 -30q-45 0 -76.5 30t-31.5 71zM1233 1122q0 43 29.5 74t70.5 31t71 -31t30 -74t-30 -73.5t-71 -30.5t-70.5 30.5t-29.5 73.5zM1026 1327q0 41 30.5 70.5t73.5 29.5q41 0 72 -29.5t31 -70.5 t-31 -70.5t-72 -29.5q-43 0 -73.5 29.5t-30.5 70.5zM819 1329q0 41 31 69.5t74 28.5q41 0 71.5 -28.5t30.5 -69.5q0 -43 -30.5 -71.5t-71.5 -28.5q-43 0 -74 28.5t-31 71.5zM608 1329q0 41 31 69.5t76 28.5q43 0 73.5 -28.5t30.5 -69.5q0 -43 -30.5 -71.5t-73.5 -28.5 q-45 0 -76 28.5t-31 71.5zM410 1130q0 45 29.5 76t72.5 31t72.5 -30.5t29.5 -76.5q0 -45 -29.5 -75.5t-72.5 -30.5t-72.5 30.5t-29.5 75.5zM815 918q0 39 31 66.5t76 27.5t75.5 -28t30.5 -66q0 -41 -30.5 -69t-75.5 -28t-76 28t-31 69zM606 717q0 43 31 73.5t74 30.5 t73.5 -30.5t30.5 -73.5t-30.5 -74t-73.5 -31t-74 31t-31 74zM606 512q0 41 32 70.5t77 29.5t76.5 -29.5t31.5 -70.5t-31.5 -70.5t-76.5 -29.5t-77 29.5t-32 70.5zM823 309q0 43 30 73t73 30t72.5 -30t29.5 -73t-29.5 -72.5t-72.5 -29.5t-73 29.5t-30 72.5z" />
<glyph unicode="&#xab;" horiz-adv-x="1433" d="M199 918q0 39 30.5 67.5t75.5 28.5t76 -29t31 -67q0 -39 -31 -68t-76 -29t-75.5 29t-30.5 68zM0 719q0 41 28.5 71.5t71.5 30.5q41 0 70 -30.5t29 -71.5q0 -43 -29 -74t-70 -31q-43 0 -71.5 31t-28.5 74zM197 510q0 43 31.5 73.5t76.5 30.5q43 0 75 -30.5t32 -73.5 t-32 -73.5t-75 -30.5q-45 0 -76.5 30.5t-31.5 73.5zM815 510q0 41 31 69.5t76 28.5q43 0 73.5 -28.5t30.5 -69.5q0 -43 -30.5 -71.5t-73.5 -28.5q-45 0 -76 28.5t-31 71.5zM614 713q0 41 30 71.5t71 30.5t70.5 -30.5t29.5 -71.5q0 -43 -29.5 -74t-70.5 -31t-71 31t-30 74z M815 915q0 43 31 74t76 31t75.5 -31t30.5 -74q0 -45 -30.5 -75.5t-75.5 -30.5t-76 30.5t-31 75.5zM403 918q0 39 31 67.5t76 28.5t75.5 -29t30.5 -67q0 -39 -30.5 -68t-75.5 -29t-76 29t-31 68zM205 719q0 41 28.5 71.5t71.5 30.5q41 0 69.5 -30.5t28.5 -71.5 q0 -43 -28.5 -74t-69.5 -31q-43 0 -71.5 31t-28.5 74zM401 510q0 43 32 73.5t77 30.5q43 0 74.5 -30.5t31.5 -73.5t-31.5 -73.5t-74.5 -30.5q-45 0 -77 30.5t-32 73.5zM1020 510q0 41 30.5 69.5t75.5 28.5q43 0 74 -28.5t31 -69.5q0 -43 -31 -71.5t-74 -28.5 q-45 0 -75.5 28.5t-30.5 71.5zM819 713q0 41 30 71.5t71 30.5t70.5 -30.5t29.5 -71.5q0 -43 -29.5 -74t-70.5 -31t-71 31t-30 74zM1020 915q0 43 30.5 74t75.5 31t76 -31t31 -74q0 -45 -31 -75.5t-76 -30.5t-75.5 30.5t-30.5 75.5z" />
<glyph unicode="&#xad;" d="M0 713q0 41 30.5 69.5t73.5 28.5t74 -28.5t31 -69.5t-31 -70t-74 -29t-73.5 29t-30.5 70zM209 717q0 43 29.5 72.5t72.5 29.5t73 -29.5t30 -72.5t-30 -73t-73 -30t-72.5 30t-29.5 73zM414 717q0 41 29.5 71.5t72.5 30.5t72.5 -30.5t29.5 -71.5q0 -43 -29.5 -74t-72.5 -31 t-72.5 31t-29.5 74zM618 713q0 41 31 69.5t74 28.5t73.5 -28.5t30.5 -69.5q0 -43 -30.5 -72t-73.5 -29t-74 29t-31 72zM823 713q0 41 31 69.5t74 28.5t73.5 -28.5t30.5 -69.5q0 -43 -30.5 -72t-73.5 -29t-74 29t-31 72z" />
<glyph unicode="&#xbb;" horiz-adv-x="1433" d="M0 506q0 39 28.5 67.5t69.5 28.5t70 -28.5t29 -67.5q0 -41 -29 -69.5t-70 -28.5t-69.5 28.5t-28.5 69.5zM207 709q0 45 30.5 76.5t73.5 31.5q41 0 72 -31.5t31 -76.5q0 -47 -31 -79t-72 -32q-43 0 -73.5 32t-30.5 79zM0 922q0 39 30.5 66.5t73.5 27.5q41 0 72 -27.5 t31 -66.5q0 -41 -31 -69t-72 -28q-43 0 -73.5 28t-30.5 69zM618 915q0 41 30 71t73 30t72.5 -30t29.5 -71t-29.5 -70.5t-72.5 -29.5t-73 29.5t-30 70.5zM823 715q0 41 30 70.5t71 29.5t70.5 -29.5t29.5 -70.5q0 -43 -29.5 -73t-70.5 -30t-71 30t-30 73zM608 508 q0 39 32 66.5t77 27.5t76.5 -27.5t31.5 -66.5q0 -41 -31.5 -68.5t-76.5 -27.5t-77 27.5t-32 68.5zM205 506q0 39 28.5 67.5t69.5 28.5t69.5 -28.5t28.5 -67.5q0 -41 -28.5 -69.5t-69.5 -28.5t-69.5 28.5t-28.5 69.5zM412 709q0 45 30.5 76.5t73.5 31.5q41 0 71.5 -31.5 t30.5 -76.5q0 -47 -30.5 -79t-71.5 -32q-43 0 -73.5 32t-30.5 79zM205 922q0 39 30.5 66.5t73.5 27.5q41 0 72 -27.5t31 -66.5q0 -41 -31 -69t-72 -28q-43 0 -73.5 28t-30.5 69zM823 915q0 41 30 71t73 30t72.5 -30t29.5 -71t-29.5 -70.5t-72.5 -29.5t-73 29.5t-30 70.5z M1028 715q0 41 29.5 70.5t70.5 29.5t71 -29.5t30 -70.5q0 -43 -30 -73t-71 -30t-70.5 30t-29.5 73zM813 508q0 39 32 66.5t77 27.5t76.5 -27.5t31.5 -66.5q0 -41 -31.5 -68.5t-76.5 -27.5t-77 27.5t-32 68.5z" />
<glyph unicode="&#xc5;" horiz-adv-x="1433" d="M0 100q0 41 30.5 71t75.5 30t76 -30t31 -71t-30.5 -70.5t-76.5 -29.5q-45 0 -75.5 29.5t-30.5 70.5zM0 301q0 41 30.5 70.5t75.5 29.5t76 -29.5t31 -70.5t-30.5 -70.5t-76.5 -29.5q-45 0 -75.5 29.5t-30.5 70.5zM0 506q0 41 30.5 71.5t73.5 30.5t74 -30.5t31 -71.5 q0 -43 -31 -74t-74 -31t-73.5 31t-30.5 74zM0 709q0 41 30.5 70.5t73.5 29.5t74 -29.5t31 -70.5t-31 -71t-74 -30t-73.5 30t-30.5 71zM0 911q0 43 30.5 73t75.5 30t76 -30t31 -73t-30.5 -72.5t-76.5 -29.5q-45 0 -75.5 29.5t-30.5 72.5zM213 1118q0 43 28.5 74t71.5 31 q41 0 70 -31t29 -74t-29 -73.5t-70 -30.5q-43 0 -71.5 30.5t-28.5 73.5zM412 1122q0 41 30.5 71t73.5 30t74 -30t31 -71q0 -43 -31 -72.5t-74 -29.5t-73.5 29.5t-30.5 72.5zM621 1120q0 41 30.5 71t73.5 30t73.5 -30t30.5 -71t-30.5 -70.5t-73.5 -29.5t-73.5 29.5 t-30.5 70.5zM821 100q0 41 29 70t72 29q41 0 69.5 -29t28.5 -70q0 -43 -28.5 -71.5t-69.5 -28.5q-43 0 -72 28.5t-29 71.5zM821 303q0 41 32 72t77 31q43 0 74.5 -31t31.5 -72q0 -43 -31.5 -73.5t-74.5 -30.5q-45 0 -77 30.5t-32 73.5zM815 508q0 41 33 70.5t78 29.5 t77.5 -29.5t32.5 -70.5q0 -43 -32.5 -72.5t-77.5 -29.5t-78 29.5t-33 72.5zM815 711q0 41 32 70.5t77 29.5t76.5 -29.5t31.5 -70.5q0 -43 -31.5 -73t-76.5 -30t-77 30t-32 73zM819 915q0 43 31 74t76 31t75.5 -31t30.5 -74t-30.5 -73.5t-75.5 -30.5t-76 30.5t-31 73.5z M614 711q0 41 29 70.5t72 29.5q41 0 69.5 -29.5t28.5 -70.5t-28.5 -71t-69.5 -30q-43 0 -72 30t-29 71zM410 711q0 41 29.5 70.5t72.5 29.5t72.5 -29.5t29.5 -70.5t-29.5 -71t-72.5 -30t-72.5 30t-29.5 71zM211 711q0 41 28.5 70.5t71.5 29.5q41 0 70 -29.5t29 -70.5 t-29 -71t-70 -30q-43 0 -71.5 30t-28.5 71zM403 1530q0 43 32 72.5t79 29.5q45 0 77 -29.5t32 -72.5t-32 -73t-77 -30q-47 0 -79 30t-32 73zM627 1530q0 43 31.5 72.5t76.5 29.5t78 -29.5t33 -72.5t-33 -73t-78 -30t-76.5 30t-31.5 73zM199 915q0 43 31.5 73t78.5 30 q45 0 77 -30t32 -73t-32 -72.5t-77 -29.5q-47 0 -78.5 29.5t-31.5 72.5zM211 506q0 43 31.5 72.5t79.5 29.5q45 0 76.5 -29.5t31.5 -72.5q0 -35 -32.5 -69t-75.5 -34q-47 0 -79 30t-32 73zM213 301q0 43 33 72.5t78 29.5t76.5 -29.5t31.5 -72.5t-31.5 -72.5t-76.5 -29.5 t-78 29.5t-33 72.5zM219 96q0 43 32 73t79 30q45 0 76.5 -30t31.5 -73t-31.5 -72.5t-76.5 -29.5q-47 0 -79 29.5t-32 72.5zM834 1120q0 43 31.5 73t78.5 30q45 0 77 -30t32 -73t-32 -72.5t-77 -29.5q-47 0 -78.5 29.5t-31.5 72.5zM1030 915q0 43 33 73t78 30q43 0 69.5 -30 t26.5 -73t-26.5 -72.5t-69.5 -29.5q-45 0 -78 29.5t-33 72.5zM1032 711q0 102 96 102q45 0 77 -29.5t32 -72.5q0 -102 -94 -103q-47 0 -79 30t-32 73zM1030 506q0 43 33 72.5t78 29.5q43 0 69.5 -29.5t26.5 -72.5t-26.5 -73t-69.5 -30q-45 0 -78 30t-33 73zM1030 301 q0 43 33 72.5t78 29.5q43 0 69.5 -29.5t26.5 -72.5t-26.5 -72.5t-69.5 -29.5q-45 0 -78 29.5t-33 72.5zM1030 96q0 43 33 73t78 30q43 0 69.5 -30t26.5 -73t-26.5 -72.5t-69.5 -29.5q-45 0 -78 29.5t-33 72.5z" />
<glyph unicode="&#xc6;" horiz-adv-x="1638" d="M2 100q0 41 30.5 71t73.5 30t74 -30t31 -71t-30.5 -70.5t-74.5 -29.5q-43 0 -73.5 29.5t-30.5 70.5zM0 301q0 41 30.5 70.5t73.5 29.5t74 -29.5t31 -70.5t-31 -70.5t-74 -29.5t-73.5 29.5t-30.5 70.5zM0 504q0 43 29.5 72.5t72.5 29.5t73 -29.5t30 -72.5t-30 -73t-73 -30 t-72.5 30t-29.5 73zM0 711q0 43 29.5 73.5t72.5 30.5t73 -30.5t30 -73.5t-30 -74t-73 -31t-72.5 31t-29.5 74zM0 920q0 41 30.5 71.5t75.5 30.5t76 -30.5t31 -71.5q0 -43 -30.5 -74t-76.5 -31q-45 0 -75.5 31t-30.5 74zM0 1122q0 41 30.5 70t75.5 29t76 -29t31 -70 q0 -43 -30.5 -71.5t-76.5 -28.5q-45 0 -75.5 28.5t-30.5 71.5zM201 1329q0 41 30.5 69.5t75.5 28.5t76 -28.5t31 -69.5t-31 -69.5t-76 -28.5t-75.5 28.5t-30.5 69.5zM414 1329q0 41 30.5 69.5t73.5 28.5q41 0 72 -28.5t31 -69.5t-31 -69.5t-72 -28.5q-43 0 -73.5 28.5 t-30.5 69.5zM621 1325q0 41 29.5 71.5t70.5 30.5t70.5 -30.5t29.5 -71.5q0 -43 -29.5 -73.5t-70.5 -30.5t-70.5 30.5t-29.5 73.5zM821 1325q0 41 31 71.5t76 30.5q43 0 73.5 -30.5t30.5 -71.5q0 -43 -30.5 -73.5t-73.5 -30.5q-45 0 -76 30.5t-31 73.5zM1032 1325 q0 43 31 72.5t74 29.5q41 0 71.5 -29.5t30.5 -72.5t-30.5 -72.5t-71.5 -29.5q-43 0 -74 29.5t-31 72.5zM1024 100q0 41 29.5 70t72.5 29q41 0 71 -29t30 -70q0 -43 -30 -71.5t-71 -28.5q-43 0 -72.5 28.5t-29.5 71.5zM815 100q0 41 31 70t74 29t73.5 -29t30.5 -70 q0 -43 -30.5 -71.5t-73.5 -28.5t-74 28.5t-31 71.5zM610 102q0 43 30 73t73 30t72.5 -30t29.5 -73t-29.5 -72.5t-72.5 -29.5t-73 29.5t-30 72.5zM610 301q0 39 32 67.5t77 28.5t76.5 -28.5t31.5 -67.5t-31.5 -67.5t-76.5 -28.5t-77 28.5t-32 67.5zM610 504q0 45 32 75.5 t77 30.5t76.5 -30.5t31.5 -75.5t-31.5 -76t-76.5 -31t-77 31t-32 76zM610 711q0 41 31 70.5t76 29.5t75.5 -29.5t30.5 -70.5t-30.5 -71t-75.5 -30t-76 30t-31 71zM610 913q0 41 31 71t76 30t75.5 -30t30.5 -71q0 -43 -30.5 -72.5t-75.5 -29.5t-76 29.5t-31 72.5zM610 1114 q0 41 32 70.5t77 29.5t76.5 -29.5t31.5 -70.5t-31.5 -70.5t-76.5 -29.5t-77 29.5t-32 70.5zM823 713q0 39 31 67.5t74 28.5q41 0 71.5 -28.5t30.5 -67.5t-30.5 -68t-71.5 -29q-43 0 -74 29t-31 68zM410 713q0 39 29.5 67.5t72.5 28.5q41 0 70.5 -28.5t29.5 -67.5t-29.5 -68 t-70.5 -29q-43 0 -72.5 29t-29.5 68zM209 713q0 39 29.5 67.5t70.5 28.5t71 -28.5t30 -67.5q0 -41 -30 -70t-71 -29t-70.5 29t-29.5 70zM215 920q0 41 30.5 71.5t76.5 30.5q43 0 74.5 -30.5t31.5 -71.5q0 -43 -31.5 -74t-74.5 -31q-45 0 -76 31t-31 74zM215 1122 q0 41 30.5 70t76.5 29q43 0 74.5 -29t31.5 -70q0 -43 -31.5 -71.5t-74.5 -28.5q-45 0 -76 28.5t-31 71.5zM207 100q0 41 30.5 71t73.5 30t74 -30t31 -71t-31 -70.5t-74 -29.5t-73.5 29.5t-30.5 70.5zM207 305q0 41 30.5 71t73.5 30t74 -30t31 -71t-31 -70.5t-74 -29.5 t-73.5 29.5t-30.5 70.5zM207 510q0 41 30.5 70.5t73.5 29.5t74 -29.5t31 -70.5t-31 -70.5t-74 -29.5t-73.5 29.5t-30.5 70.5zM1231 100q0 41 30.5 71t73.5 30t74 -30t31 -71t-31 -70.5t-74 -29.5t-73.5 29.5t-30.5 70.5zM821 305q0 41 31 71t74 30t73.5 -30t30.5 -71 t-30.5 -70.5t-73.5 -29.5t-74 29.5t-31 70.5zM821 510q0 41 31 70.5t74 29.5t73.5 -29.5t30.5 -70.5t-30.5 -70.5t-73.5 -29.5t-74 29.5t-31 70.5zM1026 715q0 41 30.5 70.5t73.5 29.5t74 -29.5t31 -70.5t-30.5 -71t-74.5 -30q-43 0 -73.5 30t-30.5 71zM821 920 q0 41 31 70.5t74 29.5t73.5 -29.5t30.5 -70.5t-30.5 -71t-73.5 -30t-74 30t-31 71zM821 1124q0 41 31 71t74 30t73.5 -30t30.5 -71t-30.5 -70.5t-73.5 -29.5t-74 29.5t-31 70.5zM1231 1329q0 41 30.5 71t73.5 30t74 -30t31 -71t-31 -70.5t-74 -29.5t-73.5 29.5t-30.5 70.5z " />
<glyph unicode="&#xd8;" d="M203 102q0 41 29.5 71t72.5 30t73 -30t30 -71q0 -43 -30 -72.5t-73 -29.5t-72.5 29.5t-29.5 72.5zM0 303q0 41 29.5 70.5t72.5 29.5q41 0 71 -29.5t30 -70.5t-30 -70.5t-71 -29.5q-43 0 -72.5 29.5t-29.5 70.5zM0 506q0 43 30.5 72.5t75.5 29.5q43 0 74 -29.5t31 -72.5 t-30.5 -73t-74.5 -30q-45 0 -75.5 30t-30.5 73zM0 711q0 41 30.5 70.5t75.5 29.5q43 0 74 -29.5t31 -70.5q0 -43 -30.5 -73t-74.5 -30q-45 0 -75.5 30t-30.5 73zM0 915q0 41 31.5 72t77.5 31q45 0 76.5 -31t31.5 -72q0 -43 -31.5 -73.5t-76.5 -30.5t-77 30.5t-32 73.5z M0 1122q0 41 31.5 72t77.5 31q45 0 76.5 -31t31.5 -72q0 -43 -31.5 -73.5t-76.5 -30.5t-77 30.5t-32 73.5zM209 1325q0 43 30.5 72.5t73.5 29.5q41 0 72 -29.5t31 -72.5t-31 -72.5t-72 -29.5q-43 0 -73.5 29.5t-30.5 72.5zM621 1124q0 45 29.5 76t70.5 31t70.5 -31t29.5 -76 t-29.5 -75.5t-70.5 -30.5t-70.5 30.5t-29.5 75.5zM616 918q0 41 30 70.5t73 29.5t72.5 -30t29.5 -70q0 -41 -29.5 -71t-72.5 -30t-73 30t-30 71zM616 715q0 43 31 72.5t76 29.5q43 0 73.5 -29.5t30.5 -72.5t-30.5 -73t-73.5 -30q-45 0 -76 30t-31 73zM608 508q0 43 32 73.5 t79 30.5q45 0 76.5 -30.5t31.5 -73.5t-31.5 -74t-76.5 -31q-47 0 -79 31t-32 74zM608 301q0 41 33 71.5t78 30.5t77.5 -30.5t32.5 -71.5q0 -43 -32.5 -73.5t-77.5 -30.5t-78 30.5t-33 73.5zM416 918q0 37 29.5 64.5t72.5 27.5t73 -28t30 -64q0 -39 -30 -67t-73 -28t-72.5 28 t-29.5 67zM612 94q0 39 29 66.5t72 27.5q41 0 69.5 -27.5t28.5 -66.5t-28.5 -66.5t-69.5 -27.5q-43 0 -72 27.5t-29 66.5zM408 102q0 41 29.5 71t72.5 30t72.5 -30t29.5 -71q0 -43 -29.5 -72.5t-72.5 -29.5t-72.5 29.5t-29.5 72.5zM205 303q0 41 29.5 70.5t72.5 29.5 q41 0 71 -29.5t30 -70.5t-30 -70.5t-71 -29.5q-43 0 -72.5 29.5t-29.5 70.5zM205 506q0 43 30.5 72.5t75.5 29.5q43 0 74 -29.5t31 -72.5t-31 -73t-74 -30q-45 0 -75.5 30t-30.5 73zM205 711q0 41 30.5 70.5t75.5 29.5q43 0 74 -29.5t31 -70.5q0 -43 -31 -73t-74 -30 q-45 0 -75.5 30t-30.5 73zM205 915q0 41 31.5 72t76.5 31t77 -31t32 -72q0 -43 -32 -73.5t-77 -30.5t-76.5 30.5t-31.5 73.5zM205 1122q0 41 31.5 72t76.5 31t77 -31t32 -72q0 -43 -32 -73.5t-77 -30.5t-76.5 30.5t-31.5 73.5zM414 1325q0 43 30.5 72.5t73.5 29.5 q41 0 72 -29.5t31 -72.5t-31 -72.5t-72 -29.5q-43 0 -73.5 29.5t-30.5 72.5zM621 1329q0 41 29.5 69.5t72.5 28.5t72.5 -28.5t29.5 -69.5t-29.5 -69.5t-72.5 -28.5t-72.5 28.5t-29.5 69.5zM825 1124q0 45 30 76t71 31t70.5 -31t29.5 -76t-29.5 -75.5t-70.5 -30.5t-71 30.5 t-30 75.5zM821 918q0 41 30 70.5t73 29.5t72.5 -30t29.5 -70q0 -41 -29.5 -71t-72.5 -30t-73 30t-30 71zM821 715q0 43 31 72.5t76 29.5q43 0 73.5 -29.5t30.5 -72.5t-30.5 -73t-73.5 -30q-45 0 -76 30t-31 73zM827 508q0 104 97 104q45 0 76.5 -30.5t31.5 -73.5t-31.5 -74 t-76.5 -31q-97 1 -97 105zM829 301q0 102 95 102q45 0 77.5 -30.5t32.5 -71.5q0 -43 -32.5 -73.5t-77.5 -30.5q-95 0 -95 104zM414 717q0 45 30.5 75.5t73.5 30.5t74 -30.5t31 -75.5t-31 -76t-74 -31t-73.5 31t-30.5 76z" />
</font>
</defs>
</svg>
